<svg xmlns="http://www.w3.org/2000/svg" viewBox="0 0 527.81 1527.2"><defs><style>.cls-1{fill:#bf9e39;}</style></defs><g id="Layer_2" data-name="Layer 2"><g id="Layer_1-2" data-name="Layer 1"><path class="cls-1" d="M374.5,364.73q11.82,10.77,23.62,21.56l4-2.34c-7.12-17-13.68-34.27-21.47-51-14.66-31.42-33.89-61.09-37.22-96.74-1.06-11.4-.17-23-.17-34.5-31,2.7-43.61,18.18-41.4,47.05-.86-8.64-2-17.26-2.52-25.92-.8-13.74-5.14-23.11-21.49-22.29-13.88.7-27.86.42-41.75-.27-5-.26-9.95-2.94-15.15-7.78,15.8-.66,31.64-.8,47.39-2.12,18.14-1.51,36.23-3.86,54.25-6.49,1.78-.26,2.89-5.05,4.3-7.74l-.09-.09c1.76,12.27,6.53,20.05,22.7,13.07,0-26.14,0-53.12,0-80.11,0-24.75,1-23.61-28-14.71h17.29c-3.3,13.11-6.47,25.74-10,40l-9.37,2.85,9.3-22.41c-19.44-10.75-17.82,18.63-32.2,18.79,5.81-18.18.37-28.34-15.34-30-9.06-1-18.19-2.11-27.24-1.78-4.84.17-9.58,3.3-15.49,5.52l-5.26-7.12v79.18l-5.27.14c-.48-23.65-1.75-47.35-.68-70.94.18-3.86,10.43-10,16.36-10.37,19.18-1.38,38.52-.49,57.8-.72a23.73,23.73,0,0,0,14.34-4.4c-23.45,0-46.91-.51-70.33.26-9.21.3-18.53,3.87-19.57-6.32,12.59-1.5,25.07-2.39,37.31-4.62,11.81-2.16,26,11.67,38.16-8-13.39,0-24.24.5-35-.13-13.37-.78-26.75-3.92-40-3.33-8.54.38-20.43,1.4-19.13,17.83l-10.55-8.57L193.73,82l9.53,16-1.91,2.53-16.48-8.09c0,18.16,0,35.62,0,53.09,0,8.05-.05,16.1-.34,24.15-.45,12.79-3.12,26.7,16.72,27.21,1.28,0,2.45,3.94,4.92,8.22-25.39-10.39-14,12-20,18.67-14.18-40.67-6.82-82.73-8.63-124.14-.19-4.27,3.51-8.59,4.26-13.08.69-4.16,1.51-9.81-.61-12.69-8.83-12-14.13-50-6-61.48,3.54-5,10.8-9.12,17-10.22C203.58.13,215.45.59,227.14,0l.45,4c-9.51,1.19-19,3.13-28.53,3.39-14.36.38-21.51,8.11-20,21.22C180.64,42,172.81,59.37,192.4,66.7c16.77,6.29,27.89-1.6,26.79-19.11-.56-8.87-.88-17.77-4.34-27q-2.17,16.14-4.34,32.28l-2.22-.3V18.42l-3.2-.57q-2.91,18.88-5.8,37.77l-1.54.22q-1.29-14.39-2.59-28.77l-5.62,0-1.29,27.46H185.9V20.25l49.89-7.1V60.81L239.67,63c2-3.89,5.33-7.68,5.57-11.67.74-12.08.27-24.24,2.07-36.34,8.39,14.87,0,32.84,11.91,46.75,0-10.81.39-21.63-.12-32.42C258.65,19.81,261.65,16,272,16.56c22.81,1.31,45.68,1.44,67.43,2,1.59,16.94,2.86,30.47,4.14,44l7.81-.86c-2.14-15.69-3-31.76-7.28-46.83-1.13-4-12.93-6.47-20-6.83-17.66-.91-35.4-.2-53.1-.16-6.17,0-12.35,0-19-3.43,2.51-1.17,5-3.33,7.53-3.36,23.59-.29,47.23-1.07,70.78,0,19.58.91,27,8.73,27.34,28.54.27,15.39,6.66,32.22-7.13,45.72-1.06,1-1.07,4.45-.19,5.95,13.29,22.65,5.9,47.08,5.48,70.62-.49,27.11-6,54.22-5.27,81.22.88,34.11,21.22,62.26,33.71,92.89,13.26,32.49,22.87,66.52,33,100.19,2.34,7.76.34,16.83.34,25.76H400.77l9.27,8.05-12.27,7.2,21.29,2.29c-4,17.49-6.49,34.95-12.1,51.33-9.95,29.06-9.9,56.45,11.79,79.64,10.8,11.55,24.72,20.44,38,29.3,58.9,39.12,80.43,106,67.31,170.72a117.42,117.42,0,0,1-13.46,36q3.23-21.67,6.44-43.35l-2.76-1L485.58,848.9l6.74-.75c.25,1,.5,2.08.76,3.12l-17.86,4.63v16.63l16.66-18c-2.16,11.38-3.62,19.08-5.09,26.78l.89-.15c-2.66,8.35-5.33,16.71-8.64,27.07l7-.61c-2.79,8.12-6.35,16.29-8.28,24.82-1.36,6,.37,12.69-1,18.69-.88,4-4.74,7.3-7.26,10.91l15.28,6.45-19.34,5.82,16.71,9.9-4.84-.42q-1,12.86-2,25.72l2.77-.58c-2.3,3.82-6.66,7.7-6.57,11.46.74,29.15-2.18,58.69,4.62,89.1l-10,5.88,14.36,7.05-13.45,12.69,9.5,4.54-17,6,17.17,3.38c0,.64.07,1.28.11,1.92-4.09.58-8.17,1.17-12.26,1.74q-1.36,11.43-2.74,22.88l3.27,1.38,2.59-5.32,19.19,7.65c7.69-113.65,15.16-224.13,22.63-334.6l2.88,0c0,9.09.56,18.22-.08,27.26-4.89,68.43-11.15,136.78-14.65,205.27-2.35,46,.52,92.24-1.52,138.26-2.08,47.07-7.3,94-11.06,139.83l-16.4-4.85c-.82,5.75-4,12.54-2,17,4,9-.73,10.13-7,11.45-8.73,1.84-17.76,3.27-16.85,15.18l-19.21-8.38-3,2.25,19.07,26.25c15.28-13,46.17,1.16,51.46,22.83l4.64-.71-17.58-69,3.23-.42c7.65,16.26,18.26,31.88,22,49,3.17,14.37-1.55,30.51-2.93,45.85-.95,10.63-2.13,21.25-3.29,31.86-2.62,24-12.09,33.66-36.47,33.6-24.1-.07-48.18-2.93-72.29-3.45-29.82-.65-59.65-.16-90.64-.16l8.74-12.42c-.57-.7-1.14-1.41-1.72-2.11-7.39,3.88-14.62,8.12-22.24,11.47-3.23,1.42-8.64,2.74-10.73,1.12-11.43-8.91-22.42-8.68-34.49-1.54-2.87,1.69-7.35.78-11.09.8q-81.23.55-162.46,1c-19.84.08-30.17-7.82-33.76-27.26-2.51-13.6-3.18-27.55-4.67-41.34l3.91-.84c3,12.82,4.62,26.12,9.32,38.27,2.95,7.64,10,14,16.25,19.82,1.26,1.15,7.46-3.1,11.13-4.74-1.12-8.65-2.45-18.88-3.78-29.12l5.43-1.09L48.9,1459.87c-1.5-6.7-3.7-14.42-4.76-22.29-.54-4,1-8.21,1.59-12.32l9.42,6.26,1.21-7.83,3-1.76,8.86,16.18-10.5,3.7.32,2.85,13.69.94c4.47,16.17,4.92,35.53,24.59,42.77,3.51-6.8,5.34-13.88,9.84-18.12s11.66-5.59,17.66-8.22l-1.48-3.7L107,1462.62l-1.2-4.27,32.38-7.5-7.87,10.81,1.82,3.31,16.69-7.49c-2.11-4.18-4.93-8.16-6.12-12.58-1-3.83-.22-8.15-.22-12.6-15.3,2.53-32.92-2.33-39.43,19.39-3-18,1.94-28.4,17.07-30.84,18.85-3,38.18-3.56,57.34-4.14,17.61-.54,35.28.9,52.87.14,6.23-.26,12.29-4.46,18.43-6.87-.19-1.76-.38-3.52-.58-5.28-16.56-1.06-33.19-1.51-49.66-3.37-14.45-1.63-28.74-4.83-43-7.36,7.66.8,15.22,1.75,22.8,2.41,22.18,1.91,44.38,3.52,66.54,5.65,6.58.64,13,2.6,20.4,4.13l-12.5,10.32c18-1.34,36.43,4.56,51.16-5.11h15.68c3,4.43,35.83,7.21,47.84,2.74,1.63-7.68,2.53-11.89,3.43-16.09,10.69,14.1,24.13,1.71,35.83,5.88,2.24-33.48-23.86-12.94-35.49-23.91v18.48c-4.51-11-9.49-20.74-24.47-14.4-2.54,1.07-6.19-.84-9.31-.73-27.07.93-54.15,3-81.21,2.74-18.8-.15-37.55-3.95-56.38-4.9-10.77-.54-22.37,4.1-32.31,1.49-13.53-3.55-13.79,1.48-12,11.38l-18.83-10.56c-10.83-21.35-11.8-45.11-1.58-68.81,16.89-2.19,1.19,11.75,10.64,16.07l10.78.81L140,1342l1.89,4.56,15.05-1.4,9.47,20.37c17.93-15.46,37.91-5.46,57.13-8.55-1.18,4-2,6.7-4.4,14.71,15.1-7.21,26.55-12.64,38-18.16,3.67-1.77,7.07-4.27,10.88-5.61,5.94-2.08,13.51-1.77,17.95-5.44,14-11.58,27.77-22.63,44.79-22,2.49,3.57,5,8.17,5.63,7.93,17-6.56,17.12-20.09,12.91-35.68-24.35-4.38-49.46-6.39-74.61,3.12-7.28-9.13-125.52-10.32-138.66,1.27l24,2.77-3.32-2.27-21.13,17.49c-1.66-5.21-4.66-10.41-4.7-15.64-.1-11.25-6.58-22.79,4.29-34,3.61-3.73-1.4-15.13-1.16-23,.4-13.52,1.83-27,2.87-41l-17.85-6.71,23.24-16.34-13.4-5.37,14.14-8-2.2-3.24-15.79-2.9.27-3.33H142c.4-1.32.8-2.63,1.21-4l-11.42-6.09c2.72-3.64,7.6-7.37,7.75-11.28.11-2.88-6-6-8.54-8.35,1.22-.82,6.39-2.46,7.68-5.66s-1.57-7.74-3.79-5.57c.59-8.72,1.18-17.45,1.77-26.26-17.08-6.34-36.06,3-50.77-8.1l.48-4.66H438.2c.27-2.77,1-6.92,1-11.08q1.11-90.12,2-180.25c.15-15.95-3.42-18-20.35-14.5-27.48,5.76-55.18.94-82.74.43-20.34-.38-40.62-4.85-61-5-15.36-.12-30.72,5.15-46.14,5.45-22,.42-44.12-1.72-66.19-2.36-14.06-.41-28.14-.08-40.14-.08-3.59-5-5.86-8.24-8.14-11.43l-5.71,7.71c-19.41-37.31,3.43-71.76,6.5-108.23L133.58,759l.12,2.65-9.83,1.68c-.4,1.45-.79,2.9-1.18,4.35l33.86,8.42-30,1.92c-.09,1.35-.19,2.71-.28,4.06l22.72,6-.2,1.85H121.43l8.34,9.38-11,6.26c7.7,0,12.43,1,13.06-.16,5.37-10.06,13.27-6.29,21.58-5.73,30.84,2.1,61.75,3.5,92.65,4.5,24,.78,47.94.68,71.91.73,2.8,0,5.61-1.54,8.17-4.64l-13-2.27c20.61,4.31,31.1-8.88,40.9-23.3-19,0-19,0-20.08,11H309.42l19.6-7.84-.48-3.4-14.41-1.94L343.79,770c0-.94,0-1.87,0-2.8l-55.87-4.06c.06-1,.11-1.94.16-2.91h79.38l-4.65-11.81,35.23-29.7-2-4.09C318.46,757.52,240.7,748.91,162.86,717c26.45,5.46,52.68,13.42,79.4,15.67,27.35,2.31,55.18-1,82.8-1.83l-.12-4.29H260.27c-.06-.92-.11-1.84-.17-2.75l44.9-4.53-15.43-8.61c1.75-2.91,3.5-5.8,5.47-9.05l-5.14-.95c1.22-13.35,2.32-25.45,3.25-35.72l22.33-15.62c-.65-1.36-1.29-2.73-1.94-4.1l19,2.56c-53-24.47-171.16-10.07-202.87,21.13,2.43-14,11-25.41,22-33,24.11-16.62,53-19.39,81.08-22.49,20.7-2.29,41.67-2,62.5-3.24,3.72-.21,7.33-2.2,11-3.37,6,8.46,10.45,7.86,22.87-3.1,2.65,4.71-6,18.57,10.08,12.38,5.72,10.63,10.87,3.45,16.13-.51-3.86,7.29,2.27,7.41,6.28,10.73,9.77,8.09,11.23-3.77,16.7-5.49q-1.21,6.64-2.42,13.29l4.29,1.65,23.15-37.08L400,596.35,383.71,613.7l9.72-20.05-2.86-4.7L365,598.35l3-10.92-13.63,9.86c-2.18-2.3-4.87-6.84-6.44-6.48-5.42,1.25-10.44,4.2-15.61,6.5-.3-13.17-6.77-9.47-13.54-4.95-9.43-.87-18.87-2.46-28.3-2.47-44.37,0-88.79-.81-133.07,1.26-14.52.68-31.24,5.88-42.5,14.69-27.26,21.35-53.44,44.61-76.95,70C26.28,688.4,21.47,707.31,10.2,723.49c.78-5.78.59-11.9,2.48-17.3C26.56,666.61,53.51,636.65,88.05,615c43.69-27.32,42.79-69.38,32-108.41-2.79-10.13-5.75-20.22-8.63-30.33l5.43-2.08q7.86,26.2,15.73,52.42l4.22-1.31c-.88-4.14-1.75-8.28-2.71-12.85l8.14,1.82c-10-30.34-13.3-60.6-5.81-91.36l-.39.44c6.45-15.59,21.65-11.79,32.6-12.09,51.39-1.4,102.84-.7,154.26-1a46.68,46.68,0,0,0,19.15-4.64c-24.5-10.55-51.93,2-77.31-8.92.11-.62-.32,1.91-.81,4.76l-11.23-2.15c.89-3.94,1.74-7.66,2.52-11.12L226.4,400.51c5.3-7.49,8.53-12,14.53-20.5L217,390.7c-.18-2.9-.44-7.31-.88-14.5H335.29l-16.78-64,11.89,13.38c2.89,17.4,5.45,32.84,8.6,51.79l30.23-9.13Zm-179,791,8.58-4.35-2.39-3.32c-2,2.56-4.07,5.12-6.08,7.69-.35,1.56-.7,3.11,0,.19C196.5,1158.85,196,1157.28,195.49,1155.71ZM422.56,638.53l.17-11.31-4-7.47c-1.9-4.77-3.8-9.55-6.67-16.74-8.31,12.24-15.24,22-21.61,32.18-1.29,2.06-.44,5.47-.58,8.26,2.62,0,5.24,0,7.85,0,2.94,0,5.87,0,8.8.05q-.21,5.92-.44,11.86l4.76,5.67q-4.12,16-8.24,32.08C418,672.3,441.81,657.7,448,627.26l-25.39,17.52Zm60.9,49c1.71-3.87,5.28-8,4.69-11.52-.89-5.26-4.33-10.27-7.48-14.85-.86-1.25-5.67-1.63-6.66-.56-1.94,2.1-4.23,6.54-3.27,8.18,3.78,6.45,8.77,12.18,13.31,18.18.79,8.53,1.59,17.06,2.59,27.77l14.52-13.11c-12.86,11.87-4.48,27.26-6.78,40.94l14-4.59c-6.27,11.54-10.26,18.91-15.78,29.09l17.73-8.72c-1.65,7.91-3.19,15.38-4.74,22.85l3.46,2.16c2.72-4,7.91-8,7.74-11.87a504.63,504.63,0,0,0-5.25-55.72c-.78-5-7-9.2-10.77-13.71l-4.62-22.66ZM185.16,1210q-10,16.72-20,33.45l2.43,1.52,43.45-55.75-3.15-3.08-7.8,3.52,8.09-18.33-3-3.4-41.06,34.35Zm12.07-709.66,28.61,8.24.95-2.17L214.33,499l37.95-5.07c-7.68-8.33-13.95-15.14-20.22-22l3.47-3.35q3.89,6.28,7.79,12.57l3.08-1.29c-.67-4.8-1.33-9.59-2-14.68l15.86,4.28,1.63-3.84-29.43-17.31h28c-6.12-4-12.79-4.36-18.32-7-5.88-2.84-10.37-8.43-16-11.87-9.67-5.87-28.31,3.76-28.63,18.79l-4.49-16-10.18,6.11c1.68,4.5,3.66,9.78,6.29,16.8l-19-8.92-3.45,4.28,15.29,7.4-2.69,3.1-13.44-3,13.93,13.27L169.06,469l-1.94,3.15L192.78,489l-20.24-5.41c-.23.81-.45,1.62-.68,2.43L190.76,497l-13.52.83c23.3,14.63,23.3,14.63,22.86,25.3l-19.26-7.49L178.09,520c9.38,5.87,18.75,11.75,29.83,18.7l-21.38-5.18c5.3,6.71,12.76,12.08,14.25,18.78,4.85,21.76,20,15.55,38,16l-20.61-29.38h6.75l3.49-3.75Zm-52.94,80.86L247,591.41q.38-2.71.76-5.43c-4.85-1.53-9.6-3.52-14.56-4.5-19.34-3.83-40.8-4.22-44.56-30.78-.42-3-2.76-5.75-4.6-8.35-2.19-3.11-6.4-5.64-7-8.91-6.78-38.19-19.92-75.89-7.9-116-11.85-1-21.6-3-25.53,9.81-6.68,21.81-9.38,43.59-1.55,65.83,5.31,15.1,9.39,30.64,14.94,45.64C162.83,554.39,165.57,568.82,144.29,581.15Zm324.58,704.61c-.82,14.36-1.6,27.79-2.44,42.49l13-.68c2.23-30.55,4.35-59.63,6.62-90.73l-14.17,2.28c-1,5.74-2.22,8.93-1.83,11.9.44,3.43,2.33,6.66,4,11.16l-18.63,2.58c.06.68.11,1.37.17,2l16.88,2.14-.48,4.13H455.05v11.8Zm-8.15-53.09c25.91,3.49,25.87,3.49,26.78-23.89.16-4.81,2.18-10,.84-14.3a31.9,31.9,0,0,0-9.49-14.17c-1.18-1-7.51,4.11-11.45,6.4-.67-1.39-1.92-4-3.18-6.64l-2.57.65q-1.11,21.18-2.23,42.37l4.24.16,2.67-12.81,4.48,2ZM398.47,1264c4.83-4.27,9.18-6.28,9.28-8.49,1.6-34,2.91-68.06,3.49-102.11.07-4.4-4.29-8.87-6.6-13.31-2.11,4.16-4.6,8.18-6.18,12.53-.82,2.25,0,5.08,0,7.65C398.47,1193.25,398.47,1226.23,398.47,1264Zm-216,12.19,38.9-52.47c-23,12.64-40.35,29.47-44.68,57.06h16.92c.11-1,.22-2,.34-3Zm-4,181.11,29.38-7.37c-.27-5.89-.54-11.91-.87-19-21.34,15.13-21.34,15.13-28.51-3.28ZM344.85,721.68c19.8-5.11,35.75-14.87,41.58-35.3,1.28-4.47-2.07-10.26-3.29-15.44l-4.24.57C384.31,700.25,360.79,708.15,344.85,721.68Zm-192,462.92c21.88-9.54,32.34-24.58,27.9-40.86C171.33,1157.49,163.41,1169.09,152.81,1184.6Zm72.94,257.9-2-2.8,5.5-6.63-4.81-2.77-11.35,22.23,26.66-2.59c-.72-7.47-1.44-14.8-2.34-24Zm-51.35-1.26-18.47,8.27c.2.49-.86-2.11-1.91-4.71l-2.81.77c.37,5.06.75,10.12,1.19,16C162.3,1458.13,177.24,1463.56,174.4,1441.24Zm45.27-182.87c-15.86-8.77-21.2.6-24.28,13.37C209.92,1279.76,209.77,1259.89,219.67,1258.37Zm136.27-10.65-5.63-3.26-18.9,30.6,5.36,3.15ZM224.77,61.43l3.62.3V19.55l-3.62,0Zm37.44,502.15-14,2.3c0,1.12.06,2.24.08,3.36l23.53,1.06c-3.8-7.87-6.66-13.77-10.53-21.78C261.64,554.52,261.89,558.49,262.21,563.58Z"/><path class="cls-1" d="M31.24,1191.13c-1-13.53-2.14-27.06-3-40.6C24.34,1092.78,16,1034.88,17.88,977.32,20.3,904.21,2,833.63,0,761.39a97.22,97.22,0,0,1,1.82-22.21c.49-2.35,5.17-3.84,7.94-5.72,1.25,2.65,4,5.58,3.53,7.89C1.22,804,23.31,864.63,24.42,926.56c1.11,62.13,5.86,124.2,8.29,186.32,1,26.08.17,52.24.17,78.36Z"/><path class="cls-1" d="M26.18,744.71c1.12-5.47,2.24-11,3.41-16.69l23.61,9.9c-.85,12.3-3.61,26.19-2.21,39.65,1.36,13.17,9,25.7,10.31,38.86,3.88,40.15,6,80.47,8.94,122.47l-22.14-10,15.44-3.72L48.79,914.44H63.94c.48-5.87.89-11,1.3-16.05l-16.6-7.45,10.38-15c-1-10.3-2.54-17.6-2.13-24.79,1.16-20.49-10.06-33.16-25.69-43.5-3.59-2.37-7-5-9.39-10l16,2L21.25,779.78,33.34,779c.54-7.1,1.76-12.84,1.18-18.39-.6-5.7-3-11.21-4.55-16.81Z"/><path class="cls-1" d="M136.45,422.94l-13.18-5.11c-1.29,7.93-2.43,15.9-3.93,23.8-1.39,7.27-3.18,14.47-6,26.95-1.67-7.56-3.5-11-2.92-14,6.22-31.88,9.63-64.79,20.11-95.25,13.6-39.5,32.9-77,49.75-115.43l4.46,1.75-54,131.3h24.83c-2.49,7.25-5.67,16.48-8.85,25.71-.7-1.53-1.41-3.05-2.11-4.58-5.74,1.08-12.95.37-16.89,3.63-7.09,5.85-2.6,10.24,4.41,13.47,2.09,1,2.61,5.36,3.85,8.19Z"/><path class="cls-1" d="M124.66,893.06H403.14c0,1.46,0,2.91,0,4.37-92.82,4.22-185.65,4-278.49.26C124.67,896.14,124.67,894.6,124.66,893.06Z"/><path class="cls-1" d="M131.14,1046.63c84.08-9.18,168.67-2.94,253-6,0,2,.08,4,.11,6Z"/><path class="cls-1" d="M25.41,1444.49c-7.27-17.59,0-30.37,6.5-44.06,4.54-9.56,8.06-20.83,7.83-31.24-1.05-49.09-3.55-98.16-3.21-147.58,2,15,4.55,30,5.75,45.12,2.68,33.67,4.7,67.39,6.91,101.1,1,15.32-1.58,29-11.38,42.19C31.32,1418.77,29.91,1431.28,25.41,1444.49Z"/><path class="cls-1" d="M82.63,1264c1.48,3.2,4,6.32,4.26,9.61,1.55,21.86,4.44,43.86,3.17,65.59-.84,14.21-7.86,28.08-12.45,42-.39,1.2-3.31,1.57-5.82,2.65L83.18,1349l-13.91-4.19c.21-.82.42-1.64.62-2.46,3.81.2,7.65.79,11.41.44,2.14-.2,4.91-1.4,6.06-3.07,4.54-6.6-15.51-8.39-3.52-16.9l-12-16-2.77,1.83v-15.48c2.3,7,1,17.46,14.1,11.18-4.38-6.76,5.69-23.49-8.3-20.53,14.1,4.07,5.48-12,8.17-20Z"/><path class="cls-1" d="M145.5,664.32c11.27-5.09,22.37-10.66,34-14.62,1.37-.46,9.06,10.92,8.25,11.83-9.17,10.25-18.17,21.71-29.79,28.33-8.53,4.85-17.1-13-12-26.09,2.11,7.88-1.57,20.23,12.14,19.79,11.86-.38,18.78-13.08,17.25-29.52Z"/><path class="cls-1" d="M211.57,378c-4.15,20-6.93,21.91-31.36,22.42C182.85,374.82,184.57,373.51,211.57,378Z"/><path class="cls-1" d="M319.61,145.5c2.5,4.63,6.1,9,7.22,13.95,1.19,5.27.06,11.07-.07,16.65l.09.09c-8.29,7.92-13.94,1.16-19.73-3.73-3.25-2.74-6.08-6-9.88-9.79L314,161Z"/><path class="cls-1" d="M82.63,1264l.42-.11-11.79-21.51,6.9-2.88-9.25-8.37,13.56-4.65-14-5.43,10.11-8.5c-3.72-2.72-7.43-5.45-12.51-9.15l16.58-2.92Z"/><path class="cls-1" d="M319.9,265.15V220.24l3.58-.59c1.77,13.73,3.88,27.44,4.84,41.22C328.43,262.32,321.76,264.25,319.9,265.15Z"/><path class="cls-1" d="M374.5,364.73l-5.27,3.55q-5.52-20.14-11-40.29C370.7,337.23,373.34,350.65,374.5,364.73Z"/><path class="cls-1" d="M125.71,730.78c-2.56,0-12.31,1.48-12.91-.24a152.1,152.1,0,0,1-8.51-42.46C110.57,703.51,103,725.78,125.71,730.78Z"/><path class="cls-1" d="M90.52,868.55l-3.69,53.53C86.83,904,74.94,885.35,90.52,868.55Z"/><path class="cls-1" d="M406.53,643.46l12.21-23.71,4,7.47q-6.63,12.42-13.27,24.84l.61-.66L406.41,655l-.32.33Q406.32,649.4,406.53,643.46Z"/><path class="cls-1" d="M409.46,652.06l7-3.94L410.85,661l-4.76-5.67.32-.33,3.66-3.59Z"/><path class="cls-1" d="M415.94,648.66q3.31-5.05,6.62-10.13c0,2.09.05,4.17.08,6.25Z"/><path class="cls-1" d="M214.11,925.79c0-1.3,1.87,7.46,3.73,11.72,1.87,5.93,3.74,9.92,3.74,11.72,0-2.5-2,0-2,0-1.11-3.28-2.23-6.83-3.37-6.23-1.14-1.52-2.3-2.75-3.48-4.56-2.36-2.4-4.8-6.8-7.31-7.33-2.51-4-5.26-3.94-8.25-4.18-3-1.06-6.21.4-9.67-1.4-2.54,2.09-5,1-7.41.79-2.41,1.57-4.76,1-7,2.39-2.29-.23-4.43,3.59-6.44,3.9-2,3.34-3.88,3.27-5.61,5.32-1.59-.52-3,4.35-4.18,5.65-1.19,3-2.18,4.64-3,6.79-.79,3-1.39,5.6-1.79,7.29-.4,5.46-.6,6.28-.6,8.07,0,2.18.42,10.12,1.24,12.24a39,39,0,0,0,3.7,11c1.65,3.94,3.6,6.13,5.88,9.27,2.27,1.83,4.86,7.49,7.76,7,2.9,2.75,6,5.13,9.17,4.43,3.22,1.84,6.59,2,10.12,1.48,4.37,1.49,8.26-.67,11.68-2.18,3.42.23,5.85-3.78,7.28-5.88,1.34-1.81,2-6.13,2-11.17v-2.2c0-3.32-.27-3.39-.81-8.58-.54-2.83-1.5.32-2.89-4.87-1.32-.91-2.95,1.79-4.89-2.94-1.93,2.11-4.18,2.09-6.73-1.41v-2c0-.67,4.44-1.44,10.37,0,3,1.11,6.29,1.73,9.63-.17,3.33,1.3,6.66,1.68,9.63.17,5.92-.64,10.37-3.4,10.37,0v2c-3.46,3-6.06-2.26-7.79,5.39-.61-.34-1.06.32-1.37,4.73a56.19,56.19,0,0,0-.45,7.68v11.82c0-.45,4,4,4,6-.61-.2-1.3-2.3-2.08-.06-3.33.26-6.54,2.17-9.61.84s-7.06-.65-12,3.18c-4.68,1.2-8.67,4.09-12,3.09-3.31,2.2-6.83-.93-10.55.81-7.06-1.9-13.35-3-18.89-3-5.53-.8-10.29-2.53-14.3-8.86-2.19-2.35-4.13-6-5.84-7.14a20.89,20.89,0,0,1-4.39-8.29c-1.22-1.79-2.14-7.06-2.75-9s-.92-7.91-.92-9.19a71.91,71.91,0,0,1,.95-9.36c.62-1.48,1.57-6,2.82-8.88a47.15,47.15,0,0,1,10.46-15.14c2.23-2.16,4.64-4.53,7.24-5.78,2.59-3.43,5.38-1.16,8.34-4.38,3-1.24,6-1.71,9.16-2.75,3.14,1,6.36-1.91,9.67-.92,1.89,1.9,4,.92,6.22.31,2.26-.83,4.72.47,7.36.92.78-1.34,1.7,2.3,2.76.43,1.06-.18,3.08.33,6.07,1.07,1.56,1.64,2.84-1.07,3.83.45.17-.9.48,1.45.91-.06.43,0,.91.57,1.43-.07C213.63,927.62,213.89,925.61,214.11,925.79Zm-36.89,87.28c-2.42-1.87-4.62-.53-6.59-2.6-2-1.71-3.71.52-5.23-2.73-3,.16-5.91-5.11-8.63-7.27-1.84-1-3.47-4-4.88-6.77-1.42-.67-2.62-6.18-3.6-7.71-1-1.1-1.72-5-2.22-8.39-.49-.42-.73-3.54-.73-8.82a46.43,46.43,0,0,1,.53-7.65c.36-4.93.89-2.51,1.61-7.48.71-1.82,1.59-5.61,2.63-7,1-4.5,2.24-2.86,3.6-6.08,1.45-2.1,3.32-5.72,5.6-6.34,2.29-3.1,5-3.11,8.11-6.52a18.57,18.57,0,0,0-8.59,5c-2.62,2.9-5,2.18-7.16,5.89a44.36,44.36,0,0,0-5.67,6.77c-1.62,2.39-3,7.12-4.07,7.58-1.1.81-1.92,7.36-2.46,8.28-.55,1.74-.82,7.71-.82,8.87,0,3,.4,9.82,1.21,10.83a53.16,53.16,0,0,0,3.62,9.88c1.62,5,3.56,4.91,5.84,8.53,2.28.91,4.89,2.51,7.83,6.74,2.95,3,6.09,3.37,9.44,4.67C169.93,1013.76,173.48,1014.81,177.22,1013.07Zm28.25-40.78c0,.47,3.83.29,3.83,2.85,1.47-1.09,2.42,4.6,2.83,2.6.41.69.61,4.51.61,2.92,0,.57,0,.51,0,1.17,0,4.44,0-.25,0,1v11a25.1,25.1,0,0,1-1.14,8.12c-.75,3.93-2.22,3.63-4.38,6.1,2.06-1.9,4.12-3.43,6.19-2.09,2.06,1.76,4.14-.83,6.21-1.22V982.81c0,1.35,0-.87.07-2.15,0-3.47.23-1.52.68-3,.45,3.84,1.37.74,2.76-2.5,0-.15,3.83-.24,3.83-2.85a90.06,90.06,0,0,1-10.78,0C210.86,970.57,205.47,969.36,205.47,972.29Z"/><path class="cls-1" d="M238.85,1013.33v-2c4.68-3,8.07-4.89,10.2-5.39.82-2.36,1.44-.29,1.85-4.66.41-6.8.61-5.78.61-7.75v-49a75.84,75.84,0,0,0-.64-8.57c-.44-4.19-1.24-3.45-2.41-4.55-2.16-2.85-5.37-6.11-9.61-4.67v-2a61.26,61.26,0,0,1,10.49,0c6,1.1,13.49-.57,19.48,0,6,1.22,10.49.86,10.49,0v2c-4.68,1.79-8.1,1.92-10.26,5.39-.87,2.8-1.5,2.36-1.88,4.51a61.36,61.36,0,0,0-.59,7.89v49a42.22,42.22,0,0,0,.68,8.35,28.46,28.46,0,0,0,2.44,4.77c2.16,3.19,5.37,2.93,9.61,4.68v2c0,.28-4.5-2.19-10.49,0s-13.49.65-19.48,0C243.35,1012.51,238.85,1012.6,238.85,1013.33Zm9.09-3.31c0-1.8,4.74-1.53,9.48,0,4.75.47,9.49-2,9.49,0,0,.18-2.54.13-2.54-1.89-1.47-2-2.41-3.84-2.82-2.59-.41,1.72-.62-1.64-.62-2.93,0,1.08,0-1,0-1.39,0-2.06,0-.24,0-.75V937.54c0-.36,0-2.15,0-.78,0,.33,0-2.51,0-1.36a14.86,14.86,0,0,1,.62-2.92c.41-.74,1.35-2.55,2.82-2.6,0,2.15,3.7-1.58,3.7-2.73,0-.57-5.32,2.36-10.65,0s-10.65,2-10.65,0c0-.51,3.71,3.92,3.71,2.73,1.51.33,2.46,2.87,2.85,2.53.39-1.67.59,2.84.59,3s.06-.79.06,2.14v62.93c0-.88,0-.21-.06,2.14,0-1-.2.91-.59,3-.39,2.74-1.34.73-2.85,2.56C250.48,1008.36,247.94,1011.27,247.94,1010Z"/><path class="cls-1" d="M376.2,1015.41c0,.86-1.95-1-1.95,0,0,.77-1.6,0-4.33-4.61-1.36-.42-3-1-4.87-5.19a22,22,0,0,0-6.2-6.6c-2.24-1-4.65-5.91-7.16-7.07-2.5-1.61-5.11-5-7.76-8.82-2.65-1.2-5.33-7.78-8-8.84-2.67-2.54-5.32-7.11-7.88-8.07a15.06,15.06,0,0,1-5-5.17c-1.62-4.55-3.19-3.26-4.69-5-3-2.45-5.7-6.07-8-8.66-4.56-4.57-7.41-5.48-7.41-7.9,0,0,0,4.12,0,11.3,0,3,0,6.05,0,9.47,0,3.65,0,5,0,11.51,0,4.33,0,11.66,0,11.3,0,5.75.28,10.39.85,11.69.56-1,1.47,6.35,2.72,7.6a12.31,12.31,0,0,0,5.8,5.81c2.39.73,5.24,2.94,8.56,3.15v2c0,2.13-2.13-2.52-5.31-.32-3.18.07-7.43-.11-11.68.32-8.49-2.24-17,1.68-17,0v-2c2.92-1.15,5.36-4,7.31-4.7,2-2.47,3.41-5.91,4.38-7.58a29.45,29.45,0,0,0,1.43-6.59c.26-1.78.39-1.31.39-9.12v-46.5c-3.38-5.71-6-8.27-7.79-7.14-1.82.71-3.9-3.57-6.24-3v-2c0,1.77,6.3,2.23,12.6,0a21,21,0,0,1,12.6,0,35,35,0,0,0,3.38,4.93,14.61,14.61,0,0,1,1.39,1.56l1.33,1.62,1.11,1.24a21.37,21.37,0,0,1,2.36,2c1.5,1.44,3.64,5.11,6.21,7.13s5.58,6.63,8.79,9.9c3.22,2.39,6.65,7.65,10.08,10.26,3.43,5.68,6.86,7.7,10.07,10.71,3.22,2.19,6.22,7,8.79,9.45,2.57,2.68,4.72,3.71,6.22,5s2.35,1.06,2.35,4.18V948c0-3.43-.57-10-1.72-11.2-1.14-4.7-2.94-7.36-5.39-6.79-2.44-3.46-5.68-.71-9.71-3.31v-2c0,1.64,7.75.3,15.49,0,7.75,2.45,15.49.64,15.49,0v2c-4.63-.85-7.74,1.89-9.32,6.23-.79.63-1.38,3.9-1.78,5.94-.39-.46-.59,5.41-.59,9.13v67.41Zm-2.47-4.09v-10.2c0,.38-2.43-.94-6.33-6.77-1.95-2.31-4.26-3.06-6.82-5.56-2.56-1.86-5.36-7.42-8.29-10.57-2.92-1.89-6-5.07-9-9.67-3-4.45-6.1-8.53-9-9.6-2.92-5.25-5.73-8.39-8.28-9.66-2.56-2-4.88-3.65-6.83-6.47-3.89-4.17-6.33-9-6.33-6.77-2.77-2.83-5-4.06-6.69-8.9,0,2.32-3.31-.46-6.62,0-3.32,1.6-6.63-2.45-6.63,0,1.58-1.41,3.18,1.73,4.79,3.48s3.24,2.71,4.89,4.71c0-.27,2.85,2.45,7.4,7.9,2.28,2.39,5,7.13,8,8.48a16.27,16.27,0,0,0,4.68,5c1.62,4.15,3.29,2.43,5,5.34,2.56.41,5.21,2,7.87,7s5.34,4,8,10a22.15,22.15,0,0,0,7.74,8.66c2.51,4.34,4.91,5.31,7.15,7.23,2.24.67,4.32,3.09,6.19,6.61,1.86,3.3,3.5,1.62,4.86,5.19C372.13,1008.66,373.73,1008.88,373.73,1011.32ZM307.3,1010c-1.73.26-3-2.83-3.93-5-.89-2.42-1.72-1.84-2.5-5.23a36.87,36.87,0,0,0-2.66,5.49c-1-.53-2.34,3.51-4.16,4.71,0,1.26,3.31-2.08,6.62,0C304,1009,307.3,1012.42,307.3,1010Zm58.51-82.87a5.68,5.68,0,0,1,4.74,3.18c1.08,2.86,2.15,4.64,3.18,4.75.78-3.76,1.43-3.2,1.95-4.49.52-1.87,1.39-.76,2.6-3.44C378.28,926.87,365.81,927.9,365.81,927.15Z"/></g></g></svg>