<svg xmlns="http://www.w3.org/2000/svg" viewBox="0 0 600.71 129.17"><defs><style>.cls-1{fill:#fff;}.cls-2{fill:#bf9e39;}</style></defs><g id="Layer_2" data-name="Layer 2"><g id="Layer_1-2" data-name="Layer 1"><path class="cls-1" d="M45.84,32.26C45.84,15.48,61,6.41,79,6.41s33.2,9.07,33.2,25.85S97,58.33,79,58.33,45.84,49.18,45.84,32.26ZM66.07,54.87c-7.34-4.11-11.52-12-11.52-22.54s4-18.22,11.23-22.39l-.07-.08c-11.52,4-18,11.89-18,22.4C47.71,42.92,54.26,51,66,54.94ZM96.24,32.26C96.24,15.34,88.83,8.14,79,8.14s-17.21,7.2-17.21,24.12S69.24,56.6,79,56.6,96.24,49.18,96.24,32.26Zm9-.07c0-14.33-8-21.32-17.35-23.62l-.07.07C94.73,13,98.11,21.17,98.11,32.26c0,11.3-3.45,19.37-10.44,23.91v.07C99.63,53.28,105.24,45.8,105.24,32.19Z"/><path class="cls-1" d="M150.6,31.68V57.1h-1.87V32.19c0-7.56-4.39-11.81-11.45-11.81-6.7,0-12.53,4.17-12.53,11.59V57.1h-1.87V19.15h1.44l.21,7.28h.15c1.94-4.9,6.84-7.85,12.81-7.85C145.34,18.58,150.6,23.62,150.6,31.68Z"/><path class="cls-1" d="M187.39,55.81l3.82-.73c6.69-1.22,7.63-3.38,7.63-8.71V9.22h-4.32c-7.35,0-11.16,4.68-15.63,13.53l-2.3,4.61h-1.3V7.49H238V27.36h-1.3l-2.3-4.61c-4.47-8.85-8.28-13.53-15.63-13.53h-4.53V46.37c0,5.33.93,7.49,7.63,8.71l3.82.73V57.1H187.39ZM177,23.26c2.88-7.13,6.34-12,10.66-14.11V9.07a47.41,47.41,0,0,0-8.5,3c-1.15,4.82-1.58,7-2.3,11.23Zm26.14,32.11c3.81,0,4.17-4.39,4.17-8.21V9.22h-6.76V46.37c0,4.75-1,7.35-4.4,8.93v.07Zm33.27-32.11c-.72-4.18-1.16-6.41-2.31-11.23a47.41,47.41,0,0,0-8.5-3v.08c4.32,2.16,7.78,7,10.66,14.11Z"/><path class="cls-1" d="M249.81,25.92h.07c2.09-4.68,7.13-7.34,12.75-7.34,7.85,0,13,4.82,13,13.17V57.1h-1.87V32.26c0-7.63-4.25-11.88-11.31-11.88-6.62,0-12.67,3.89-12.67,11.3V57.1h-1.87V0h1.87Z"/><path class="cls-1" d="M319.22,38.67H288.4c.22,10.8,6.92,17.21,16.06,17.21a20.45,20.45,0,0,0,13.9-5.48v2.16a21.63,21.63,0,0,1-14,5.12c-10.3,0-17.86-7.42-17.86-19.52s8.28-19.58,17.28-19.58c8.21,0,15.48,6.33,15.48,18.72C319.29,37.88,319.22,38.45,319.22,38.67Zm-1.8-1.73c0-11.23-6.55-16.63-13.61-16.63-7.7,0-14.9,6.26-15.41,16.63Z"/><path class="cls-1" d="M341.25,55.81l3.1-.73c6.62-1.51,7.77-3.38,7.77-8.71V18.22c0-5.33-1.15-7.2-7.77-8.72l-3.1-.72V7.49h38.88c6.84,0,13.61.65,18.22,3.09,4.18,2.24,6.55,5.69,6.55,10.09,0,5.11-2.66,8.2-6.84,10.22-4.61,2.23-11.09,3.53-17.93,3.53h-1.22A20.2,20.2,0,0,0,390,37.8a20.52,20.52,0,0,0,5.47-.72L402,48.53c2.38,4.18,3.82,6,7.92,7l1.23.29V57.1H389.78l-13-22.68h-9.58V46.37c0,5.33,1.16,7.2,7.78,8.71l3.1.73V57.1H341.25Zm15.05-.44c3.81,0,4.18-4.39,4.18-8.21V17.43c0-3.82-.37-8.21-4.18-8.21h-7.85v.07c4.32,1.58,5.54,4.1,5.54,8.93V46.37c0,4.83-.79,7.28-5,8.93v.07Zm20.23-22.68c8.21,0,12.89-3.82,12.89-12S384.74,9.22,376.53,9.22h-9.29V32.69Zm21.82,22.68V55.3c-1.66-1.37-2.74-3.46-3.89-5.47l-5.83-10.37a19.57,19.57,0,0,1-8.21-2.3l-.07.07,10.44,18.14ZM393.74,30c2.59-1.66,4.39-4.54,4.39-9.15,0-4.17-1.29-6.91-3.38-8.71-2.3-2-5.62-2.81-10-3.1l-.07.08c4.61,2.23,6.62,6.12,6.62,11.52s-2.16,9.57-6.91,11.95l.07.07C388.56,32.19,391.44,31.54,393.74,30Z"/><path class="cls-1" d="M415.77,38.16c0-11.88,8.42-19.58,17.93-19.58s17.86,7.7,17.86,19.58-8.5,19.52-17.86,19.52S415.77,50,415.77,38.16Zm33.91,0c0-11.16-7.85-17.78-16-17.78S417.64,27,417.64,38.16s7.85,17.72,16.06,17.72S449.68,49.32,449.68,38.16Z"/><path class="cls-1" d="M478.12,55.88a17.9,17.9,0,0,0,10.23-3v2.09a19.5,19.5,0,0,1-10.23,2.74c-9.86,0-18.07-8-18.07-19.59,0-11.3,8.06-19.51,18-19.51a20.6,20.6,0,0,1,10.3,2.66v2.09A18.82,18.82,0,0,0,478,20.38c-8.57,0-16.06,7.13-16.06,17.71C461.92,49,469.48,55.88,478.12,55.88Z"/><path class="cls-1" d="M501,57.1h-1.88V0H501ZM503.54,37,524.63,57.1H522L501,37l20.16-17.86h2.59Z"/><path class="cls-1" d="M553.07,21.82v2.09a17.7,17.7,0,0,0-10.51-3.53c-5.91,0-10.15,3.17-10.15,7.77,0,4.83,4.24,6.49,10.51,8.65,6.55,2.16,12,4.32,12,10.58,0,6-5.11,10.3-12.45,10.3a20.9,20.9,0,0,1-12.75-4.54V50.91a19.7,19.7,0,0,0,12.75,5c6.26,0,10.58-3.53,10.58-8.43,0-5.11-4.46-7.05-10.94-9.14-6.12-2-11.53-4.11-11.53-10,0-5.62,5.12-9.72,12.1-9.72A18.24,18.24,0,0,1,553.07,21.82Z"/><path class="cls-2" d="M17.94,125.83a9,9,0,0,1-.42-3,16,16,0,0,1,.48-3.5c.3-1.23.64-2.41,1-3.56s.78-2.21,1.2-3.19.8-1.78,1.12-2.38a8.2,8.2,0,0,1,.6-1.36c.32-.62.66-1.34,1-2.14l2.41-4.89c.4-.76.76-1.45,1.08-2.08a13.31,13.31,0,0,1,.79-1.35,8.12,8.12,0,0,0-.36-3.62,3.25,3.25,0,0,0-1.57-1.81A3.91,3.91,0,0,0,23,92.7a8.73,8.73,0,0,0-2.75,1,15,15,0,0,0-2.68,2,10.45,10.45,0,0,0-2.14,2.69,8.47,8.47,0,0,0-1,1.14l-1.75,2.2c-.68.87-1.44,1.8-2.29,2.81s-1.7,2-2.56,3S6,109.33,5.22,110.16A14.29,14.29,0,0,1,3,112.05a3.93,3.93,0,0,1-1.77.73c-.51,0-.86-.26-1.06-.91q-.06,0-.09-.24a4.35,4.35,0,0,1,0-1,2.2,2.2,0,0,1,.09-.42c0-.33.17-1,.39-2.06s.47-2.27.76-3.67l.9-4.5c.32-1.58.61-3.08.88-4.49s.51-2.62.75-3.65.42-1.7.54-2a2.84,2.84,0,0,1,.6-1.14,5.78,5.78,0,0,1,1.21-1.21A2.14,2.14,0,0,1,7.51,87q.69,0,1.05,1.11a14.36,14.36,0,0,0-1.11,2.26c-.42,1-.84,2.2-1.24,3.5S5.41,96.56,5,98s-.75,2.85-1,4.19a28.39,28.39,0,0,0-.54,3.71,13.8,13.8,0,0,0,0,2.6q2.1-2.77,4.64-5.88t5.19-5.91a50.15,50.15,0,0,1,5.24-4.86,13.5,13.5,0,0,1,4.83-2.62,4.47,4.47,0,0,1,3.92.66c1.12.83,2,2.5,2.53,5l5.91-5.07h2.53c.32.93.32,1.55,0,1.87a3.35,3.35,0,0,1-1.35.76L35,93.06a3.17,3.17,0,0,0-1.75,1.26,5.8,5.8,0,0,0-.85,2.9,16.85,16.85,0,0,0,.82,5.43,31.11,31.11,0,0,1,.93,5,20.94,20.94,0,0,1-.09,5.13,26.87,26.87,0,0,1-.75,3,28.32,28.32,0,0,1-1.57,4A33.12,33.12,0,0,1,29.37,124a15.1,15.1,0,0,1-2.87,3.32,7.05,7.05,0,0,1-3.28,1.63A4.79,4.79,0,0,1,19.6,128,4,4,0,0,1,17.94,125.83Zm3.77.28a2.21,2.21,0,0,0,2.08-.09,8.13,8.13,0,0,0,2.47-2.12,21,21,0,0,0,2.42-3.61,25.2,25.2,0,0,0,1.87-4.65,24.56,24.56,0,0,0,.93-5.27,19.36,19.36,0,0,0-.39-5.37,13.57,13.57,0,0,0-2.2-5,9.61,9.61,0,0,0-2.23,2.51,27,27,0,0,0-2.15,3.92q-1,2.19-1.87,4.67T21.2,116a31.73,31.73,0,0,0-.79,4.41,12.36,12.36,0,0,0,0,3.37A3.23,3.23,0,0,0,21.71,126.11Z"/><path class="cls-2" d="M39.5,107.05a22.77,22.77,0,0,1,0-4.67,43.78,43.78,0,0,1,.78-4.95c.37-1.67.69-3.28,1-4.82a26.79,26.79,0,0,0,.45-4.35A7.43,7.43,0,0,0,41,84.8,1.09,1.09,0,0,0,40,84a9.72,9.72,0,0,0-1.45.18,6.17,6.17,0,0,1-1.47.12,1.74,1.74,0,0,1-1.33-.93,1.46,1.46,0,0,1,.36-.48,2.2,2.2,0,0,1,.42-.36,11.79,11.79,0,0,1,7.36.87,12.15,12.15,0,0,1,4.74,4.34A17.55,17.55,0,0,1,51,94.2a32.3,32.3,0,0,1,.45,7.18,26.77,26.77,0,0,1-1.12,6.6A13.09,13.09,0,0,1,48,112.69a3.66,3.66,0,0,1-3.22,1.48C43.54,114,42.29,113,41,111A8.1,8.1,0,0,1,39.5,107.05Zm4.34,2.65a5.4,5.4,0,0,1,.48.55,4,4,0,0,0,.49.51,2,2,0,0,0,.36.27,6.42,6.42,0,0,0,2.74-2.77,10.32,10.32,0,0,0,1-3.89,20.68,20.68,0,0,0-.21-4.53,33.54,33.54,0,0,0-1-4.58,23.78,23.78,0,0,0-1.6-4,31.73,31.73,0,0,0-1.72-3c0,.45-.11,1.1-.21,2s-.2,1.86-.3,3-.21,2.3-.33,3.53-.24,2.4-.36,3.52-.23,2.14-.33,3-.17,1.53-.21,1.93,0,.69.06,1.11a7.44,7.44,0,0,0,.21,1.21c.1.38.21.75.33,1.09s.22.61.3.81A1.71,1.71,0,0,0,43.84,109.7Z"/><path class="cls-2" d="M55.21,110.4c-.1-.35-.19-.7-.27-1.06s-.16-.7-.24-1a3.49,3.49,0,0,1-.12-.67V89a.71.71,0,0,1,.36-.64,1.78,1.78,0,0,1,.78-.24,6,6,0,0,1,.85,0,1.78,1.78,0,0,1,.54.09c0,.45-.06,1.1-.06,2s0,1.86,0,3,0,2.3,0,3.53,0,2.4,0,3.52v3c0,.88,0,1.53.06,1.93a8.51,8.51,0,0,0,.78,3.83,1.75,1.75,0,0,0,1.6,1,3.35,3.35,0,0,0,2-1,12.68,12.68,0,0,0,2-2.41,20.25,20.25,0,0,0,1.54-2.9,6.9,6.9,0,0,0,.63-2.68V88.17H69c0,.77-.11,1.75-.21,3s-.16,2.51-.18,3.92,0,2.83.06,4.28a28.89,28.89,0,0,0,.45,4.1,13.2,13.2,0,0,0,1,3.35,4.46,4.46,0,0,0,1.81,2,3.6,3.6,0,0,0,2.66.21,10.41,10.41,0,0,0,3.71-2.2,2.66,2.66,0,0,1-.37,2.44,7.54,7.54,0,0,1-2,2,9.32,9.32,0,0,1-2.74,1.3,5.05,5.05,0,0,1-2.5.18,2.26,2.26,0,0,1-.43-.39,6,6,0,0,1-.42-.52l-.66-1.29-1-2c-.36-.73-.69-1.41-1-2s-.53-1.11-.69-1.39c-.17.36-.48.91-.94,1.66a28.41,28.41,0,0,1-1.66,2.38,22.12,22.12,0,0,1-2,2.35,6.65,6.65,0,0,1-2.2,1.54,3.1,3.1,0,0,1-2.2.09,3.92,3.92,0,0,1-2-2.11A5.29,5.29,0,0,1,55.21,110.4Z"/><path class="cls-2" d="M78.4,114.74c-.37,0-.68-.34-.94-1.09a14.45,14.45,0,0,1-.6-3.13q-.21-2-.27-4.47c0-1.62,0-3.33,0-5.12s.07-3.51.15-5.16.19-3.16.33-4.55.28-2.48.42-3.29.29-1.24.45-1.32.32.38.49,1.38a33.52,33.52,0,0,1,3.37-2.26A25,25,0,0,1,85.51,84a15.15,15.15,0,0,1,3.92-.9,10,10,0,0,1,3.8.36,2.62,2.62,0,0,1,.06,1.48,1.32,1.32,0,0,1-.9,1,14.19,14.19,0,0,0-2-.12,21.43,21.43,0,0,0-2.69.18,17.61,17.61,0,0,0-2.86.61,9.52,9.52,0,0,0-2.56,1.14,6.75,6.75,0,0,0-1.84,1.72,4,4,0,0,0-.73,2.44v21.17C79.18,114.17,78.76,114.72,78.4,114.74Z"/><path class="cls-2" d="M125.83,102c-.15-3.13-.42-6.27-.82-9.4s-.86-6.32-1.38-9.53-1-6.62-1.45-10.19V70.38h1.75c.08.61.22,1.52.42,2.75s.45,2.62.75,4.19.61,3.22.91,4.94.59,3.37.87,4.92.53,2.94.76,4.19.39,2.15.51,2.71a2,2,0,0,0,.12.55q.12.36.24.75t.27.75c.1.24.17.43.21.55a9.83,9.83,0,0,1,.58-1.39c.3-.64.63-1.33,1-2.05s.71-1.4,1.06-2,.59-1.08.75-1.36a11.79,11.79,0,0,1,2-2.59,5.13,5.13,0,0,1,2.38-1.48,2.24,2.24,0,0,1,2.11.57c.63.57,1,1.73,1.12,3.5,0,.4.09,1,.15,1.93s.11,1.89.15,3,.1,2.3.18,3.53.15,2.4.21,3.52.11,2.12.15,3,.06,1.52.06,2a4.43,4.43,0,0,1,.82,1.57,3.28,3.28,0,0,1,0,1.81,2.17,2.17,0,0,1-1.69-.07,3.12,3.12,0,0,1-1.21-1.08,8,8,0,0,1-.81-1.6c-.22-.58-.41-1.07-.58-1.48.09-1.24.14-2.59.16-4s0-2.91,0-4.4-.13-3-.28-4.43a28,28,0,0,0-.69-4.13,1.28,1.28,0,0,0-1.6.36,7.76,7.76,0,0,0-1.41,2.38,31.79,31.79,0,0,0-1.27,3.74c-.4,1.43-.79,2.93-1.15,4.49s-.71,3.14-1,4.71-.66,3-1,4.28a28.29,28.29,0,0,1-.9,3.16,3.06,3.06,0,0,1-.94,1.54l-1.69-1.75A77.15,77.15,0,0,0,125.83,102Z"/><path class="cls-2" d="M146.84,107.05a22.77,22.77,0,0,1,0-4.67,41.69,41.69,0,0,1,.79-4.95c.36-1.67.68-3.28,1-4.82a26.79,26.79,0,0,0,.45-4.35,7.43,7.43,0,0,0-.69-3.46,1.08,1.08,0,0,0-1.06-.76,9.44,9.44,0,0,0-1.44.18,6.29,6.29,0,0,1-1.48.12,1.78,1.78,0,0,1-1.33-.93,1.46,1.46,0,0,1,.36-.48,2.49,2.49,0,0,1,.43-.36,11.77,11.77,0,0,1,7.35.87,12.15,12.15,0,0,1,4.74,4.34,17.55,17.55,0,0,1,2.41,6.42,32.3,32.3,0,0,1,.45,7.18,27.25,27.25,0,0,1-1.11,6.6,13.42,13.42,0,0,1-2.35,4.71,3.67,3.67,0,0,1-3.23,1.48c-1.21-.13-2.45-1.17-3.74-3.14A8.2,8.2,0,0,1,146.84,107.05Zm4.34,2.65a5.44,5.44,0,0,1,.49.55,4,4,0,0,0,.48.51,2,2,0,0,0,.36.27,6.44,6.44,0,0,0,2.75-2.77,10.31,10.31,0,0,0,1-3.89,20.68,20.68,0,0,0-.21-4.53,32.11,32.11,0,0,0-1-4.58,24.63,24.63,0,0,0-1.59-4c-.63-1.23-1.2-2.24-1.72-3,0,.45-.11,1.1-.21,2s-.21,1.86-.31,3-.21,2.3-.33,3.53-.24,2.4-.36,3.52-.23,2.14-.33,3-.17,1.53-.21,1.93,0,.69.06,1.11a7.44,7.44,0,0,0,.21,1.21c.1.38.21.75.33,1.09s.22.61.3.81A1.71,1.71,0,0,0,151.18,109.7Z"/><path class="cls-2" d="M176.06,108.68c0-1.45,0-2.91-.09-4.37s-.19-2.93-.33-4.38-.33-2.83-.58-4.16a19.32,19.32,0,0,0-1.77-5.43c-.71-1.24-1.44-1.92-2.2-2s-1.48.4-2.15,1.48a14.65,14.65,0,0,0-1.53,5.13,15.71,15.71,0,0,0-.25,1.69c-.08.76-.18,1.61-.3,2.56s-.24,1.94-.36,3-.24,2-.36,3-.2,1.79-.24,2.53-.08,1.3-.12,1.66a1.58,1.58,0,0,1-1.15.94,2.67,2.67,0,0,1-1.44-.09L161.5,84.8a1.5,1.5,0,0,1,.3-1.12,2.05,2.05,0,0,1,.78-.63,1,1,0,0,1,.85,0,1.21,1.21,0,0,1,.6.9l1.75,7.54a21.83,21.83,0,0,1,2.77-5.16A3.68,3.68,0,0,1,171,84.74a2.67,2.67,0,0,1,2.15,1.08A19,19,0,0,1,175,88.54a32.77,32.77,0,0,1,1.75,3.34,23.4,23.4,0,0,0,1.66,3.05Q180.5,88,183,85t4.91-2.51c1.59.37,3,1.88,4.19,4.56a35.29,35.29,0,0,1,2.41,11.31c.08.76.13,1.74.15,2.95s0,2.39,0,3.56,0,2.19,0,3.07a3.49,3.49,0,0,1-.15,1.39l-.9.85L192,108.5a37.61,37.61,0,0,0,.12-5.25q-.12-2.77-.51-5.58c-.26-1.87-.6-3.68-1-5.43s-.8-3.38-1.2-4.91c-.45-1.29-1-2-1.63-2.26a2.2,2.2,0,0,0-2,.3,6.25,6.25,0,0,0-1.84,2,12.47,12.47,0,0,0-1.27,2.53c-.2.48-.44,1.13-.72,1.93s-.55,1.62-.81,2.44-.5,1.55-.7,2.18-.32,1-.36,1c-.08.6-.21,1.62-.39,3.05s-.36,2.95-.54,4.58-.35,3.17-.49,4.61-.23,2.47-.27,3.08-.13.75-.39.81a1.5,1.5,0,0,1-.87-.09,4.57,4.57,0,0,1-1.27-.72C176,111.49,176,110.12,176.06,108.68Z"/><path class="cls-2" d="M203.56,109a19.13,19.13,0,0,1-1.78-4.64,7,7,0,0,1-.94.51,12,12,0,0,1-1.17.48,5.27,5.27,0,0,1-1.21.27,1.24,1.24,0,0,1-.84-.12.59.59,0,0,1-.15-.63,4.11,4.11,0,0,1,.87-1.42l.64-.63c.34-.34.71-.71,1.11-1.09l1.09-1,.6-.61a9.88,9.88,0,0,0,.6-2.74c.08-1,.13-2,.15-3s.08-2.09.18-3.13a9.77,9.77,0,0,1,.76-3,9.07,9.07,0,0,1,1.23-1.9A16.92,16.92,0,0,1,206.88,84c.82-.7,1.63-1.34,2.44-1.93a5.6,5.6,0,0,1,2.14-1,1.22,1.22,0,0,1,1.36.45,3.34,3.34,0,0,1-.06,2.44,19.4,19.4,0,0,1-1.63,4.16q-1.09,2.06-2.26,4c-.79,1.31-1.52,2.62-2.21,3.92a17.29,17.29,0,0,0-1.5,4,12.24,12.24,0,0,0-.24,2.6,12.9,12.9,0,0,0,.36,3,10,10,0,0,0,1.11,2.78,4,4,0,0,0,2.14,1.75,5.51,5.51,0,0,0,3.11.3,10.13,10.13,0,0,0,3.07-1.15,15.75,15.75,0,0,0,2.84-2.08c.9-.82,1.76-1.68,2.56-2.56a29.64,29.64,0,0,0,2.11-2.57c.61-.82,1.11-1.51,1.51-2.08l.91.85c.2.16.05.7-.46,1.63a19.67,19.67,0,0,1-2.2,3.13,33.75,33.75,0,0,1-3.41,3.53,25.53,25.53,0,0,1-4,3,11,11,0,0,1-4.1,1.53,4.66,4.66,0,0,1-3.67-1A12.27,12.27,0,0,1,203.56,109Zm1.54-16.59v2.54a4,4,0,0,0,.06.84A64,64,0,0,0,208.08,90,36.5,36.5,0,0,0,210.22,84a5.63,5.63,0,0,0-2.05,1.18A7.61,7.61,0,0,0,206.66,87a12.4,12.4,0,0,0-1,2.23,11,11,0,0,0-.51,2.26A5,5,0,0,0,205.1,92.39Z"/><path class="cls-2" d="M263.14,108.68c0-1.45,0-2.91-.09-4.37s-.19-2.93-.33-4.38-.33-2.83-.57-4.16a19.61,19.61,0,0,0-1.78-5.43c-.71-1.24-1.44-1.92-2.21-2s-1.47.4-2.14,1.48a14.65,14.65,0,0,0-1.53,5.13,15.71,15.71,0,0,0-.25,1.69c-.08.76-.18,1.61-.3,2.56s-.24,1.94-.36,3-.24,2-.36,3-.2,1.79-.24,2.53-.08,1.3-.12,1.66a1.58,1.58,0,0,1-1.15.94,2.71,2.71,0,0,1-1.45-.09L248.58,84.8a1.5,1.5,0,0,1,.3-1.12,2.05,2.05,0,0,1,.78-.63,1,1,0,0,1,.85,0,1.21,1.21,0,0,1,.6.9l1.75,7.54a21.83,21.83,0,0,1,2.77-5.16A3.68,3.68,0,0,1,258,84.74a2.64,2.64,0,0,1,2.14,1.08,18.28,18.28,0,0,1,1.93,2.72,32.77,32.77,0,0,1,1.75,3.34,23.4,23.4,0,0,0,1.66,3.05Q267.58,88,270.11,85T275,82.5c1.59.37,3,1.88,4.19,4.56a35.29,35.29,0,0,1,2.41,11.31c.08.76.13,1.74.15,2.95s0,2.39,0,3.56,0,2.19,0,3.07a3.49,3.49,0,0,1-.15,1.39l-.9.85-1.63-1.69a37.61,37.61,0,0,0,.12-5.25q-.12-2.77-.51-5.58c-.26-1.87-.6-3.68-1-5.43s-.8-3.38-1.2-4.91c-.45-1.29-1-2-1.63-2.26a2.2,2.2,0,0,0-2,.3,6.25,6.25,0,0,0-1.84,2,12.47,12.47,0,0,0-1.27,2.53c-.2.48-.44,1.13-.72,1.93s-.55,1.62-.81,2.44-.5,1.55-.7,2.18-.32,1-.36,1c-.08.6-.21,1.62-.39,3.05s-.36,2.95-.54,4.58-.35,3.17-.49,4.61-.23,2.47-.27,3.08-.13.75-.39.81a1.5,1.5,0,0,1-.87-.09,4.57,4.57,0,0,1-1.27-.72C263.07,111.49,263.12,110.12,263.14,108.68Z"/><path class="cls-2" d="M284.85,72.77a3.12,3.12,0,0,1,2.32.09v2.59a2.48,2.48,0,0,1-.54.09c-.24,0-.5,0-.79,0s-.54,0-.78,0a1.54,1.54,0,0,1-.48-.09,1.61,1.61,0,0,1-.51-.39c-.23-.22-.34-.4-.34-.52A1.66,1.66,0,0,1,284.85,72.77Zm.36,37.57c-.1-.39-.2-.81-.3-1.27s-.18-.91-.24-1.33a7.31,7.31,0,0,1-.09-.93V83.11a.79.79,0,0,1,.42-.73,2,2,0,0,1,1-.24c.39,0,.73,0,1,0l.51,0v26.3a1.84,1.84,0,0,0,.55,1.38,3.74,3.74,0,0,0,1.26.85,5.6,5.6,0,0,0,1.51.39,3.14,3.14,0,0,0,1.33-.09c.44.68.43,1.24,0,1.66a3.11,3.11,0,0,1-2,.69,6.56,6.56,0,0,1-2.69-.48,3.76,3.76,0,0,1-2.05-1.87A5.22,5.22,0,0,1,285.21,110.34Z"/><path class="cls-2" d="M294.83,109.16a14.76,14.76,0,0,1,.78-3.44,22.9,22.9,0,0,1,1.54-3.37c.62-1.13,1.19-2.24,1.69-3.32a21,21,0,0,0,1.2-3.29,8.82,8.82,0,0,0,.28-3.35c0-.24-.12-.68-.21-1.32s-.22-1.4-.34-2.26-.24-1.79-.36-2.78-.24-1.91-.36-2.77-.22-1.63-.3-2.29-.12-1.1-.12-1.3a7.23,7.23,0,0,1,.27-3.35,5.69,5.69,0,0,1,1.21-2.11,1.67,1.67,0,0,1,1.29-.63q.6.06.6,1c0,.45-.06,1.19-.06,2.24v6.69c0,1,0,1.77.06,2.17a4.3,4.3,0,0,0,.09.72c.07.33.15.67.25,1l.27,1a1.42,1.42,0,0,0,.24.58A26.1,26.1,0,0,1,308.7,82a14.06,14.06,0,0,1,5.61-2.89,6.66,6.66,0,0,1,4.55.48,5.35,5.35,0,0,1,2.68,3.23,9.94,9.94,0,0,1,0,5.33,18,18,0,0,1-3.4,6.76,11.66,11.66,0,0,1-3.65,3.31,9.43,9.43,0,0,1-3.65,1.12,12.19,12.19,0,0,1-3.44-.18c-1.08-.22-2.06-.43-2.92-.63a9.25,9.25,0,0,0-2.17-.28,1.23,1.23,0,0,0-1.18.94c-.16.44-.38,1.1-.66,2s-.56,1.75-.82,2.65-.5,1.73-.72,2.48a7.56,7.56,0,0,0-.33,1.35,4.24,4.24,0,0,0-.09,1.6,7.24,7.24,0,0,1-.09,2,4.25,4.25,0,0,1-.7,1.66,2,2,0,0,1-1.72.72s-.17-.11-.39-.33a3.84,3.84,0,0,1-.45-.51A9.47,9.47,0,0,1,294.83,109.16ZM310,97.61a7.39,7.39,0,0,0,3-.93,13.34,13.34,0,0,0,3.74-3.29,12,12,0,0,0,2-3.86,11.32,11.32,0,0,0,.48-3.74,6.56,6.56,0,0,0-.81-3,3.67,3.67,0,0,0-2.08-1.69,4.42,4.42,0,0,0-3.14.3,13.73,13.73,0,0,0-4,3,33.46,33.46,0,0,0-4.7,6.34,5.06,5.06,0,0,0-.39,2,3,3,0,0,0,.45,1.5,5.37,5.37,0,0,0,1.11,1.3l1.42,1.21A4.07,4.07,0,0,0,310,97.61Z"/><path class="cls-2" d="M325.77,107.05a21.44,21.44,0,0,1,0-4.67,43.78,43.78,0,0,1,.78-4.95c.36-1.67.68-3.28,1-4.82a26.86,26.86,0,0,0,.46-4.35,7.31,7.31,0,0,0-.7-3.46,1.08,1.08,0,0,0-1-.76,9.56,9.56,0,0,0-1.45.18,6.25,6.25,0,0,1-1.48.12,1.75,1.75,0,0,1-1.32-.93,1.46,1.46,0,0,1,.36-.48,2.2,2.2,0,0,1,.42-.36,11.8,11.8,0,0,1,7.36.87,12.12,12.12,0,0,1,4.73,4.34,17.37,17.37,0,0,1,2.41,6.42,31.72,31.72,0,0,1,.46,7.18,27.25,27.25,0,0,1-1.12,6.6,13.26,13.26,0,0,1-2.35,4.71,3.67,3.67,0,0,1-3.23,1.48c-1.2-.13-2.45-1.17-3.74-3.14A8.19,8.19,0,0,1,325.77,107.05Zm4.34,2.65a5.4,5.4,0,0,1,.48.55,4,4,0,0,0,.48.51,2,2,0,0,0,.36.27,6.44,6.44,0,0,0,2.75-2.77,10.31,10.31,0,0,0,1-3.89,20.68,20.68,0,0,0-.21-4.53,33.53,33.53,0,0,0-1-4.58,25.57,25.57,0,0,0-1.6-4,34,34,0,0,0-1.72-3c0,.45-.11,1.1-.21,2s-.2,1.86-.3,3-.21,2.3-.33,3.53-.25,2.4-.37,3.52-.23,2.14-.33,3-.17,1.53-.21,1.93,0,.69.06,1.11a7.44,7.44,0,0,0,.21,1.21c.1.38.21.75.33,1.09s.23.61.31.81A1.71,1.71,0,0,0,330.11,109.7Z"/><path class="cls-2" d="M341.35,110.64a14.49,14.49,0,0,1-.72-3,22.91,22.91,0,0,1-.21-3v-2c0-.37,0-1.1.06-2.2s.09-2.39.15-3.83.12-3,.18-4.65.12-3.19.18-4.64.12-2.7.18-3.77.09-1.78.09-2.14c0-.52,0-1.38,0-2.56s0-2.47,0-3.83,0-2.65,0-3.83,0-2,0-2.57a3.6,3.6,0,0,1,1.27-.66,1.16,1.16,0,0,1,.87-.12c.27.08.4.34.4.78V108.5a1.93,1.93,0,0,0,.24.84,3,3,0,0,0,.54.78,1.39,1.39,0,0,0,.78.4,1.13,1.13,0,0,0,1-.33l5.91-5.07a5.63,5.63,0,0,1,0,2.38,7.22,7.22,0,0,1-.94,2.32,8.11,8.11,0,0,1-1.62,1.93,7.63,7.63,0,0,1-2.12,1.33,5.55,5.55,0,0,1-2.32.45,4.26,4.26,0,0,1-2.26-.75A4.21,4.21,0,0,1,341.35,110.64Z"/><path class="cls-2" d="M354.77,107.05a22.77,22.77,0,0,1,0-4.67,41.69,41.69,0,0,1,.79-4.95c.36-1.67.68-3.28,1-4.82a26.79,26.79,0,0,0,.45-4.35,7.43,7.43,0,0,0-.69-3.46,1.08,1.08,0,0,0-1.06-.76,9.44,9.44,0,0,0-1.44.18,6.29,6.29,0,0,1-1.48.12,1.76,1.76,0,0,1-1.33-.93,1.46,1.46,0,0,1,.36-.48,2.49,2.49,0,0,1,.43-.36,11.77,11.77,0,0,1,7.35.87,12.15,12.15,0,0,1,4.74,4.34,17.55,17.55,0,0,1,2.41,6.42,32.3,32.3,0,0,1,.45,7.18,27.25,27.25,0,0,1-1.11,6.6,13.26,13.26,0,0,1-2.36,4.71,3.66,3.66,0,0,1-3.22,1.48c-1.21-.13-2.45-1.17-3.74-3.14A8.2,8.2,0,0,1,354.77,107.05Zm4.34,2.65a5.44,5.44,0,0,1,.49.55,4,4,0,0,0,.48.51,2,2,0,0,0,.36.27,6.37,6.37,0,0,0,2.74-2.77,10.14,10.14,0,0,0,1-3.89,20.68,20.68,0,0,0-.21-4.53,32.11,32.11,0,0,0-1-4.58,24.63,24.63,0,0,0-1.59-4c-.63-1.23-1.2-2.24-1.72-3,0,.45-.11,1.1-.21,2s-.21,1.86-.31,3-.21,2.3-.33,3.53-.24,2.4-.36,3.52-.23,2.14-.33,3-.17,1.53-.21,1.93,0,.69.06,1.11a7.44,7.44,0,0,0,.21,1.21c.1.38.21.75.33,1.09s.22.61.3.81A1.71,1.71,0,0,0,359.11,109.7Z"/><path class="cls-2" d="M375.85,124.3a13.67,13.67,0,0,1,.75-4.8,31.78,31.78,0,0,1,2.32-5.27c1-1.81,2-3.55,3.05-5.22l2.89-4.64c.89-1.43,1.55-2.59,2-3.47a4.92,4.92,0,0,0,.15-2.2,20.22,20.22,0,0,0-.54-2.93c-.26-1-.52-1.91-.78-2.71a11.54,11.54,0,0,0-.58-1.57l-.84.9L375,108.5q-.12.12-.42.36a5.61,5.61,0,0,1-.72.48l-.82.48-.63.37c-1.05.44-1.81.4-2.29-.13a3.76,3.76,0,0,1-.76-2.53,18.89,18.89,0,0,1,.52-4.22,35.25,35.25,0,0,1,1.6-5.22,55.29,55.29,0,0,1,2.47-5.51,42,42,0,0,1,3.1-5.16,26.44,26.44,0,0,1,3.53-4.1,9.36,9.36,0,0,1,3.65-2.26c.64.2,1,.45,1,.75a1.53,1.53,0,0,1-.49,1,9.32,9.32,0,0,1-1.35,1.2c-.57.42-1.16.85-1.78,1.27s-1.19.81-1.69,1.17a4.24,4.24,0,0,0-1,.91c-.8,1.69-1.62,3.31-2.44,4.85s-1.57,3.09-2.23,4.62a26.36,26.36,0,0,0-1.54,4.7,17.3,17.3,0,0,0-.3,5.25l.9-.85a30.33,30.33,0,0,0,3.23-4.94q1.49-2.77,2.68-5.61c.81-1.89,1.56-3.68,2.27-5.37s1.33-3.1,1.9-4.25A6.23,6.23,0,0,1,385,83.47c.57-.4,1.11-.21,1.63.57a17.2,17.2,0,0,1,1.69,4.41,89.88,89.88,0,0,1,1.87,9l.94-.69c.46-.34,1-.7,1.5-1.06s1.07-.69,1.57-1,.84-.52,1-.64a5,5,0,0,1,.9-.06,4,4,0,0,1,.84.06,6.07,6.07,0,0,1-1.11,2,18.84,18.84,0,0,1-1.93,2.17c-.7.69-1.35,1.28-1.93,1.78l-.94.82c0,.32,0,.8,0,1.45s-.07,1.39-.13,2.26-.11,1.75-.15,2.65-.1,1.78-.18,2.62-.16,1.59-.24,2.23l-.12,1.51a11.48,11.48,0,0,1-.69,2.29c-.42,1.13-1,2.4-1.57,3.8a45.24,45.24,0,0,1-2.14,4.22,17.33,17.33,0,0,1-2.56,3.5,5.55,5.55,0,0,1-2.87,1.69,3.22,3.22,0,0,1-2.95-1.14A5.2,5.2,0,0,1,375.85,124.3Zm4.1-3.41c0,.62,0,1.3,0,2s0,1.42,0,2.08a10.37,10.37,0,0,0,.09,1.3,9.81,9.81,0,0,0,4.25-3.59,19.2,19.2,0,0,0,2.62-5.64A27.11,27.11,0,0,0,388,110.7a23.58,23.58,0,0,0-.33-5.64,18.54,18.54,0,0,0-2.69,3,30,30,0,0,0-2.32,3.71,27.32,27.32,0,0,0-1.69,4,22.37,22.37,0,0,0-.9,3.86A11.68,11.68,0,0,0,380,120.89Z"/><path class="cls-2" d="M413.66,125.83a9,9,0,0,1-.42-3,16,16,0,0,1,.48-3.5c.3-1.23.64-2.41,1-3.56s.78-2.21,1.2-3.19.79-1.78,1.12-2.38a8.2,8.2,0,0,1,.6-1.36c.32-.62.66-1.34,1-2.14l2.42-4.89c.4-.76.76-1.45,1.08-2.08a11.64,11.64,0,0,1,.79-1.35,8.12,8.12,0,0,0-.36-3.62,3.25,3.25,0,0,0-1.57-1.81,3.93,3.93,0,0,0-2.39-.24,8.67,8.67,0,0,0-2.74,1,15,15,0,0,0-2.68,2,10.45,10.45,0,0,0-2.14,2.69,7.82,7.82,0,0,0-1,1.14l-1.75,2.2c-.68.87-1.45,1.8-2.29,2.81s-1.7,2-2.56,3-1.71,1.86-2.53,2.69a14.29,14.29,0,0,1-2.27,1.89,3.92,3.92,0,0,1-1.78.73c-.5,0-.85-.26-1.05-.91q-.06,0-.09-.24a4.35,4.35,0,0,1,0-1,2.2,2.2,0,0,1,.09-.42c0-.33.17-1,.39-2.06s.47-2.27.75-3.67.59-2.91.91-4.5.61-3.08.87-4.49.52-2.62.76-3.65.42-1.7.54-2a2.84,2.84,0,0,1,.6-1.14,5.78,5.78,0,0,1,1.21-1.21,2.12,2.12,0,0,1,1.36-.45q.69,0,1,1.11a14.36,14.36,0,0,0-1.11,2.26c-.43,1-.84,2.2-1.24,3.5s-.81,2.69-1.21,4.13-.74,2.85-1,4.19a28.39,28.39,0,0,0-.54,3.71,12.27,12.27,0,0,0,0,2.6q2.1-2.77,4.64-5.88T409,96.71a49.17,49.17,0,0,1,5.24-4.86,13.5,13.5,0,0,1,4.83-2.62,4.47,4.47,0,0,1,3.92.66c1.12.83,2,2.5,2.53,5l5.91-5.07H434c.32.93.32,1.55,0,1.87a3.35,3.35,0,0,1-1.35.76l-1.93.57a3.17,3.17,0,0,0-1.75,1.26,5.7,5.7,0,0,0-.85,2.9,16.85,16.85,0,0,0,.82,5.43,31.11,31.11,0,0,1,.93,5,20.94,20.94,0,0,1-.09,5.13,26.87,26.87,0,0,1-.75,3,29.57,29.57,0,0,1-1.57,4,33.12,33.12,0,0,1-2.32,4.13,15.1,15.1,0,0,1-2.87,3.32,7.05,7.05,0,0,1-3.28,1.63,4.78,4.78,0,0,1-3.62-.93A4,4,0,0,1,413.66,125.83Zm3.77.28a2.21,2.21,0,0,0,2.08-.09A8.13,8.13,0,0,0,422,123.9a20.42,20.42,0,0,0,2.41-3.61,25.22,25.22,0,0,0,2.81-9.92,19.36,19.36,0,0,0-.39-5.37,13.43,13.43,0,0,0-2.21-5,10,10,0,0,0-2.23,2.51,28,28,0,0,0-2.14,3.92q-1,2.19-1.87,4.67T416.92,116a31.73,31.73,0,0,0-.79,4.41,12.36,12.36,0,0,0,0,3.37A3.23,3.23,0,0,0,417.43,126.11Z"/><path class="cls-2" d="M472.64,108.68c0-1.45,0-2.91-.09-4.37s-.19-2.93-.33-4.38-.34-2.83-.58-4.16a19,19,0,0,0-1.78-5.43c-.7-1.24-1.43-1.92-2.2-2s-1.48.4-2.14,1.48A14.84,14.84,0,0,0,464,94.93a16.32,16.32,0,0,0-.24,1.69c-.08.76-.18,1.61-.3,2.56s-.24,1.94-.36,3-.24,2-.36,3-.2,1.79-.24,2.53-.09,1.3-.12,1.66a1.6,1.6,0,0,1-1.15.94,2.71,2.71,0,0,1-1.45-.09L458.07,84.8a1.5,1.5,0,0,1,.3-1.12,2.16,2.16,0,0,1,.79-.63,1,1,0,0,1,.84,0,1.22,1.22,0,0,1,.61.9l1.75,7.54a21.47,21.47,0,0,1,2.77-5.16,3.65,3.65,0,0,1,2.41-1.59,2.65,2.65,0,0,1,2.14,1.08,18.28,18.28,0,0,1,1.93,2.72,32.77,32.77,0,0,1,1.75,3.34A22.26,22.26,0,0,0,475,94.93Q477.08,88,479.6,85t4.92-2.51c1.59.37,3,1.88,4.19,4.56a35.29,35.29,0,0,1,2.41,11.31c.08.76.13,1.74.15,2.95s0,2.39,0,3.56,0,2.19,0,3.07a3.49,3.49,0,0,1-.15,1.39l-.9.85-1.63-1.69a37.61,37.61,0,0,0,.12-5.25q-.12-2.77-.51-5.58t-1-5.43q-.6-2.61-1.2-4.91c-.45-1.29-1-2-1.63-2.26a2.19,2.19,0,0,0-2,.3,6.14,6.14,0,0,0-1.84,2,12,12,0,0,0-1.27,2.53c-.2.48-.44,1.13-.72,1.93s-.56,1.62-.82,2.44l-.69,2.18q-.3.93-.36,1c-.08.6-.21,1.62-.39,3.05s-.37,2.95-.55,4.58-.34,3.17-.48,4.61-.23,2.47-.27,3.08-.13.75-.39.81a1.54,1.54,0,0,1-.88-.09,4.68,4.68,0,0,1-1.26-.72C472.57,111.49,472.62,110.12,472.64,108.68Z"/><path class="cls-2" d="M500.14,109a19.13,19.13,0,0,1-1.78-4.64,7.69,7.69,0,0,1-.94.51,12,12,0,0,1-1.17.48,5.39,5.39,0,0,1-1.21.27,1.24,1.24,0,0,1-.84-.12.59.59,0,0,1-.15-.63,4.11,4.11,0,0,1,.87-1.42l.63-.63,1.12-1.09,1.08-1,.61-.61a9.88,9.88,0,0,0,.6-2.74c.08-1,.13-2,.15-3s.08-2.09.18-3.13a9.49,9.49,0,0,1,.76-3,9.07,9.07,0,0,1,1.23-1.9A17.47,17.47,0,0,1,503.45,84c.83-.7,1.64-1.34,2.45-1.93a5.6,5.6,0,0,1,2.14-1,1.2,1.2,0,0,1,1.35.45,3.34,3.34,0,0,1-.06,2.44,18.41,18.41,0,0,1-1.63,4.16q-1.08,2.06-2.26,4T503.24,96a17.79,17.79,0,0,0-1.51,4,12.24,12.24,0,0,0-.24,2.6,12.9,12.9,0,0,0,.36,3,10.32,10.32,0,0,0,1.12,2.78,4,4,0,0,0,2.14,1.75,5.51,5.51,0,0,0,3.11.3,10.13,10.13,0,0,0,3.07-1.15,16.11,16.11,0,0,0,2.84-2.08c.9-.82,1.76-1.68,2.56-2.56a31.61,31.61,0,0,0,2.11-2.57c.6-.82,1.11-1.51,1.51-2.08l.9.85c.2.16,0,.7-.45,1.63a20.35,20.35,0,0,1-2.2,3.13,33.75,33.75,0,0,1-3.41,3.53,25.53,25.53,0,0,1-4,3,11.08,11.08,0,0,1-4.1,1.53,4.68,4.68,0,0,1-3.68-1A12.37,12.37,0,0,1,500.14,109Zm1.53-16.59v2.54a4,4,0,0,0,.06.84A64,64,0,0,0,504.66,90,37.43,37.43,0,0,0,506.8,84a5.55,5.55,0,0,0-2.05,1.18A7.39,7.39,0,0,0,503.24,87a12.4,12.4,0,0,0-1,2.23,11.09,11.09,0,0,0-.52,2.26A5,5,0,0,0,501.67,92.39Z"/><path class="cls-2" d="M522.36,110.55v-6.64c0-1,0-1.78-.06-2.23q-.06-.24-.18-1.2c-.08-.65-.18-1.42-.3-2.33s-.25-1.84-.37-2.8-.25-1.88-.39-2.74-.25-1.63-.33-2.3-.14-1.11-.18-1.35a10.6,10.6,0,0,1,0-1.39,3.54,3.54,0,0,1,.27-1.27,1.38,1.38,0,0,1,.75-.75,2.47,2.47,0,0,1,1.54.09c0,.68.11,1.49.21,2.41s.21,1.89.33,2.9.29,2,.49,3a23.87,23.87,0,0,0,.72,2.75,30.52,30.52,0,0,1,1.24-3.26,16.94,16.94,0,0,1,1.41-2.53,22.83,22.83,0,0,1,1.75-2.23,18.65,18.65,0,0,1,2.35-2.18c1.13-1,2.08-1.35,2.84-1.17a3,3,0,0,1,1.9,1.69,15.42,15.42,0,0,1,1.27,3.62c.34,1.46.63,3,.87,4.67s.5,3.26.78,4.82a26.1,26.1,0,0,0,1.06,4.1,5.59,5.59,0,0,0,1.6,2.54,2.1,2.1,0,0,0,2.41.06,2.76,2.76,0,0,1,.12,1.93,1.22,1.22,0,0,1-1.09.66,3.66,3.66,0,0,1-1.77-.39,9.17,9.17,0,0,1-2-1.24,8.26,8.26,0,0,1-1.78-1.93,8,8,0,0,1-1.15-2.41c-.08-.56-.18-1.52-.3-2.86s-.27-2.79-.45-4.32a29.42,29.42,0,0,0-.91-4.52,9.69,9.69,0,0,0-1.72-3.56l-3.43,3.32c-.08.16-.32.75-.7,1.78s-.79,2.22-1.23,3.59S527,99.6,526.58,101a33.23,33.23,0,0,0-.91,3.35,12.84,12.84,0,0,0-.27,1.59c-.1.79-.2,1.64-.3,2.57s-.17,1.78-.21,2.59-.06,1.37-.06,1.69a1.34,1.34,0,0,1-2.53,0C522.34,112.34,522.36,111.59,522.36,110.55Z"/><path class="cls-2" d="M555.89,101.23a29.82,29.82,0,0,1-.85-4.67,42.71,42.71,0,0,1-.21-4.77c0-1.57.07-3,.15-4.28a2.66,2.66,0,0,0-1.56.12c-.57.2-1.18.45-1.84.75s-1.34.64-2,1a9.52,9.52,0,0,1-1.93.78,3.55,3.55,0,0,1-1.63.09,1.67,1.67,0,0,1-1.15-1,1,1,0,0,1,.09-1.27,3.56,3.56,0,0,1,1.51-.75,15.67,15.67,0,0,1,2.32-.42c.89-.1,1.72-.21,2.5-.34a8.83,8.83,0,0,0,2-.51c.55-.22.84-.53.88-.93l1.69-18.58a.92.92,0,0,1,.48-.72,1.73,1.73,0,0,1,.87-.24,1.76,1.76,0,0,1,.85.21.78.78,0,0,1,.39.75v16a2.06,2.06,0,0,0,1.3,0L561,82a7.84,7.84,0,0,1,1.27-.36,3.23,3.23,0,0,1,1.24,0,.78.78,0,0,1-.06,1,2.89,2.89,0,0,1-.79.66l-.84.54c-.4.24-.83.5-1.27.79s-.87.53-1.3.75-.69.37-.81.45c0,.44-.07,1.23-.09,2.35s0,2.33,0,3.59,0,2.46,0,3.59,0,1.93.09,2.41a14.37,14.37,0,0,0,.81,4.19,7.44,7.44,0,0,0,1.9,3A4.13,4.13,0,0,0,564,106a6.88,6.88,0,0,0,3.8-1.56,2.62,2.62,0,0,1-.06,2,3.21,3.21,0,0,1-1.27,1.41,5.05,5.05,0,0,1-2.08.67,6.87,6.87,0,0,1-2.47-.15,7.89,7.89,0,0,1-2.41-1.06,6.21,6.21,0,0,1-2-2A16.89,16.89,0,0,1,555.89,101.23Z"/><path class="cls-2" d="M568.79,107.05a22.77,22.77,0,0,1,0-4.67,41.69,41.69,0,0,1,.79-4.95c.36-1.67.68-3.28,1-4.82a26.79,26.79,0,0,0,.45-4.35,7.43,7.43,0,0,0-.69-3.46,1.08,1.08,0,0,0-1-.76,9.41,9.41,0,0,0-1.45.18,6.29,6.29,0,0,1-1.48.12,1.76,1.76,0,0,1-1.33-.93,1.38,1.38,0,0,1,.37-.48,2.2,2.2,0,0,1,.42-.36,11.77,11.77,0,0,1,7.35.87,12.15,12.15,0,0,1,4.74,4.34,17.55,17.55,0,0,1,2.41,6.42,32.3,32.3,0,0,1,.45,7.18,27.25,27.25,0,0,1-1.11,6.6,13.42,13.42,0,0,1-2.35,4.71,3.67,3.67,0,0,1-3.23,1.48c-1.21-.13-2.45-1.17-3.74-3.14A8.2,8.2,0,0,1,568.79,107.05Zm4.34,2.65a5.44,5.44,0,0,1,.49.55,4,4,0,0,0,.48.51,2,2,0,0,0,.36.27,6.44,6.44,0,0,0,2.75-2.77,10.31,10.31,0,0,0,1-3.89,20.68,20.68,0,0,0-.21-4.53,32.11,32.11,0,0,0-1-4.58,24.63,24.63,0,0,0-1.59-4c-.63-1.23-1.2-2.24-1.72-3,0,.45-.11,1.1-.21,2s-.21,1.86-.31,3-.21,2.3-.33,3.53-.24,2.4-.36,3.52-.23,2.14-.33,3-.17,1.53-.21,1.93,0,.69.06,1.11a7.44,7.44,0,0,0,.21,1.21c.1.38.21.75.33,1.09s.22.61.3.81A1.71,1.71,0,0,0,573.13,109.7Z"/><path class="cls-2" d="M585.74,114.74c-.36,0-.68-.34-.94-1.09a14.45,14.45,0,0,1-.6-3.13q-.21-2-.27-4.47c0-1.62,0-3.33,0-5.12s.07-3.51.15-5.16.19-3.16.33-4.55.28-2.48.42-3.29.29-1.24.46-1.32.32.38.48,1.38a33.52,33.52,0,0,1,3.37-2.26A25,25,0,0,1,592.85,84a15.15,15.15,0,0,1,3.92-.9,10,10,0,0,1,3.8.36,2.62,2.62,0,0,1,.06,1.48,1.32,1.32,0,0,1-.9,1,14.09,14.09,0,0,0-2.05-.12A21.43,21.43,0,0,0,595,86a17.84,17.84,0,0,0-2.86.61,9.66,9.66,0,0,0-2.56,1.14,6.75,6.75,0,0,0-1.84,1.72,4.06,4.06,0,0,0-.73,2.44v21.17C586.52,114.17,586.1,114.72,585.74,114.74Z"/></g></g></svg>