<svg xmlns="http://www.w3.org/2000/svg" viewBox="0 0 755.79 1206.31"><g id="Layer_2" data-name="Layer 2"><g id="Layer_1-2" data-name="Layer 1"><path d="M755.79,736.51c-2.1,19.79-2.14,40.07-6.71,59.27-10.35,43.49-20.36,87.37-35.34,129.36-14.87,41.7-34,82.17-54.4,121.53-16.72,32.25-38.21,62-57.37,93-7.43,12-15.65,22.83-11.77,39.7,3.45,15-6.84,22.92-27,23.48-30,.83-60,.21-90,.62-64.3.88-128.59,2.55-192.88,2.84-30,.13-60.05-1.76-90-3.57-22.58-1.36-28.45-12.3-19.45-32.59,1.29-2.9.26-8.33-1.78-11-56.94-73.68-96.59-156.87-130.94-242.52C-12.25,790.9-16,665.62,46.8,541.81c34.91-68.78,76.38-132.52,129.39-189,27.77-29.59,52.62-62.06,77.34-94.34,16.51-21.56,21-47.61,27.07-74.17,12.47-54.54-1.07-107.83.42-161.59C281.44,7.41,288.49,0,301.92,0,355.55.07,409.19.65,462.8,2.21c16.37.47,16,15.83,15.58,26.65-1.48,38-5,75.91-6.72,113.9-.51,11.27,2,22.72,3.69,34,.94,6.32,3.8,12.38,4.48,18.7,3.62,34,19.67,61.86,41.8,86.91,38.15,43.19,77.31,85.54,114,130,32.84,39.83,59.91,83.73,77.08,132.92,4,11.42,6,23.54,8.84,35.3l-11.18-16.81c-3.67,12.67,9.21,57.69,18.48,64.6l-7.58-48.23c2.09,2.9,5.44,5.55,6.06,8.73,8.67,44.73,16.93,89.55,25.42,134.32.45,2.4,2,4.59,3.09,6.88ZM260.2,1037.23l15.59.86c6.2,3.44,12.39,6.89,18.65,10.38l-8.66,1.07-2,4.3,25.79,17,4.14-5.59L293.84,1048l2-11c11.15,8.12,20.3,20.84,41.42,15.42-13.88-7.81-24.74-14.05-35.85-19.81-.66-.35-3.33,3.18-5.1,4.86L273,1022.66l-3.06,3.61c2,4,3.93,7.89,5.85,11.82-3.7-3.39-7.19-7-11.14-10.12-6-4.66-12.28-8.9-18.44-13.32l-3.83,4.76c6,6,12,11.91,18.24,18,1.62,14.4,8.59,23.35,22.67,25,1.28-1.55,2.57-3.09,3.85-4.63ZM540.57,464l20-7.19c-10.36-9.19-25-6.47-35.66,7.1h16c.18.5.57,1.05.47,1.48s-.73.69-1.18.8c-8.73,2.25-17.47,4.45-26.2,6.67.59,2.05,1.19,4.11,1.79,6.16l43.34-12.49c-.22-1.14-.44-2.28-.65-3.42C552.49,463.4,546.48,463.71,540.57,464ZM124.75,904.87l12.78,2.21L105.47,870l-4.37,3.83,23.66,31.07-1.59,7.37-18.9-15c4.51-11.14-4-19.4-22.82-20.42,4.3,6.42,8,11.94,11.69,17.45l25.46,32q2.66-1.53,5.32-3c-.3-3.7-.59-7.39-.83-11L148,934.73l5.09-5.8Zm74.38,135.84-9.06-.72c10,24.83,15.48,30.64,29.46,29.33-7.2-10-13.84-19.32-20.51-28.58-4.68-12.78-9.15-25.75-25.35-27l-3.76,4.44ZM302,1081.1l17.54,16.29,6-14.54h30c-11.51-20.46-21.45-8.37-31.11-4.24l-25.93-11.21c2.17,7.74,3.07,11,4,14.21-9.09-3.81-10.37-20.89-28.21-14.23,7.74,7.15,14.09,13.28,20.92,18.82C295.78,1086.63,299.68,1082.9,302,1081.1ZM275.19,948.94H291.6l2.65-4.7c-5.2-4.65-9.87-10.34-15.87-13.44-2.29-1.18-7.65,3.59-11.61,5.65q4.44,6.38,8.92,12.75c-1,3.34-3.77,8.21-2.53,9.71,2.74,3.3,7.53,4.9,11.48,7.19l-49.93-15.68,15.42,21.2c2.76,3.35,4.84,8,8.39,9.85,47.16,24.5,96.82,37.94,150.44,31.85,3.11-.35,5.83-4.13,8.73-6.32l-7.35-10.26c4.06-.78,9.77-3.67,11.91-2,14.3,11.19,25.86,0,41.15-1.67-15.18-9.39-27.48-17-39.77-24.63l64.9-18.78c-7.38-2.67-14.56-8-18.47-6.21-15.89,7.3-30.78,16.78-46,25.45l-38.77-6.78c3.07-3.45,5.51-8.41,9.36-10C402,949,410.12,947.72,418,945.7c4.81.7,10.27,3.23,14.33,1.79,17.35-6.12,34.28-13.41,51.36-20.27-.94,2.7-1.88,5.4-4.11,11.85l69.05-26.36c-.54-1.25-1.09-2.51-1.64-3.76l-20.63,2.57,38-20.32,9.26-6.67c-1,4.41-.52,10.28-3.22,13-27.06,27.22-57.23,49.79-94.62,61.33-10.3,3.18-20.09,8-33.65,13.5,10.2,4.74,18.21,6.09,22.28,10.82C474.54,995,483,989,493.72,984.45c49.3-20.87,78.5-61.66,105.65-104.54,6.35-10,10.79-21.28,16.1-32l-2.53-1.38-9.06,6.18c4.29-14,8.57-28,12.77-41.91l5.54-9.18c22.18-18.44,18.3-45.9,25.43-70.11H636.51c4.67-4.28,12.56-9.09,11.89-11.31-4-13.14,9.22-31.87-12-39.74-.62-.22.4-4.85.66-7.42,4-2,10.6-3.32,11.33-6.16,2.23-8.67-11.09-23.84-21.67-26.51l18.73-13.23c-2.79-5.24-5.31-10-7.69-14.43l-11.12,2.08c3.06-4.43,8.14-8.51,8.65-13.11,1.5-13.37-5.31-22.85-19.08-28.48l9.53-5.55c-2.11-6.83-3.33-12.37-5.51-17.49-4.17-9.78-8.37-20.92-21.84-19-12.15,1.72-24,5.6-39,9.27l13.23,12.07L539,555.31l19.81-7.65c-4.93-12.9-16.88-5.37-25.37-7.85l.3.38,21-8.88c-.23.54-.45,1.08-.67,1.62l51.2-6.73c-9-25.35-12.15-27.67-39.92-29.11L577,490.5c-2-4-3.54-7.24-5-10.17l-12.81,2.84c-12.84-12.64-26-2.78-39-.29-1.22.23-2.81,4.62-2.2,6.37.51,1.46,4.14,2.84,6.16,2.57,7.67-1,15.25-2.76,22.86-4.23-3.07,1.51-6.24,2.85-9.19,4.57-4.47,2.6-11.59,4.62-12.69,8.34-5.36,18-12.75,22.29-28.31,14.41-3.25-1.65-7.05-2.25-10.59-3.33,3.89-6.94,4.85-12.07-6.09-11.15-6.59.56-13.5,1.54-19.79.17-4.72-1-8.68-5.51-13-8.46,18.44,7.65,39.27,4.93,47.8-8.74l-51.55,5.49C434,488.21,422.47,478,415.31,493l23.1,3.95c-9.45,3.23-21.7,9.18-26.64,5.45-15.49-11.69-9.38,13-18.42,9.2.76,3.63,1.42,7.28,2.32,10.88.44,1.74,1.93,3.39,1.9,5.06-.09,4.91-.7,9.8-1.11,14.69l17.48-2.39c-1.1-10.92-1.95-19.29-2.9-28.63h18.37c-21,7.48-14.22,14.18.57,22.13H417.65l-.69,6.08,55,2.5c-13.85,3.75-27.47,3.4-41.05,4.07-2.51.13-4.82,4.4-7.19,6.78-7.23-2-14.38-4.57-21.74-5.58-1.9-.26-4.47,4.4-6.73,6.8,2.34,1.72,4.49,4.52,7.06,5,8.79,1.57,19.06-2.08,20.91-6.65l39.32,8.75c-17.11.2-33.92,6.49-51.35,2-10.54-2.73-15.24,3.08-15.78,13.12L378.05,562l-4,2.81c2.48,5.64,4.27,11.83,8,16.48.8,1,8.54-3.53,13.09-5.52,9.84,8.66,27.89,7.81,38.44-2l9,8,13.8-3c0,1,0,2.06,0,3.1q-1,9.78-1.91,19.57c6,.32,12.08,1.23,18.07.85,17.26-1.09,34.49-2.7,51.74-4.11-26.91,5.5-54,8.77-81,12.83-2.55.39-4.34,5.82-6.52,8.95-8.41-17.84-22-5.85-34.9-7,1.39,6.92,2.38,11.89,3.56,17.75h89c-26.66,2.93-53.33,2.73-80,3.18-3.28.05-6.5,3.56-9.75,5.47,3.3,2.48,6.66,7.13,9.89,7,14.18-.38,28.3-2.7,42.48-3.18,9.06-.3,18.2,1.38,27.3,2.18-.11,1.55-.23,3.1-.35,4.65H408.74c-2.29,17.53,13.67,4.75,17.58,11.56L407.18,664c5.62,14.49,15.31,11.4,24.61,9.47l-.23-.21-19.79,7.91v19.26c17.58-8.31,35.9,4.61,51.47-8.25,1.05-.87,5.53,2.41,8.41,3.77-.13,1.19-.26,2.38-.4,3.58l-57.79,6.05c.65,5.66,1.26,11.1,2,17.33l45.88-5.73.19,2.39-43.83,7.37c.15,1.19.29,2.38.43,3.57h18.16l-19.19,6.54,1.2,5.12,43.94-5.57c.08.92.15,1.84.23,2.75l-44.25,8.26c1,6.36,1.78,11.75,2.69,17.68l52.42-6.16c.11,1.41.21,2.82.32,4.23l-52.56,9.19c-.52,7.63-.9,13.34-1.29,19.05h-2.12c-1.22-5.47-2.43-11-4.17-18.74-17.81,4-35.2,8-52.44,11.89q-8.62,1.93-17.21,3.8c-2.87-1.69-5.73,1.87-8.6,3.37-2.86-.38-5.73,4.06-8.59.28-2.75,5.54-5,4.24-6.83,7.25-1.81,1.16-3.15.24-4-1.44-1.77,15.69-1.69,2.47.19,12,.95,6,.59-2.13,1,10.86-2.21-5.19-4.38-9.32-6.49-11.6-2.12-4.41-4.19-.42-6.23,2.39-2,1.65-4-2.61-6-3.71-2-2.43-3.92-5.4-5.84-4.86-1.93-2.42-3.83-2.17-5.73-1.22-1.9,1.36-3.79,1.21-5.68-7,.25,1.27.51-3.26.76-2.7,2.53,2.09,5.06,4.86,7.62,4.46,2.56,4.27,5.16,2.34,7.83,1.56,2.67,9.17,5.41,11.79,8.26,10.76,2.85-2.3,5.81-.57,8.91-4.07-1-4.69-2-9.16-2.93-11-.93-5.64-1.84-3.91-2.79-2.75-.95-.38-1.94-8.44-3.06-9.22-1.11-1.08-2.34-7.25-3.76-2.77-.74,5.45-3.82-6.8-7.5,1.57-3.68.62-8,1.32-11.14,4.6-.39,2.34-1.22-8.91-2.27-4.66-1.05,1.25-2.31-4-3.58-7.36-1.3-.73-2.6,1.94-3.9,1.79-.28.87-.56,5.06-.89,9.57-.17,2.91-.35,8.22-.55,9.67-.2,1-.42,4-.67,3.4a52.22,52.22,0,0,0-1.89-10.13c-.57-4-1.1-2.54-1.59-5.9-.5-4.47-1-4.39-1.4-6.43s-.88-4-1.3-6l-5.3,1,.63,7.32q.33,3.66.64,7.32a21,21,0,0,1,.64,3.69c.21,2.16.42,6.69.63,11-1.45-1.34-2.9,2-4.35.47-.2-3.56-.41-6.56-.61-8.72s-.4-4-.61-6.49l-1.21-15.21-4.09.26c-.59,7.31-1.17,14.62-2.06,25.82-4.19-13.92,4.24-29.7-17-32.83l-6,13.42c-2.05,4.54-4.11,4.93-6.18,13.72.8-9.11,1.6,9.54,2.4,3.28,10-6.92,13.54-4,15.51.68s2.37,11.11,6.06,11.2c-3.27,12.46-6.33,24.11-10.43,39.7v-53.1c-3.54,1.9-6.11,5.75-8.2,8.74-2.1-2-3.72,12.46-5.37,5.72a64,64,0,0,1,3.61,5.6c1.29,3.89,2.73-2.67,4.56,7-3.43,9.94-6.15-.6-8.57-.56-2.42-4.49-4.53,8.26-6.76-.44-.85,9-1.71,3.52-1.72,7.31,3.26-3,6-3,8.5,6.48,2.5,11,4.75,0,7,5.33-4.82-5.12-9.3,5.94-13.39,1.44-4.09-3.39-7.8,9.51-11.08.81-5.39.86-9.09,1.63-11.92,2-2.83-11.74-4.78,19.62-6.66-8-2.3-18.74-1.38-5.41,1.93-16.69,3.31-7.34,9-18,16.25-9.53,2.51-8.89,5,4.56,8-1.17,3-2.88,6.5-11.51,11-1.5-8.2,3.64-15-8.31-20.89-2.85-5.89-5.28-10.86,4.27-15.42,7.27-4.55-1-8.67,12.62-12.85,11.88-4.18,13.13-8.42.8-13.2,11,1.45-1.21,3.26-.67,5.32,10.53,2.07,9.54,4.39,5.36,6.89,13.61,1.48-5.67,2.76-19,3.94-6.56,1.17,1.18,2.25-4.12,3.32-5.54-.12-11-.24-8.5-.36,4.8,4.3,1.59,8.58-5.86,12.86,3.39,4.29-.81,8.57,13.39,12.88,3.33,4.3-2.88,8.63,4.61,13,2.49a125,125,0,0,0,13.85,1c4.64.13,9.3.14,13.94.29a115.34,115.34,0,0,1,13.81,1.17c4.45,2.86,8.74-6.76,12.84,1.53,2.05-.68,4,1.47,6,2.48s3.83.91,5.65-4.28c1.83-4.42,3.59-7.31,5.29-7.34,1.69-.3,3.32-.82,4.87-1.15,1.47-2.4,3-10.3,4.56-11.83,1.57-4,3.19-5.42,4.83,0,1.64,1.8,3.32,7.59,5,4.43,1.68.95,3.38-8.61,5.07-16.33,1,6,2.05-7.12,2.26,4.68.48.2,1.27,5.09,2.34,8.9,1.06,5.6,2.39,9,4,8,1.57.38,3.38,5.69,5.37,7,2,3.44,4.2,6.51,6.55,4.77,4.71,2.19,10.05,4.8,15.72,5.4a40,40,0,0,0,17.69-2.24c3.9-1.4,6.25-7.21,9.23-11.05s6-8,9.06-12l4.16,3.42c-2.68,3.76-5.37,7.52-9.94,13.94,6,.34,9.15.62,12.27.68,6.26.13,12.61-.45,18.73.51,2.08.33,3.56,4.43,5.32,6.8-2.36,1.56-4.66,4.35-7.08,4.44-5.41.22-10.86-1-16.31-1.45-3.74-.31-7.59-1-11.23-.39-11.45,1.75-22.86,5.79-34.21,5.56A81,81,0,0,1,328.76,872c-5.77-3.18-11.54-7-17.31-4.32-1.1,5.14-2.2,2.56-3.3,3.36,2.3,2,4.34,3.31,6.55,9.24,2.2,3,4.58,5.68,7.55,7,5.7,2.58,13.92.12,20.95-.81,28.17-3.73,56.3-7.74,84.44-11.64l-49.3,18.26,16.88-11.27L334,898.47c18.23,15.14,36.65,5.38,56.27,11.23-15.45,1-27,1.41-38.38,2.67-27.45,3-27.43,3.19-29.77,9.52l11.57,1.85-16,6.84L312,909.64c-9.41,15.06-16.1-2.82-23.44-2.4-4.13,16.77,6.88,22.7,18.69,28l-14.69-3.83,9.7,21.24c.89,6.91.69,11.76,2.31,15.88,1.31,3.33,4.83,5.78,7.38,8.62v-.05l-20.25-8.92,7-4.05c-2.68-3.71-4.63-8.62-8.23-10.83C286.06,950.68,280.32,950.3,275.19,948.94Zm84.3-406.22,27-1.45c-8.86-18.23-24.81-13.12-40.12-14.15l7,9.77c-7.13-.38-18.2-10.15-17.95,7l29.61,9Zm-121.3,509.5-10.64,1.06c10.85,11.77,13.4,29.36,35.18,25l-25.05-26.39c1.46-1.82,4.37-5.07,4.18-5.26-7.12-7.22-14.53-14.15-21.9-21.13l29.29,5.15-30.62-27.43c1.12-3,4-6.69,3.08-8.85-7.78-18.79-25.62-22.42-41.38-29.13l-3.3,4Q188,980.12,198.85,991c-.75,2.75-3,6.75-2,8,7.49,9.27,15.65,18,23.66,26.94-1.53,1.84-4.55,5.15-4.4,5.29C223.3,1038.4,230.76,1045.3,238.19,1052.22Zm98.63,108,14.62,5.93c.71-1.08,1.41-2.17,2.12-3.26l-26.42-37.28c-4.67,10.53-4.67,10.53,9.67,34.58l-23.11-21.5v22.66c6.3,0,12.59.05,18.89-.07A19.28,19.28,0,0,0,336.82,1160.24Zm-198-624.42-34-29.15c1.55,6.75,2.2,9.54,2.84,12.33-11.1-.48-13.66,5.39-8.73,13.94,7.29,12.65,15.8,24.59,24,37.21,10.61-9.76,4.42-17.23-.5-24.79l10.83,4.53,5.59-14.13c1.05-9.14,16.6-17.49,2.11-27.76C123.17,516.5,138,526.55,138.86,535.82ZM154,483l-15.87-17c-7.07,15.52-3.12,27.24,16.9,46.33.67-9.84,1.17-17,1.66-24.26,18.74,5.5,11.81-8.57,12.7-16.67,12,5.64,14.76-2.48,12.48-10.66-2.61-9.36-9.2-17-22.32-11.35,1.94,4.93,3.82,9.73,5.7,14.52l-19.4-17.12c-.26,8.87-1.6,14.41-.27,19.22C147.23,472,151.08,477.32,154,483ZM95,596.15l-15.2-6C83.11,601,85.29,608,87.48,615l-8.27-2.08c-.92,6.66-4.69,14.75-2.2,19.7,6.67,13.33,16,25.32,24.3,37.83l5.86-2.33-8.43-35.17,7.51,6.71,3.49-1.51-4.62-24.62,6.6.06c-.32-7.52,1.16-15.73-1.4-22.39C106.8,582,100.23,574,95,565.42l22.31,25.27c5.44-14.27-.44-27.28-25.8-57-1.33,6.15-2.34,10.87-3.36,15.58h7.36v16.63C81.57,575.76,88,586,95,596.15ZM83.47,788.28c-.78,13.61,16.07,30.25,38.69,34.31L91.9,794.21l6.67-7.11,20.34,23.76,3.92-1.27c-14.92-24.69,7-43,8.51-65.2l-18.81,25.37-4.09-1.28c-1.07-9.29-1.51-18.7-3.36-27.83-2.38-11.71-5.88-23.19-8.89-34.76,2.16-3.46,5.87-6.78,6.22-10.41,2.31-24-17.39-36.68-26.58-54.84l-5.38,1.47L73.3,669.2c-1.83.66-5.22,1.23-5.27,2-1.13,17-1.89,34.09-2.82,53.28-5.12,2.63-5.12,3.3,3.37,19.33-2.67,3.23-7.21,6.22-7.7,9.75C58.46,771.24,73,778.54,83.47,788.28ZM92.17,1007l-11.89-7c18,32.69,33,62.22,50.42,90.22,6.76,10.86,19.09,18.24,28.88,27.2l4.94-5.81c-4.41-3.54-8.94-6.95-13.21-10.66-3.63-3.16-7.65-6.21-10.28-10.13-4.6-6.86-8.14-14.43-12.34-21.58-12.28-20.92-24.67-41.79-37-62.67l12.83,8.24L64.25,929.37l-5,2.16q5.4,12.48,10.82,25Q81.09,981.76,92.17,1007Zm38.69-45.83c17.91,14.39,22.37,42.41,49.21,48.09-10.54-17.34-23-33-35.57-48.59-.95-1.19-2.72-2.08-3-3.37-2.79-12-7.74-19.44-15.66-20.56-2.12-.3-4.9,4.1-7.37,6.35l-11.18-16.2-7.41,5.84c17.33,29.47,34.17,59.24,52.42,88.12,3.32,5.25,12.36,6.88,18.76,10.19-8.14-17.23-18.1-31.17-27.34-45.57C138.78,977.8,135.1,969.31,130.86,961.19ZM360.7,630.63c-3,.76-6.77,3-9,2-18.83-8.36-30.75,6.55-48.5,12.12l12.57,5.61c-25.61-.43-25.77-.35-27.37,16.4l12.46-6.58c6.37,4.66,10.34,9.92,14.92,10.51,18.5,2.4,37.17,3.95,55.82,4.62,10.55.38,21.18-1.55,31.78-2.44l.6-7.64c-5.73-1.14-11.48-2.24-17.21-3.43q-29.13-6.09-58.26-12.22L336,644.2c4.5,12,31,15.84,61.07,8.91.49-19.19.49-18.91-19.52-19.28-5.79-.1-11.55-2.3-17.35-3.56l36.21-2.12,1.42-13.51-90-6.86c-.56,3.13-1.26,7.1-2.3,12.93l15.06-5.42c5.28,10.91,14.3,12.34,26.71,11.3Zm24.59-512.86L416.68,120c.49-1.67,1-3.34,1.48-5L396,95.3c23.9,1.74,30.24-5.13,12.93-23.88l8.08,1.2q1-2.39,2.08-4.77l-57.74-29-2.49,4.4,5,5.75-10.9,10c-10.71-9-4.76-20.58-1.7-29.35C353,24.51,363.88,20,370.88,19.62c19.72-1,39.55.46,59.34.76,12.66.19,25.32,0,39.86,0-2.29-3.86-4-9.32-5.76-9.34-57.29-.44-114.59-.37-171.89-.37l-3.24,3.83c30.74,5.59,31.42,28.46,32.33,50.3.94,22.78.21,45.62.21,67.89l-23.15-6.29c-4.41,21.4,1.79,28.79,21.72,24.45l-17.46-10.19c13.37-2.35,13.37-2.35,24.39,24.46,12.42-.69,25.51-1.11,38.53-2.29,5-.44,11.17-5.24,14.39-3.52,13.28,7.1,15.09-1.8,18.16-10.78C403.21,134.21,394.34,126,385.29,117.77ZM468.9,301.6c-3-5.73-5.95-11.46-9.24-17.81l15,13.52c-10.28-30.85-19-59.59-16-91.12a31.44,31.44,0,0,1,7.64,14.17c8.05,34.74,24.83,64.43,51.39,88.19,4.72,4.23,11.88,5.72,17.91,8.48l2.2-3.81c-2.52-3.25-4.7-6.85-7.61-9.7-32.45-31.7-53.44-69.17-59.54-114.67-.91-6.82-5.5-13.14-8.1-19L435.5,178l29.71,2.87c-4.91,5.39-7.64,10.76-10,10.6-16.56-1.12-15.49,10.3-14.3,20.25,3,24.81,7,49.48,10.59,74.21l-4,1.3c-2.95-12.2-5.24-24.6-9-36.53-3.57-11.24-8.73-22-13.19-32.94l3.85-1.49c.9,2.42,1.79,4.84,2.69,7.25l2-.55c-1.42-10.42-2.84-20.84-4.58-33.67-18.16,1.29-35.09,4.33-51.72,3.18-18.36-1.28-33,1.83-42.57,20.17-4.72-24.64,10.75-31.5,38.84-33,9.07-.5,18.19.18,27.28,0s18-.86,27-1.31c-.06-1.48-.12-3-.19-4.45C382.1,178,336,164,290.21,174.19l0,4.45,18.6,3c-5.86,10.07-12.4,20-17.66,30.62-8.56,17.19-15.76,35.07-24.52,52.15C259,279.18,250.05,293.29,241,309l24.34,4.44-29.4,1.84A462.76,462.76,0,0,0,300.06,323c12.89.72,26.66.84,25.8-18.63-.1-2.2,1.84-4.49,2.83-6.73l4.39,1.14-3.82,17c21.63,4.32,43.61,11.41,65.18-2-.62,2.25-1,3.75-1.44,5.25,15.09.2,30.35,1.86,45.21.1,10.07-1.2,19.52-15.58,29.42.9,1.06,1.77,6.71.78,9.89,1l-2.25-9.82L494,322.78c-2.14-7.66-5.52-12.88-8.79-18.17C480.87,297.55,475.9,294.17,468.9,301.6ZM257.29,498.2c-11.08-10.95-16.15-23.33-5.11-35.7,6.48-7.27,15.73-12.18,24.06-17.64,6.5-4.26,13.5-7.74,19.07-10.89,5.14,1.9,10.65,4.21,16.33,6,14.64,4.63,30.29,7.19,43.73,14.1,11.8,6.07,20.43,16.67,13.48,32.87-4.24,9.89-6.65,20.95,8.89,25.29l10.44-11.8c-9.87-19.6-5.23-46.24,10-51.92,26-9.69,52.92-13,79.79-2.61,18.58,7.18,25.24,19,24,39.55-.25,4.19,1.64,8.51,2.48,12.48l-9.87,3.13,11.62,10.19,5.66-1.2c-.26-5.79-.11-11.63-.84-17.36-1.91-14.86-2.67-29.12,12.47-38.45,5.37-3.31,10.47-7.05,19-12.84C530.22,430.3,520.2,419,508,410.93c-12.65-8.35-27.4-13.52-41.23-20.08,26.82-2.64,44.57,13,61.5,29.23,13.73,13.15,26.67,23.72,48.07,24,27,.39,39,14.4,42.85,40.06.28,1.9,3.59,3.35,3.74,3.48l19.41-44.37c-3-15.42-25.1-7.6-38.44-18.07l37.83,7.57C624.6,411.45,609.2,392,593.36,372.91c-2.5-3-6.91-6.13-10.56-6.28-25.66-1.05-51.35-1.48-77-1.69-3.57,0-7.27,3.57-10.71,3.26-7.21-.67-14.28-4.12-21.41-4.15-74.25-.34-148.49-.62-222.73,0-23.91.2-48.67-.35-66.79,20.72-3.5,4.06-10.33,5.25-15.62,7.76l-2.31-3.24L184,367.37c-14,1.82-63.61,60.38-74.76,86.82,14,9.11,14.57,21.66,10.08,36.36-1.38,4.52.71,10.37,2.32,15.25.29.87,8.69.46,8.83-.25.89-4.5,1.87-9.77.32-13.83-8.34-21.88,3.81-46,26.66-48.43a221,221,0,0,1,51.6.38c22,2.91,31.79,14.11,30.86,32.65-.38,7.54-4.43,14.9-6.94,22.75C240.19,509.07,247.7,510.22,257.29,498.2Zm110.12,676.37c-12.06-.59-22.9.3-33-2-9.56-2.22-21.71,2.17-28.22-10.67-4.11-8.13-11.18-14.77-17-22.21-1.67,5.17-4.11,12.72-6.73,20.86l13.07,8.77c-28.1,0-54.8-.31-81.48.23-6.37.13-12.69,3.11-19,4.77.36,1.77.71,3.54,1.07,5.31,73.4,14.17,148-1.91,221.58,6.22l-160,7.78c33.49,0,68.81.49,104.12-.14,31.93-.58,63.36-4.82,94.26-13.81,10.88-3.16,23.16-1.53,34.8-2.08l-.06-5.45H385.52l-.08-5.18,47.51-3.28c.45-1.63.89-3.26,1.34-4.89-7.87-5.83-15-14.68-23.78-16.74-11.77-2.78-19.81-6-26.5-17.29-12.71-21.53-15.63-17-33.8-9.81l26.14,44.71-3.19,1.82c-13.4-22.17-26.8-44.33-40.87-67.62l-12.77,9.67C335.49,1127.21,350.63,1149.68,367.41,1174.57ZM553.26,343.19c-8.85-2.51-24.65-3.89-25.27-7.72-2-12.44-9.56-9.37-16.09-9.28-23.41.31-46.82,1.35-70.24,1.74-56.82,1-113.65,1.93-170.48,2.34-11.65.08-16.7,5.28-18.94,16.42,71.21,0,141.37.11,211.52-.27,3.93,0,7.83-3.93,12.14-6.24C500.35,351.35,527.3,340.07,553.26,343.19ZM312.87,781.4c3.59-2.12,7.14-3.52,10.67-1.77,3.52-2,7,1.3,10.49-.84,6.94-1.34,13.78-1.71,20.54-2.54l59.48-7.36V747.54l-102.88,4.88c.2,3.45.42,7.25.7,11.91.14.5.29,4.9.45,7.69C312.49,775.64,312.67,777.55,312.87,781.4Zm96.64-75.18-107.88-7.35c5.63,9.22,9.21,16.12,14.08,21.94.75.89,7.47-3.22,10.27-4.49,27.09,13.58,56.14,5.45,86.23,7.15C410.93,715.34,410.15,710.31,409.51,706.22Zm-103.43-30V693l102.09,8.74c-.51-13.39,1.07-23-14-23.08C365,678.4,335.81,677.11,306.08,676.23Zm103.05,53.38H306.88c2.53,4.52,5.46,14.76,8.77,14.89,32.38,1.2,64.82.72,98.58.72C411.61,737.22,410.32,733.27,409.13,729.61ZM376,594.24l1.61-.67c.54,4.4,1.09,8.81,1.65,13.38h20.67c-5.53-9.35-8.3-20.23-13.32-21.39-15.29-3.53-31.47-4.36-47.25-4-6.23.13-12.34,6.1-21.38,11l58,14.93ZM291.33,57c1.78,22.16,3.62,44.9,5.58,69.2L321.5,123l-14.12-10.13,4.55-.46V92.84l7.7-16-22.88-1.91,9-2.84ZM441.7,105c1.69,7.83,6.22,15.91,3.87,20.35-6.78,12.85-7.87,12.27,4,20.32L452,133.46c.64,12.75,1.14,22.59,1.64,32.43l7.34.18c1.56-20.26,3.49-40.51,4-60.79,0-1.83-8.82-5.08-13.71-5.43C448,99.61,444.5,103.37,441.7,105Zm6.8,499.88c-.28-5.52-.64-12.76-1-19.19-11.59,0-20.54.46-29.42-.1-15.47-1-20.43,5.46-15.5,19.29Zm-301,208.34c-3.72-.56-5.87,3.67-6.66,19.91a40.05,40.05,0,0,0,1.53,17.43c3.47,11,11.58,21.05,22.69,31.37-1.6-6.24-3.12-12.22-4.61-18-1.49-4.91-2.93-16.65-4.36-17.07-1.43-19.29-2.84-8.1-4.27-16.69C150.36,827,148.93,839.67,147.46,813.22ZM497.34,480.06c-.09-1.21-.17-2.42-.25-3.63H417.21l.11,3.63ZM199.6,1065.6c-12.47-13.45-14.89-34.83-39.73-32.81C170.17,1047.31,173.76,1066.86,199.6,1065.6ZM435.06,466.89h59.11C485.69,457.79,451.6,456.55,435.06,466.89ZM173.64,1190.63,198,1154.06l-2.19-2-8.2,6.36c-8-8.35-15.8-16.59-23.64-24.84l-3.45,3.1c3.34,4.49,6.15,9.54,10.14,13.37,9.19,8.84,14.31,17.29,3.28,28.62C172,1180.63,173.64,1186,173.64,1190.63Zm80.91-858.41h-43c2.55,6.45,4.06,10.26,5.58,14.09C228,338,246.41,353.74,254.55,332.22Zm477.9,462.61c-.91,16.92-17.81,32.69-4.6,50.4C730,828.39,741.33,812.44,732.45,794.83Zm-562.52-9.44c-.55,13.17-1.11,6.91-1.67,8.88-.56,5.59-1.12,16-1.69,9-2.93-5.49-5.85-12.8-8.78-4-2.93-4.56-5.85-4.91-8.78-4-.79,5.86-1.58,6.17-2.36,2.71,3.33,1.12,6.66-2.86,10,9.24,3.34-9.47,6.69-1.09,10.07,9.29,4.85-2.08,8.11-4.82,9.88-14.32,1.76-6.59,2-15.78.89-9.82C176.35,789.63,173.8,788.84,169.93,785.39ZM283.6,751.53l5.78,7.55c1.79,2.35,3.46,2.74,5.05,6.61,1.59,3.58,3.1,6.39,4.57,6,1.47.7,2.9,3.87,4.33,5.66.84,4.6,1.68,7.94,2.52,3,.85-4.5,1.69-6.72,2.53-5.81-.29-2.11-.58-4.88-.87-6.43-.3-.87-.59-4.12-.9-6.59q-.45-3.35-.93-6.88l-1-7.34ZM471.33,456c-18.53-8.37-37.06-10.89-55.56,0ZM295.5,358.62c-20.64-10.91-35.37-9.14-40.32,0Zm5.64,756.61c-8.85-22.24-11.85-24.78-25.83-22.58C290.74,1116.35,290.74,1116.35,301.14,1115.23ZM96.53,832.4l7.41-7.55L74.56,795.36l-7.47,7.49Zm268.89,267.2c-7.47-17.06-10.39-17.48-26.75-4.17C345.44,1111.27,356,1100.42,365.42,1099.6Zm-145.22-360c4.12,6.45,6.87,11.5,10.6,15.67.51.57,5.93-3.25,8.89-4.93,1,2.61,2.51,6.32,4,10C245.52,741.28,242.36,738.4,220.2,739.56ZM471.54,56.22c-2.33-7.59-3.91-12.75-5.49-17.91C462.61,44.82,457.83,51,456.29,58c-.79,3.54,4.21,8.37,6.59,12.62ZM29,837.44l7.19-1.87Q30.15,816,24.08,796.42l-5.87,1.79ZM561.28,1170.8l-2.43,4,12.32,5.43-6.54,10.9,17.27,2.57v-18.85ZM250,1016l5.57-6.81-24.87-20c-1.7,2.06-3.39,4.13-5.09,6.2Zm-59.91-6.13,4.54-3.51c-6.8-11.11-9.63-25.85-29.84-29.48Zm221.09,110.58,21.9,28.61,4.93-2.65c-4.61-9.3-8.92-18.77-14.21-27.65C423.09,1117.59,417.28,1119.52,411.15,1120.42ZM288.81,695.12c-2.19,20.82-1,22.68,13,21.3C302,697.86,302,697.86,288.81,695.12ZM243.9,932.88l-3.73,5.28,22.28,19.4,3.93-4.83-16.25-11.31,10-11.12-2.28-2.46ZM303.33,743c2.81-19,2-20-13.85-16.93C286,738.45,290.34,744.17,303.33,743Zm331.81-242.3c-.8-1.8-1.59-3.61-2.39-5.41L612.93,491c2.55,8.2,4.2,13.48,5.84,18.77Zm-24.47,606.56,3.46,1.7,28.46-46.93-4.06-2.36Zm-326-219.17c-3.16,12,1.52,17,11.34,14.65,4.8-1.14,9-4.65,13.52-7.1l-3-5.1-14.07,5.7Zm444.24-180L722,713l18,23.24,6.21-4.55Q737.55,719.89,728.9,708.09Zm-707-26.52-8,2.13,8.78,26.19L28.78,708Q25.32,694.76,21.87,681.57Zm235.48,318.92-2.7,3.75c6.29,7.9,9.53,20.93,28.5,12.09ZM194,1191.1l.12,4.2h35.74c.06-.86.13-1.71.19-2.57Zm42-292c1.79,6.25,3.39,11.84,5,17.42l2.93-.25c.7-3.15,1.41-6.31,2.83-12.61l6.86,19.19C251.66,912.87,258.5,895.88,236,899.05Z"/><path d="M533.67,871.64c-3.23,0-7.48-9.27-9.52-5.87-3.06,3.29-6.13,3.08-9.21,4.78-3.08-3.67-6.18,6.43-9.28.65-3.11,6.26-6.23-3.35-9.36,1-3.12.47-6.26,1-9.4,1.26-6.29.38-12.6.46-18.91.45-12.63,0-25.29-.38-37.82.67-1.06.09-2.1.31-3.16.47l10.11-4.61-28.51-26.08-3.74,3.13V818.37c7.86,10.2,14.53,16.47,18.22,24.17,7.54,15.75,21,17.42,35.76,18.54a132.89,132.89,0,0,1,14.13,2c4.82,3.69,9.84-1.4,15.26,2.86a25.22,25.22,0,0,1,6.35-4.63c2.52-6.38,5.38,5.73,8.37-2.38,3-2.76,6.12-.36,9.18-.29,3.07-4.68,6.06-2.92,8.79,1.53-.59.39-1.18,3.94-1.78-5.31-.59-11.78-1.2-3.69-1.81-7.55-.62-4.11-1.24,2.55-1.88-6-.64,1.26-1.29,7.34-2-7.67-1.17,3.33-2.45,12.12-4.69,6.25-.85-1.42-1.68-1.3-2.49-3.75-.82-1.75-1.62-6.4-2.41-9.8-.8-3.76-1.58-6.09-2.37-3.13-.78,11-1.56,1.35-2.35-9.92,2.61-8.22,5.19-4.45,7.71-1.63,2.53,1.62,5,2.36,7.44-1.07s4.8,10,7.12,1.27c2.32,8.17,4.59.12,6.79-3.74-1-4.33-2.15,1.88-3.44,7.57-1.29-6.31-2.7,3.07-4.1,9,.9,2.13,1.8-.2,2.69,2.12,2.53-8.78,5,3,7.53-6,2.5-2.41,5,1.33,7.5-5.33,2.51-11.35,5-5.13,7.58-3.29,2.55,0,5.13-5,7.76-3.72,2.31,3,4.67-6.2,7.06,1.4,2.4,7.41,4.83,3.2,7.28,4.17,2.44.29,4.91,9,7.37,5.38,2.47-6.8,4.93,11.52,7.38,5-2.09,8.34-3.69,6.12-5.11,6.88-1.43,3.82-2.7.92-4.14,1.85-1.44-6.2-3.06-2.85-5.19-4.7-2.13-2.6-4.78,6.09-8.28-8.14-3.11,4.19-6.28.81-9.6,3.19-3.33,6.82-6.79,7.69-10.49,3.47.49-1.82,1,6.48,1.44,9.1.49,12.43,1-7.73,1.6,10.07-2.81-13.86-4,2.88-5.53-5.94-2.13,7.94-4.3-11.15-6.47-5.12-2.18-11.26-4.36-5.1-6.54-5-.56,4.63-1.72-8.42-2.52,7.7-.8,3.94-1.22,2.72-.31,6.35,1.64-10.71,4.1-7.28,6.79,8.14,2.69,15,5.6,14.07,8.12,4,3.3,3.73,6.54-8.88,9.73-.64,3.19,1.29,6.33-2.42,9.42-2.41,3.1,3.91,6.15-4.65,9.17-3.5,3,10,6-8.47,9-3.28,3-.87,5.92-8.69,8.85-4.15,2.93,3.75,5.86-2.88,8.78-4.32,2.59-1.27,5.69-1.53,7.91-2.1-5.94,9-11.8,17.93-17.65,26.84l3.65,3.39,12.92-7.65-24.77,26.09c-3.09,2.22-6.17,4.45-9.27,6.67q1-4.55,2-9.13c.68-1,1.36-1.84,2.06-9.34-2.36-9.35-4.78-5.84-7.22-.21-2.44-8.27-4.89,10.19-7.3,2.5-2.41,13.39-4.78,5.5-7,2.89-2.27-11.56-4.44-14.94-6.46-.76C537.65,888.85,535.66,864.1,533.67,871.64Z"/><path d="M592,677.87c-.79,5.66-1.58,11.31-2.66,19.12l15.38-4.22c-2.26,31.26,5.45,72.47,14.15,75.62-11.22,16.52-10.23,26.26,3.36,33.26-1.86,3.07-3.7,6.13-5.51,9.11l-14.38,25.88c2.08-23.68,3.73-42.36,5.81-66.11-7.86,5.66-14.74,8.13-15,11.2-1.65,18.35-14,18-31.18,16.88,8.7-4.8,14.83-7.6,20.14-11.51,1.37-1,.18-5.49.17-8.37l.28.36q4.23-10.87,8.45-21.77l-3.88-3.92-52.85,16.36L533.1,766c15.06-4.57,30.07-9.33,45.21-13.63,7.83-2.22,13.36-5.38,12.14-15-1.4-11-2.17-22.07-3.29-34l-13.81,3.32-.78-1.83,13-6.35c-1.28-13.36-2.56-26.78-3.85-40.18Q586.86,668.13,592,677.87Z"/><path d="M417.69,1007c-14.93-9.2-31.57-5.25-47.61-6.66-24.75-2.16-49.35-6.11-74-9.66-2.65-.38-5-3.13-7.44-4.78,38,11.77,76.41,16.4,115.84,8.5,1.71-.34,3.87,1.51,5.82,2.34Z"/><path d="M456.33,578.74q40.73-2.72,81.45-5.45c0,.42.28,1,.09,1.25s-1.11.39-1.34.77c-.72,1.15-1.26,2.42-1.87,3.64-21.52,1.12-43,2.32-64.56,3.32-4.58.22-9.19-.27-13.79-.43C456.32,580.8,456.32,579.77,456.33,578.74Z"/><path d="M256.88,829.46c-.42,3.53-2.08,6.47-4.46,4.19-2.57-3.32-3.19-18.47-2.1-14.26.54-3.43,1.51-4.76,2.87-6,1.37-.28,3.13-2.22,5.25-5.24,2.48,0,4.92-1.34,7.32-1.56,2.41-3.62,4.78-1.71,7.12-2.5,2.35-.31,4.66-.47,7,2.87,2.3,2.38,4.58,5.16,6.84,2.83,2.9,2.2,5.06,2.19,6.63,5.4,1.56,3.54,2.52,3.71,3,6.89.49,8.68.51,11.11.18,12.47-.32.61-1,4.27-1.88,3.16-2.84,3.75-5.65-2.54-8.44-2.41-2.79-5.25-5.56-1.94-8.34-2.39-.41,5.31-.82,11-1.23,2.57,1.6-5.89,3.21-2.8,4.81,4,1.61,5.16,3.22,7.41,4.83,4-1.46,5.77-2.87,8.39-4.29,6.85-1.42,1-2.87,1.65-4.42-2.49-1.55-1.71-3.2-.06-5-2.36-1.83-2-3.86,0-6.15,7.95-.58,4.26-1.23-2.53-1.94-8.31-.7-3.78-1.46-11.72-2.27-2.34a42.63,42.63,0,0,1-2.53-4.9A55.3,55.3,0,0,1,256.88,829.46Z"/><path d="M377.32,806.08c15.16,0,20,7.41,16.73,20.29-2.05-3.58-4.34-7.61-8-14-6.27,17.29-11.91,24.83-25.7,9.21a10.78,10.78,0,0,0-9.6-3.54c-1.84-1.52-3.75.43-5.65,1.47-1.9,3-3.78,4.3-5.57,3.92-1.8,1.37-3.5,2.08-5,7.12-1.53,3.22-2.89,6.06-4,5.64,2.17-3.09,4.27-4.37,6.3-4.37a13.69,13.69,0,0,0,5.86,2.57c3.75,1.95,7.18-.14,10.24.3,2.52.81,4.59,3,6.17,5.76a28.84,28.84,0,0,1,3.17,9.25c-2.55-1.07-5.1-2.63-7.71-4a21.23,21.23,0,0,0-8.06-2.66c-2.78-2.29-5.69-1.11-8.76-.88-3.08.51-6.34-1.57-9.83-7-1.08-1.51-1.52-.74-1.4-1.49a85.45,85.45,0,0,1,2-11.69c1.19-2.71,2.87-8.36,5-11,2.1-2.48,4.64-3.15,7.53,0,2.45-1.42,4.7-2.59,6.8-3.78,2.09-2.38,4,1.77,5.89-.67a15.19,15.19,0,0,1,10.44,3.3c3.41,2.5,6.9,6.46,10.93,12C376,815.3,376.69,810.43,377.32,806.08Z"/><path d="M582.24,778.73A150,150,0,0,1,565.08,786c-5.81,2.07-11.71,3.8-17.67,5.28-3-.69-6,12.4-9,2-3,12.7-6,15.8-9.05,1.74-3,6.13-6.06-3.82-9.1,1.34-3-2.71-6.09-.54-9.14,1.48a29.88,29.88,0,0,1-9.15,1.79c-3.05.2-6.1.2-9.14.59-11.16,1.42-16.19,2.7-17.52,15.62-1.16,11.3-8.42,22-16.31,31.7,4.52-15.64,8.4-31.51,14.1-46.71,1.15-3.06,9.06-4.32,14.06-5.09,17.82-2.73,35.74-4.89,53.79-10l-8.07-3,49.6-3.75Z"/><path d="M539.55,625.19l46.13-10.06.93,3-13.45,3.78c2.16,7.63,4.13,14.61,6.11,21.59C572.06,623.1,557.87,620.23,539.55,625.19Z"/><path d="M465.48,727l64.09-7.81c.2,1.19.39,2.37.59,3.55-10.39,1.55-20.74,3.46-31.18,4.56-11,1.16-22.13,1.55-33.2,2.28Z"/><path d="M431.79,673.47l64.37-6.58.29,4.25q-32.37,1.13-64.81,2.19Z"/><path d="M533.42,539.81l-49.31,7.35q-.32-3.49-.61-7h50.22Z"/><path d="M366.1,946.11l-13.37-3.67c-.28,1.06-.55,2.13-.83,3.19l-10-12.72,1-1.55,41.84,6.92Z"/><path d="M385.82,961.72c-3.3,2.16-6.93,6.52-9.85,6.09-12.27-1.81-24.32-5-40.15-8.6l10.82-3.65Z"/><path d="M360,66.79l9.76,4.64-19.07,2.81-.12,3.32,11.12,1.73c.18.77.36,1.54.55,2.31l-9.29,2.1c6.15,7.33,12.23,14.57,18.32,21.81l-19.3-10.26c.27,6-2.39,17,1.71,20.85,5.41,5,16.12,4.37,23.95,9.46-8.55-1.53-19-.59-25.12-5.3-5.92-4.56-9.83-14.83-10.12-22.75-.29-8.07,4.9-16.35,8.31-26.33Z"/><path d="M311.9,977.2c15.78.94,31.56,2.34,47.35,2.65,9.87.19,19.78-1.93,29.65-1.75,6.83.13,13.62,2.41,20.44,3.74l-.75,5.47q-48.3-5.12-96.64-10.2A.2.2,0,0,0,311.9,977.2Z"/></g></g></svg>