<svg xmlns="http://www.w3.org/2000/svg" viewBox="0 0 436.29 1695.81"><g id="Layer_2" data-name="Layer 2"><g id="Layer_1-2" data-name="Layer 1"><path d="M0,704.18C4.36,682.74,7.23,660.86,13.54,640,19,621.89,28.41,605,36.06,587.49l5.3,2.43C38,598,34.61,606,30.58,615.65L35.52,614C27.47,664.58,19.22,716.4,11,768.22l3,.94-3.69-17.45L8,751.93v21c25.32,0,50.61.19,75.89-.12,8-.09,15.59-1,15.42,10.37-12.14-14.55-26.7-.29-42.91-6.78,4.16,20.39-6.15,41.39,10.4,52.57,6.72,4.53,26.44,7.52,36.93-5.93,5.17,16.77,14.36,3.59,21.87,3l7-1.12c-.2,2.45-.39,4.78-.37,4.47,21.39,7.68,41.36-2.85,62.87,2.32,17.29,4.15,36.76.2,55.13-1.59,8.79-.85,15.24-22,8.63-29.1L253,804.82c-1-3.8-2-7.76-3.58-14.07l-5.53,8-11.22-5.29c1.19-2,3.07-5,5-8.11l-5.25-4.89q-4.35,10.31-8.71,20.62l-4.78-4.57,3.9-7.3H181.25l3.86-10.65-40.38,9.7c-3.43-8.75-6.53-8.47-19.42,1.78-4-10.77-12.41-7.37-20.1-6.3-2.36-8.81,2.74-9,9.5-9.15,46.27-.78,92.53-2,138.8-2.85,24.67-.43,50.14,3.46,73.8-1.5,23.17-4.86,44.69,5.67,68.72.79,2.43-23.42,4.87-46.83,7.66-73.65,15.69,27.06.09,50.09-1.15,75,2.66-2.1,4.54-2.81,4.72-3.83,7.45-41.81,10.72-83-3.07-124.88-16.3-49.48-46.18-89-77.49-129.7-17.28-22.44-36.74-27.11-58.15-29.83-24.58-3.13-50,.22-75.07,1.61-3.93.21-7.61,5-10.67,7.1-2.27-1.74-4.33-4.7-6.45-4.74-29-.6-54.75,3.65-74,30.55-15.75,22-36.92,40.17-55.74,60.09-.17-.75-1.2-2.67-.65-3.44,22.28-30.73,45.26-61,66.76-92.23,6.55-9.53,12.7-21.75,12.89-32.85q2.48-145.39,2.33-290.84c0-25.49-3.5-51-4.56-76.47-.49-11.55,1.28-23.19,1.57-34.8A140.81,140.81,0,0,0,124,26.87c-1.46-11.44,1.34-20.52,13.06-24.2A63.29,63.29,0,0,1,156,0c43.84.12,87.68.6,131.52.94,18.57.15,25.15,4.25,25.55,23,.87,41-.15,82-.79,123-.51,32.39-1.82,64.76-2.36,97.15q-1.05,63.46-1.37,126.93c-.1,27.34.53,54.69.89,82,.22,16.35,6,29.91,18.48,41.09,46.73,41.73,77.88,94,97,152.84,6.09,18.71,4.69,40.06,5.5,60.26,1.29,32.12,1.62,64.29,2.08,96.45,0,2-2.37,3.95-3.68,6-1.77-7.16-3.51-14.36-6.48-26.59C412.78,799.48,404.87,813,397,826.42l2.42,1.36,7.51-6v64.45l4.52,2c3.2-5.1,8.43-9.9,9.21-15.35,2.58-18.07,3.43-36.38,5.27-54.57.32-3.13,2.26-6.09,3.45-9.13,1.22,22.33,3.46,44.67,3.49,67,.11,120.15-.87,240.3-.39,360.44.29,71.24,3.36,142.46,3.72,213.69.33,63.29.13,126.65-2.7,189.84-1.69,37.71-17.16,55.7-57.27,55.67-99.73-.08-199.45.06-299.17-.51-14.31-.08-28.89-2.4-42.82-5.81-17.74-4.35-28.83-19.45-28.8-37.84.18-94.88,1.35-189.76.88-284.64-.38-77.76-2.53-155.52-4-233.28-.11-5.8-1.46-11.58-2.24-17.37v-51.52c.63-6.35,1.74-12.69,1.8-19,.46-45.58.7-91.17,1-136.76,0-4.93,0-9.87,0-14.8L8.06,894c.67,13.71,1.27,27.42,2,41.13.72,13.41,1.58,26.81,2.38,40.22-2.19,12.29-10.07,25,2.93,36.1-6.59,6.16-10.4,12.61-2.07,20.29q-2.22,9-4.46,18l6,.33c-1.35,8.12-14,15.27-2.09,24.52q0,8,0,16-3.09,9.87-6.19,19.74l2.65.91,24.21-25.82L7,1126.52l4.27,2.66c5.79-6.54,11-13.68,17.48-19.49,8-7.17,10-14.67,4.77-24,.41-4.79.81-9.59,1.37-16.19l-9.31,5.61q4.68-10.71,9.38-21.42l-3.31-1.46-6.26,3.92c2.28-4.59,4.92-9.06,6.47-13.89.25-.77-4.34-3.11-6.69-4.72,1-3.45,3-7,2.71-10.31-.2-2.11-3.85-3.88-6-5.8,2-4.67,4.64-9.2,5.58-14.07.39-2-2.91-4.74-4.53-7.15l13-31.12-2.71-1.19-7.14,10.59-2.13-1L37.21,942.6l-3.36-1-9.8,13.75L37,917l-2.87-1-5.43,9.77a478.15,478.15,0,0,0,5.1-64.66c.16-11.93-.79-22.64,8-33.43,6.81-8.33,8.4-20.93,11.77-30.17l-13.67,7.08c2.48-7.46,3.67-11,5-15L29,791.25,26.88,788l12.23-4.8-3.31-3.56L7.6,781.91v92.7l-2.89.25L0,862Zm152.7,341.09-4.49,3.74-4.28-.52-1,0-11.43,11.44a6.28,6.28,0,0,1-1.23,1.13q-7.08,9.84-14.17,19.69l-.12,8.59a26.14,26.14,0,0,0,2.36,1.2c.83,4.11,1.67,8.21,2.61,12.84l82.34-88.24-2.21-2.39-46.6,35.35Zm27.77,13.36-3.23,3.2-3.23,3.24c-1,1.08-2.1,2.17-3.16,3.25l-3.17,3.25q-1.77,1.58-3.52,3.17a1.85,1.85,0,0,1-2.41,0l-6.93,7.14c-1,2.86-2,5.71-3,8.57-2.9,3.76-5.12,9.76-8.81,10.88-16.89,5.09-15.78,20.06-21.26,33.29l13.54-5c.16,1.41.33,2.82.49,4.24l-2.71,9.46-1.29,4.22L125.47,1162l2.7,2.63c.71,3.76,1.42,7.52,2,10.45l21.2-9.79.24,3.26,6.13,2.57c1,0,2,0,3,0l4,13.87c14.95-18.83,28-35.08,40.7-51.61,1.08-1.41-.27-4.69-.5-7.1.37-2.25.73-4.51,1.1-6.76l3.64-2.84,6.09-9.9-.12-3.67,3.69-10.58-.24-4.87,12.05-17.31-9.22,4.06c-.88,0-1.76-.08-2.65-.14-.17-1.21-.35-2.43-.52-3.65l9.94-18.71,6.33-13.06a11.93,11.93,0,0,1,.13-3.1l-.3-3.8-3.17-5.81c-.9,0-1.81,0-2.72,0l-7,.3c-.24-.88-.48-1.76-.73-2.64l-2.09,2.59-3.36-.15-6.35,0-25.65,29.16ZM86.68,1276.69l-.76.5c-.78.83-1.55,1.66-2.32,2.5l9.37.76q1.31.16,2.58.36l4.58-3.69-.52.6,6.73-10.29-.21-3.28-10,.25-2.77,3.12-.17.09-1.8.09-7.06-29.9L79,1236.59l8-5.28c7.27,16.7,23,25.08,42,22.41-8.59-24.55-8.59-24.55,8.61-46.78,9.32-12,7.41-16.34-8.46-19-24.71-4.11-39.91,10.81-42.07,41.27l-8.45,1.45-4.18-3Q88.17,1204.36,102,1181c.77-1.32.94-3,1.58-4.42,7.43-16.63,4.51-32.91,1.51-50.33-2.54-14.76,2.9-30.72,3.29-46.19.45-18.46-1.13-37-1-55.45.07-6.23,2.45-12.59,4.87-18.43.3-.73,7.36,1.59,11.35,2.08a56.13,56.13,0,0,0,9.53.11c41.3-2,82.79-2.47,123.81-7,17.3-1.92,33.6,3.31,50.21.89,6.51-1,17.46,3.29,18.1-8.6,1.06-19.91,2.28-40.36-19.34-56.27-5.05,13.41-9.66,25.61-14.26,37.82,1.64-10.52,8.9-27.91-15-23.76-2.53.44-6.51-4.82-9.08-8-3.36-4.17-6-8.92-10.47-15.78-.82,5.44-.68,7.65-1.51,9.41-2.1,4.49-4.62,8.78-7,13.15-2.24-4.41-6.24-8.76-6.4-13.24-.55-16,.18-32.06.53-48.1,0-.92.92-1.83,1.67-3.22H257c.84,4.68,1.49,8.37,2.38,13.32,12.8-15.41,12.8-15.41,25.78-11-23.21,19.61-10.92,38.37.31,58.09,8.16-25.93,16-50.9,24.41-77.61H243.51c5.06-10.1,7.91-15.77,10.75-21.45l-4.58-2c-4.31,9.37-8.63,18.74-13.46,29.23C221.53,853,201.68,868,184.58,865c-5.77-1-12.25,1.94-18.41,3.08l-1.33-3.93,20-24.35-3.78-3.53-23.71,15.93c-.8,0-1.6,0-2.39,0l-3.49,3.46c-.59,2.18-1.17,4.36-1.76,6.54L103,868.54l-8.93-31.37L69.14,842l-2.33-8.66C62.53,846.88,61.11,856,61,865.18c-.27,20,0,40.05.31,60.08.13,9.65,1,19.3,1.1,29,.39,28.67,1.29,57.36.56,86-.35,13.66,7.45,30.32-7.23,40.31-13.19,9-13.88,19.54-9.93,32.6-.35,1.95-.69,3.9-1,5.85l-11.42-9.63C26,1118,17.29,1126,11.75,1135.73c-2.67,4.7.56,12.77,1.11,19.31l1.08,18.86q-.51,9.87-1,19.74,0,9.67,0,19.35c-1,5.5-2.67,11-2.73,16.51,0,1.87,3.95,3.79,6.1,5.69-7.36,16.36-10.15,32.91-2,49.91V1372l16.07-6.71L32,1381.43l27.21-23.52c.84,7,1.91,15.88,3,24.52,14.25,1.16,26.44,2.9,38.64,3,12.83,0,26.75,1.56,35-12.17-.56,3.19-1.12,6.37-2.1,11.9l18-5.29c13,5.47,29.76,3.1,40.65-6.5-.55,3.92-1,6.87-1.51,10.66l30.52-8.73,5.27,2.6,3.91,6.17c2.67-1.76,5.87-3.07,7.82-5.43,1.42-1.71.34-6.11,1.83-7.07,13.77-8.89,27.86-17.3,42-25.93L276,1368.67c5.07-1.39,7.33-3.72,8.28-6.49.52-1.55-1.14-3.84-1.83-5.8,20.87-5,30.51-15.85,27.16-24.48l-28.07,13.91,43.08-43.18-5.29-5.45-39.21,31-1.49-1.84,32.86-31.83q-2.07-2.64-4.15-5.26c-4.27,2.71-8.84,5.06-12.74,8.23-6,4.89-11.59,10.35-17.35,15.57q3.48-8.77,7-17.55l-3.83-1.32-23,20.57,10.21-20.58-27.08-3.42L227.8,1302c.42-4.2.85-8.4,1.57-15.48l-11.27,8.65c-1.3-2.42-2.88-7.06-3.85-6.93-10.43,1.35-20.76,3.46-31.11,5.35-1.14-1.65-2.88-4.89-3.32-4.72-6.43,2.46-12.68,5.37-19,8.17.14-10.69-4.77-6.94-9.62-3.36-4.09-.79-9.68-3.68-12-2-9,6.5-17,14.44-27,23.25q.89-12.23,1.75-24.18H60.38v51.87l-18.6,9c4.31-9.33,8.82-18.58,12.85-28,1.45-3.41,1.75-7.32,2.57-11H45.11c2.72-3.41,5.6-6.29,7.57-9.69s3-7.31,5-12.44l-27.3-3.62,10.09-23.09-3.27-1.65-8.46,6.24,11.78-27.31-3.42-1.67L27.6,1254c5.44-16.18,9.36-27.85,13.29-39.52l-3.75-.66L26,1222.26l-.18-25.41,3.51-16.65-4.09-.83-3.93,6.2,18.33-34.16-3.15-1.08-11.87,8.76c6.3-8.7,11.16-19.23,19.29-25.59,8.74-6.84,11.82-11.68,4-20.35l14.77-24.09,6.12,2.62c-2.82,64.31-5.63,128.62-8.43,192.56,11.45-4,19-6.65,26.6-9.31A17.31,17.31,0,0,1,86.68,1276.69Zm322.06,80.56c.43,2.28.87,4.56,2.2,11.48,3.73-8.48,5.68-12.9,7.63-17.32l2.88-11.12-.22.32q-1.43-2-2.87-3.91l-9.67,18.92C408.71,1356.16,408.72,1356.7,408.74,1357.25Zm3.42-176.5L398.94,1212c9.35-6,17.79-11.56,20.89-19.22,3.22-8,1.3-18.07,1.62-27.23q1.76-7.8,3.52-15.58l-5-1.89q-10.89,21.47-21.79,42.91l2.81,1.44Zm-15.93,154.51c.86,2.14,1.91,6.19,2.57,6.13,11.43-1,29.15-27.58,25.89-38.67-.15-.51-3.89,0-6,.11l7.77-18.68-8.44,3.95c12.54-26.61,3.4-54.1,4.49-81.33a104.24,104.24,0,0,0-13,23.55,116,116,0,0,0-6.29,21.15c-2.31,12.3-.89,26.26-6.37,36.73s-7.21,18.27-.8,27.8Q396.15,1325.63,396.23,1335.26Zm15.94-244.68c-1.35,13.24-2.69,26.48-4,39.85,4.06,0,5.43.43,6.08-.07,7.28-5.58,13.4-43.28,8.23-51.1-.1-.16-2.58,1.24-3.95,1.91q3.18-41.79,6.37-83.57l-6.4-.07q3.42-18.76,6.82-37.52l-6.18-1.77c-3,6.74-7.7,13.31-8.36,20.27-.79,8.24,2,16.81,3.18,25.24-1.71,5.59-2.62,11.6-5.27,16.7-9.65,18.48-12.64,41.23-5.38,61.75l3.48-36,2.25.45ZM154.67,45.46l16-14.76-32.1-6.21c.31-1.8.62-3.61.92-5.41,28.07,0,56.13.11,84.19,0,13.52-.09,28.63,6.11,41-10.86-39.11,0-75.87,0-112.63.06-3.71,0-8.44-.42-10.88,1.57-4,3.29-8.29,8.13-9,12.82-.34,2.29,6.9,6.29,11.24,8.46,3.07,1.53,7,1.29,9.59,1.68l1.78,12.75c-3.45-.17-7.14-1.17-10.3-.28-4.3,1.21-11.57,3.64-11.72,5.94-1,15.72-.55,31.54-.55,47.33l1.25,0,2.82-11,3.44.7c-2.91,18.22-5.83,36.44-8.76,54.8l31.8,8.17L147,165.21c-.77-1.17-2.43-3.66-4.77-7.17-7.9,13.91,22.94,15.62,7.25,29.92-16.77-4.27-17.57-3.6-16.54,13,.29,4.65-1,9.61.29,13.92s3.94,9.79,7.58,11.67c2.14,1.11,7.37-3.75,12.91-6.9.71,2.76,1.64,6.44,2.78,10.89H135.77c-.8,1.9-1.76,3.28-1.93,4.75a128.23,128.23,0,0,0-.91,12.83c-.15,12.4-.26,12,11.81,7,2.63-1.08,7,2,10.56,3.22-.42,1.36-.85,2.73-1.28,4.09l-22.23,1.06c.54,7.78.94,13.55,1.43,20.69l15.6-9.24c.83,1.85,1.65,3.71,2.48,5.57l-22.91,8.55,21.19,12.63c-.42,3.81-1,9.45-1.56,14.23l20.92,8.65c2.37-2.05,5.35-6.77,8-6.6,15.31.93,17.91.39,27.11-6.19,1.95-1.39,6.18-.26,9.14.54,12.71,3.44,13.77,12.33,11.18,23.45-.49,2.07,2.63,7.11,4.12,7.12,4.89,0,9.79-1.61,15.85-2.84.32-3.87.84-10.19,1.34-16.25,1.69,6.65,3.41,13.44,5.13,20.22l8-1.38V195.7l-4.89-.08v42.1l-2.57-.05q-2.28-23.49-4.57-47l-2.66.22q-1.16,6.87-2.32,13.74l-2.43-.19c-1-4.95-2-9.9-3.45-17l-53.66,13L193.69,207c-13.61-1.88-15.28-23-4.73-60.18l36.18-4-.29-6.19H170.92c-.06-3-.13-6-.19-9.06l57.13-3.68c1.43,8.25,2.43,14,3.42,19.75L235,143V126.49l9.54-3.66V78.53c-14,10.59-.05,28.24-10.35,39.7-13.12-12.59,2-25.65-1.2-38.12L221.48,78.4c-.7,12.54-1.37,24.43-2,36.32l-3.86-.15V79.06l-49.21-2.7.09-3.79L254.55,65l-.39-4.1H146.42c0-1.59-.07-3.17-.11-4.75,28-2.14,56-4.41,84.07-6.34,10.16-.7,20.69-.11,22.48-16.81Zm-70.88,1596q.09,8.37.17,16.72c-.36,3.45-.73,6.89-1.09,10.34-8.73-1.88-17.67-3.17-26-6.1-1.77-.62-2.86-7.68-1.78-11,2-6.22,5.87-11.85,9-17.72l-3-1.8c-7.39,8.19-14.78,16.37-22.67,25.13l5.79,15.86-10.09.68c-.31,1.71-.63,3.43-.94,5.14,8.65,2.46,17.33,7.11,26,7,85.65-.71,171.29-2.13,256.93-3.52,24.12-.39,48.25-.82,72.33-2.14,20.54-1.13,34-12.74,34.93-25.59-8.58,0-18.21,2.33-25.8-.61-8.77-3.38-15.75-11.4-23.5-17.4l-2.77,2,18.09,23.83c-27,9.26-47.32-.44-57.14-25.41-10.85-27.57-22.85-54.68-34.34-82l-3.66,1.58,42.82,103.83c-11.24.9-15.36-4.45-18.74-14.85-9.39-28.92-19.56-57.69-31.46-85.66-11.21-26.37-32-40.45-61.72-39.77-7.8.17-15.65-1.82-23.48-2.82l.45-4c13.14,0,26.53,1.68,39.36-.3,42.2-6.52,55.26-.19,75.47,37.2,14.89,27.54,30.93,54.47,46.45,81.67l4.73-2.22c-1.48-4.6-2.28-9.57-4.56-13.73-12.5-22.85-25.36-45.51-38.09-68.23l3.22-3.09,37.23,61.48v-208.5l-4.38-.08v44.66H359c-1.74-15.13-3.48-30.25-5.3-46-42.66,0-83.12,0-123.58,0-8.88,0-17.76,1-26.62.84-51.93-1-103.86-2.44-155.79-3.25-15.7-.24-25.39,9.83-25.63,25.26-.4,25.72-2,51.53-.43,77.14,2.86,47.64,7.58,95.17,11.67,142.73.23,2.68,1.79,5.25,4.59,13,9.66-18.39,17.1-32.57,22.8-43.43l13.92,41.34Zm69.52-1176c1.09-4.45,2.07-8.46,2.89-11.83,1.94,6.58,4,13.57,6,20.14L188,464.3V418l3.6,0v48.79c21-1.37,40.24-1.53,59.07-4.5,6.08-1,12.36-8.47,16-14.51,3.26-5.38,3.32-12.83,4.29-19.44,1.41-9.62,2.38-19.3,3.54-28.95L269,396.24c-1.29,2.42-2.58,4.85-1.77,3.32,1.57-11.74,3.79-28.36,6.21-46.51-4.7,1.22-5.63,1.3-5.65,1.48-.58,5.59-1.07,11.18-1.57,16.77-8.7-18.76-8.7-18.72-29-18.8-2.63,0-5.28-1-7.89-.93-15,.56-29.95,1.33-44.92,2l.13,3.56,17.39,3.7-20.32,29.83c-4-40.33-4-40.33-20.83-37.23V374.9l-2.8.42L154.55,352l-5.7-.18c-25.16,23.42-14.63,55.1-16,83.77C132.24,449.1,137.7,460.74,153.31,465.43ZM378.22,1616.08c-.66,1.25-3.53,4.29-2.88,5.87,2,4.83,4.59,9.93,8.37,13.37,5.17,4.71,11.63,8,17.55,11.9,3.62-6.39,10.29-12.73,10.39-19.17,1.09-71.21,1.27-142.42,1.27-213.64,0-5.66-2.43-15.76-5-16.21-10.76-1.86-22-.78-33.06-.78V1409c1.51-3.78,2.26-5.64,4.45-11.14v53.47l-1.49.08q-.6-13.47-1.21-27l-2.31.13v72.61l11.22,3.73c-3.94,5.57-11.67,12-10.56,15.84,2.45,8.64-.54,15.67-1.16,23.5-1.61,20.29-2.19,40.69-2.18,61C371.58,1605.91,375.6,1610.53,378.22,1616.08ZM170.55,1258.55c20-.17,32.68-13.16,32.6-33.36-.07-18.38-14.55-32.67-32.63-32.22-18.53.46-36.27,18.3-35.75,36C135.23,1244.54,152.34,1258.7,170.55,1258.55ZM354.2,1000.83l3.87,4.34c3-3.1,8.48-6.09,8.64-9.34.76-15.37.36-30.82-.17-46.22-.75-21.91-1.45-43.84-3.17-65.69-1.14-14.45-3.37-15.72-15.13-13.73-.43,6.5-.86,13.08-1.52,23.06-1.49-9-2.41-14.54-3.33-20.1l-2.86.37V904h-2.14q-.78-6.33-1.54-12.65c2.63,20.87-8.18,42.45,5.5,63.13,4.91,7.41.79,20.8.79,31.46-.72-3.19-.51-6.41-.77-9.58-.29-3.55-1-7.06-2-13.84-5.45,30.39-3.16,38.6,9.62,38.64q.88-8.13,1.77-16.32l1.46.12Q353.69,992.9,354.2,1000.83ZM281.15,322.72l24.53-11.36c-2.2-51.9.17-104-7.39-155.8,3.17,11.37-25.43,19.92-4.33,32.13l-8.06,6.42,5.7,3.51C275.89,239.39,289.9,281.1,281.15,322.72Zm-.93,136.36,4.73,2.84c4.37-8,11.62-15.76,12.56-24.18,2.88-25.85,3.58-52,4.35-78,.07-2.39-6.65-7.63-8.13-7-6.08,2.75-11.35,7.28-16.92,11.16,6.19,7.4,1.74,15.75,1.81,23.58.14,16.55-.86,33.1-.75,49.65,0,1.88,4.15,3.73,6.38,5.6l.51-1.53c.19.27.38.54,1.29,1.87C284.27,448,282.24,453.54,280.22,459.08Zm-46.57,792.73c1.65,1.9,3.29,3.8,4.94,5.69,6.18-4.15,13.47-7.31,18.29-12.68,9.07-10.09,8.93-22.78-.3-31.77-6.63-6.47-17-10.39-26.34-12.48-12.31-2.76-20.9,1-17.25,17a38.77,38.77,0,0,1-1,19c-4.79,15.81,4.88,18.62,18.73,21.83-1.32-8-2.34-14.12-3.46-20.92l15.91-5.7-7.39-13.7c.72-1.1,1.43-2.2,2.14-3.3,4.21,2.25,12.12,4.76,12,6.68a58.94,58.94,0,0,1-6.16,21.12C241.85,1246.4,237.1,1248.79,233.65,1251.81Zm47.32,2.67v-16.13l23.93,4.22c6.7-10.89,4.83-32.29-5.61-40-11-8.12-21.69-5.52-31.13,4.4,2.24,17.38,4,31.14,6,46.68ZM278,10.34,295.2,20.1c-4.72,7.37-9.13,14.28-12.64,19.75l9.71.5L285.12,63.8c7.57,1,16,2.5,10.79,16,5.09-5,9.13-9.84,9.56-15,1-11.24.36-22.65-.08-34C304.53,8.86,303.12,7.78,278,10.34ZM138.21,303.75l-5.48.65c1.16,14.07,2.31,28.14,3.23,39.25h60c-2.48-5.13-3.32-8.45-4.2-8.46-9.46-.12-19.43-1.54-28.27.93-15.83,4.44-23.22-.31-22.67-16.62C141,314.28,139.15,309,138.21,303.75ZM305.59,144.58v-61H289l6.58,20c1.41-3.81,2.87-7.71,4.33-11.62l2.23.72c-1.24,8.46-2.48,16.92-3.66,24.93l-10.18-2.5L287,117.64l12.64,11.77-9.06,10.86ZM199.43,171.5c-.18,1.41-.35,2.82-.53,4.23h58.15l.16-4.23ZM332.06,1328.94l-27.56,25.51C324.19,1351.73,333.66,1341.83,332.06,1328.94ZM53.79,948.43,43.18,952.8c3.66-7.08,6-11.17,7.93-15.45s3.39-8.81,6.11-16c-18,14.52-21,30.31-9.91,42.11ZM327,872.2l-5.64,0q1.89,25.07,3.8,50.13l4.36-.37Zm61.19,32.4c-.41.26-1.19.58-1.16.76a18.18,18.18,0,0,0,.8,2.57c.39-.29,1.12-.62,1.09-.86A13.14,13.14,0,0,0,388.16,904.6Z"/><path d="M102.8,1641c-3.29,9-2.82,22.13-18.84,17.16q-.09-8.36-.17-16.72c2-11.79,3.07-23.83,6.29-35.27,1.25-4.44,7.23-7.56,10.71-10.94,1.84-4.86,3.73-9.87,5.61-14.87l-.35-.43c-2,10-3.86,20-6.21,29.93-3.32,14-7,27.9-10.58,41.84l4.48,1c1.55-5.33,3.09-10.66,4.47-15.41l5,4.13Z"/><path d="M249.24,1357.7l-22.7,20.15-5.27-2.6q3.71-10.82,7.4-21.64l4.88,1.59v7.86Z"/><path d="M299.62,1505.82l28.92,38.78-3.22,3.09-26.42-41Z"/><path d="M225.67,1042.3l6.35-6.15-.41-.44,3.36,3.13-6.33,13.06-3.31-.16.31.4,0-6.83-.36.63.11-3.94Z"/><path d="M161,1084.38l-6.17-2.45,6.93-7.14,2.79,2.7-1,6.49.2-.19A5.62,5.62,0,0,0,161,1084.38Z"/><path d="M93,1280.45l.54-6.18,6.56-3.62c-.16,2.36-.31,4.71-.46,7.07l.52-.6-4.58,3.69Q94.28,1280.62,93,1280.45Z"/><path d="M212.24,1091l6.8-3.36.24,4.87-6.87,4.3.35.46,0-6.9Z"/><path d="M138.77,1145l-7,2.58,1.29-4.22,5.46-4.26-.3-.45,0,7Z"/><path d="M131.48,1059.9l3.87-1.27-.36-.48c0,2.33,0,4.66,0,7l.51-.55-5.29-3.56A6.28,6.28,0,0,0,131.48,1059.9Z"/><path d="M209.4,1032.74c0-2.19,0-4.39,0-6.58l6.35,0c-.08,1.13-.15,2.25-.23,3.38l.43-.48-3.7,3.72.43-.41-3.56.07Z"/><path d="M92.83,1273.58l-1.57-.18-1.25,1q.67-3.35,1.34-6.68l1.8-.09C93,1269.6,92.94,1271.59,92.83,1273.58Z"/><path d="M138.72,1129l-3,5c-.16-1.41-.33-2.82-.49-4.23Z"/><path d="M412.41,1354.57l-3.67,2.68c0-.55,0-1.09-.05-1.63Z"/><path d="M232,1036.15l2.78-4.21.3,3.8-3.49,0Z"/><path d="M215.71,1106.77l-3.49.15,3.37-3.82Z"/><path d="M157.37,852.18l-2.65,3.21c.08-1.07.17-2.15.26-3.22C155.77,852.18,156.57,852.19,157.37,852.18Z"/><path d="M116,1089.31l3.37-2.15c-.34,1.12-.67,2.24-1,3.35A26.14,26.14,0,0,1,116,1089.31Z"/><path d="M85.92,1277.19c-.78.83-1.55,1.67-2.32,2.5C84.37,1278.85,85.14,1278,85.92,1277.19Z"/><path d="M90.37,1274l-3.69,2.67a17.31,17.31,0,0,0,.24-1.76Z"/><path d="M221.87,1074.4l-3,3.1.32.43a5.8,5.8,0,0,1-.59-3l.62-.63C220.11,1074.32,221,1074.37,221.87,1074.4Z"/><path d="M106.34,1267.43l-3.59.56c1.13-1.28,2.26-2.55,3.38-3.83Z"/><path d="M96.09,1264.4l-2.77,3.12Z"/><path d="M215.8,1074.55l2.9-3.94c.17,1.22.35,2.44.52,3.65,0,0-.61.63-.61.63l-3.05-.59Z"/><path d="M125.47,1162l3.54-.74-.84,3.37Z"/><path d="M154.81,1164.44l-3.24,4.07c-.07-1.09-.15-2.17-.23-3.26Z"/><path d="M157.71,1171.08l3.53-3.5-.51,3.53C159.72,1171.11,158.71,1171.1,157.71,1171.08Z"/><path d="M143.93,1048.49l.75,3.73.47-.47-3.74-.07.5.3,1-3.52Z"/><path d="M228.41,1029.72c.17-1.2.33-2.4.5-3.61.91.05,1.82.06,2.72,0Z"/><path d="M154.46,1048.07l-3.43,1,1.67-3.77Z"/><path d="M132.1,1651.06c57.92-1.29,115.67.44,175.87,7.81-14.41,11.44-173.7,14.15-190.85,4.52l15.58-12.88Z"/><path d="M106.4,1580.38c12.28-20.85,23.62-42.35,37.47-62.11,3.62-5.16,15-4.87,22.26-6.93-6.25,12.15-12,21.63-16.17,31.74-11.67,28-22.38,56.34-34.31,84.19-2.33,5.42-8.47,9.21-12.85,13.75l.44.47c2.77-7.4,7-14.62,8-22.25,1.44-12,.78-24.18.52-36.28,0-1-3.69-2-5.66-3Z"/><path d="M298.9,1506.67c-3.49-1.15-7.74-4.2-10.37-3.16-31,12.27-62.47,3.72-93.74,2.61a52.13,52.13,0,0,1-8-.54c-32.59-6.42-54.64,6.64-68,36.32a25.18,25.18,0,0,1-10.59,11.7c.36-5.16-.5-10.79,1.28-15.39,10.14-26.12,26.47-41.93,57.69-40.14,38.45,2.22,77.11.82,115.66,1.66,5.64.12,11.2,4,16.8,6.09Z"/><path d="M301.61,1648.53c-3.55-3.57-8.89-6.53-10.36-10.82Q275,1590.4,261.1,1542.18c25.7,29.51,27.48,69.42,43.92,103Z"/><path d="M165.74,1528.35c28.19-1.6,56.25-2,83.38,6.6C220.74,1538.79,192.85,1537.77,165.74,1528.35Z"/><path d="M132.7,1650.51c-5.49-.09-13.86,2.42-10.48-8,9.91-30.44,20.42-60.69,30.88-91,.54-1.55,2.81-2.51,5.37-4.68-9.08,35.85-17.73,70-26.37,104.17Z"/><path d="M190.42,920.42c-.27,5.88,1,12.41-1.22,17.45-2.39,5.52-7.78,13.3-12.18,13.52-6.5.31-18.28-4.23-19.07-8.37-3.1-16.27-3.68-33.22-3.09-49.84.15-4.26,8.15-11.7,12.31-11.54,6.41.25,15.5,4.26,18.25,9.44,4.5,8.48,4.82,19.17,6.91,28.93ZM172.64,898.5l-3.59.07v39.9l3.59-.09Z"/><path d="M197.57,888.47c24-9.94,39-1,40.14,24.17.3,6.37.56,12.9-.48,19.14-2.4,14.44-23,24.12-35.8,16.85-2.08-1.18-3.64-5.09-3.69-7.77C197.42,923.41,197.58,905.94,197.57,888.47ZM213,899.59c0,11.79-.24,21.25.17,30.68.1,2.14,2,4.76,3.85,6,1.08.75,4.29-.12,5.53-1.31C228.56,929.18,223.86,906,213,899.59Z"/><path d="M100.27,882.41c13.2-1.73,13.2-1.73,26.17,31.54,2.52-10.17,5-20.34,7.82-31.59h12.3c1,1.84,2,2.91,1.83,3.67-4.72,19.13-9.36,38.29-14.69,57.25-.71,2.55-4.84,5.22-7.74,5.7-2,.34-6.1-2.48-6.8-4.68C112.71,924.28,106.8,904.09,100.27,882.41Z"/><path d="M151.22,855.31A2.17,2.17,0,0,0,154,856l-4.2,6.24C150.29,859.94,150.76,857.63,151.22,855.31Z"/><path d="M167.18,124.82c-8.28,5.94-13.55,10.63-19.65,13.66-2.52,1.26-7.15-.41-10.16-2-1.66-.87-3.31-5.69-2.6-6.4,2.29-2.33,5.55-4.7,8.64-5C150.41,124.33,157.52,124.82,167.18,124.82Z"/><path d="M174.35,120.33c.55-11.25-9.51-24,8.53-34.87-1.07,13.08-2,24.23-2.88,35.38Z"/><path d="M122.5,1321.76l12.94.62c5.77-.69,11.77-.63,17.22-2.32,4.51-1.41,8.38-4.88,12.53-7.44-7.16,14.54-4.71,26.8,5.68,28.36q-4.77,5.14-9.53,10.28c-6.18-14.42-19.68-3.1-28.74-8.08-4.15-2.27-13.31-2.31-13.41-3.82C118.79,1333.59,121.16,1327.64,122.5,1321.76Z"/><path d="M60.69,1331.33l9.45-11c3.26,3.27,9.37,6.8,9.11,9.77-.39,4.35-5.32,8.31-8.31,12.44Z"/><path d="M35.42,1354.94l-4.39.58-.33-3.13,11.44-1Z"/><path d="M357.76,893.34v76.51l-2,.07V893.23Z"/><path d="M174.19,1142.29l9.49-12.83-.34-.4q0,3.46,0,6.93l.52-.56-3.83,3.76.58-.59-3.81,3.79.54-.53-3.66,0Z"/><path d="M138.26,1152.14l.51-7.13-.55.63,10-6.62-.36-.36Z"/><path d="M189.93,1113.27c.08-2.26.16-4.53.23-6.79l-.39.43,3.64-3.61-.41.38,3.72-.45-.57,6.93.5-.53-3.76,3.7.49-.58Z"/><path d="M167.08,1116l-1,6.27-5.23,3.55.35.42c0-2.29,0-4.57,0-6.86l-.43.43,6.84-3.31Z"/><path d="M161.17,1161.07l-3.6.61,3.55-6.53-.31-.35c0,2.3-.05,4.6-.07,6.9Z"/><path d="M186.82,1123l3.39-.26-3.66,3.09.51.38Q187,1124.57,186.82,1123Z"/><path d="M160.86,1125.84l-3.23,3.23.33.36,3.25-3.17Z"/><path d="M183.68,1129.46l3.38-3.28-.51-.38-3.21,3.26Z"/><path d="M157.63,1129.07l-3.25,3.19.36.39,3.22-3.22Z"/><path d="M154.38,1132.26l-3.23,3.23.36.37,3.23-3.21Z"/><path d="M151.15,1135.49l-3.26,3.17.36.36,3.26-3.16Z"/><path d="M185.13,1106.85l4.94-3.26-.26-.27c0,1.2,0,2.39,0,3.59l.39-.43Z"/><path d="M170.93,1145.54l3.26-3.25-.52-.41-3.24,3.26Z"/><path d="M167.57,1148.71l3.35-3.17-.49-.4-3.14,3.29Z"/><path d="M164.26,1151.83l3.31-3.12-.28-.28-3.15,3.29Z"/><path d="M135,1155.26l3.76-3.72Z"/><path d="M161.12,1155.15c1-1.11,2.09-2.22,3.14-3.32l-.11-.11-3.34,3.08Z"/><path d="M131.81,1158.45l3.69-3.66Z"/><path d="M128.53,1161.69l3.7-3.68Z"/><path d="M158,1161.25l-3.71,3.7Z"/><path d="M125.39,1081.21q.27-3.49.52-7l-.59.54,3.74-3.66-.61-.71,7-2.66Z"/><path d="M144.68,1052.22l3.69-.53-6.81,9.74.36.44c0-2.31,0-4.63,0-6.94l-.48.54,3.72-3.72Z"/><path d="M118.93,1087.58l3.65-3.65Z"/><path d="M122.14,1084.39l3.68-3.65Z"/><path d="M135,1068.33c.19-1.24.39-2.49.59-3.74l-.51.55,3.61-.08-.4-.36Z"/><path d="M141.56,1061.43l-3.32,3.27.4.36,3.28-3.19Z"/><path d="M147.9,1048.53l3.72,0-3.73,3.73C147.89,1051,147.9,1049.76,147.9,1048.53Z"/><path d="M151.2,1109.44l13.18-9.24c0,2.27.05,4.55.08,6.83l-4.32,2.11q-1.3,2.11-2.6,4.23l.44-.61-6.82,4Q151.19,1113.07,151.2,1109.44Z"/><path d="M145.2,1122.5l-3.84,3.81Z"/><path d="M142,1125.71l-3.82,3.81Z"/><path d="M148.41,1119.32l-3.81,3.79Z"/><path d="M151.64,1116.14l-3.79,3.76Z"/><path d="M157.82,1087.37l3.48-3.41Z"/><path d="M189.71,1132.21c-.2,2.13-.4,4.25-.61,6.38L177,1148.41l.32.34.06-6.89-.54.53,3.81-3.79-.58.59,3.83-3.76-.52.57,6.8-3.39Z"/><path d="M160.72,1168.21l.45-7.14-.43.63,10-6.58-.37-.38Z"/><path d="M177,1148.41l-3.21,3.25.26.26,3.27-3.17Z"/><path d="M173.74,1151.66l-3.32,3.08.37.38,3.21-3.2Z"/><path d="M196.6,1097.21c.15-2,.29-4,.44-6.08l12.26-10-.36-.35,3.69,3.65-.37-.37q0,3.47,0,6.94l.5-.63-3.25.19c-1.13-.15-2.26-.33-3.39-.5l-3.32,4q-1.5,1.64-3,3.26l-3.52-.48Z"/><path d="M195.6,1089.88,183.47,1100l.32.45.06-6.82-.57.41,3.76-3.73-.5.54,10-6.59-.41-.4C196,1085.89,195.78,1087.89,195.6,1089.88Z"/><path d="M212.13,1064.53q-3.07,4.9-6.16,9.81l.33.39q0-3.48,0-7l-.54.58,3.82-3.77-.43.62,3.52-.15Z"/><path d="M199.42,1080.75l-3.27,3.15.41.4,3.24-3.19Z"/><path d="M209.3,1081.14l3.32-3.3-.28-.3v3.55l.34-.34-3.74,0Z"/><path d="M202.67,1077.59l-3.25,3.16.38.36,3.25-3.19Z"/><path d="M212.62,1077.84l3.18-3.29-.24-.25c0,1.19,0,2.38,0,3.57l.33-.32h-3.53Z"/><path d="M206,1074.34l-3.29,3.25.37.33,3.25-3.19Z"/><path d="M215.4,1061.4l-3.26,3.13.55.51,3.23-3.23Z"/><path d="M218.62,1058.31l-3.22,3.09.52.41,3.22-3.2Z"/><path d="M221.92,1055.05l-3.3,3.25.52.31,3.27-3.23Z"/><path d="M225.33,1051.74l-3.41,3.31.49.33,3.23-3.24Z"/><path d="M202.72,1058.91l.45-7.3-.62.61,3.8-3.77-.56.5,3.72,0-.59-.56c0,2.34,0,4.69,0,7l.59-.49-3.76,3.71.58-.5Z"/><path d="M222,1033l3.72-.58-3.72,3.24.4.42.09-3.63Z"/><path d="M222,1035.61l-3.23,3.18.43.45.09-3.6-.54.5,3.65-.11Z"/><path d="M218.72,1038.79l-3.28,3.19.46.5,3.25-3.24Z"/><path d="M225.07,1032.93l3.86-3.78Z"/><path d="M215.44,1042l-3.21,3.24.45.49,3.22-3.23Z"/><path d="M208.93,1055.4l3.77.07-.35-.51-3.38,3,.53.63,0-3.7Z"/><path d="M222.47,1045.71l3.2-3.41-.31-.3c0,1.31-.07,2.63-.11,3.94l.36-.63H222Z"/><path d="M212.7,1055.47l3.26-3.2-.42-.53c-1.06,1.07-2.12,2.15-3.19,3.22Z"/><path d="M216,1052.27l3.2-3.22-.41-.5-3.21,3.19Z"/><path d="M219.16,1049.05l3.31-3.34-.48-.41-3.24,3.25Z"/><path d="M212.23,1045.22l-3.31,3.14.59.56c0-1.22,0-2.45.05-3.67l-.49.53,3.61-.07Z"/><path d="M203.08,1039.29l3.13-3.3-.29-.29c0,1.2-.07,2.41-.11,3.61l.51-.46-3.64.05Z"/><path d="M206.21,1036c1.06-1.08,2.12-2.17,3.19-3.25l-.26-.25c.13,1.19.26,2.36.38,3.54l-3.6-.34Z"/><path d="M199.81,1042.46l3.27-3.17-.4-.39c0,1.21,0,2.43,0,3.64l.5-.48-3.66.08Z"/><path d="M196.7,1045.67l3.11-3.21-.33-.32c0,1.22,0,2.44-.07,3.66l.46-.48-3.65,0Z"/><path d="M183.34,1058.71c0-1.26,0-2.52-.05-3.78l3.62.52-.37-.5Z"/><path d="M186.91,1055.45l3.07-3.18-.24-.53,0,3.72.51-.61-3.68.1Z"/><path d="M190,1052.27l3.43-3.19-.43-.57c0,1.25,0,2.5,0,3.75l.53-.53-3.75,0Z"/><path d="M193.41,1049.08c1.1-1.13,2.19-2.27,3.29-3.41l-.48-.37c0,1.24,0,2.49-.05,3.74l.55-.55-3.74,0Z"/><path d="M158.16,1119.59l-.18-6.83-.44.61,3.61-.5-.36,7,.43-.43h-3.57Z"/><path d="M151.73,1126.36l2.85-3.17-.17-.5-3.26,3.17Z"/><path d="M148.43,1129.41l3.3-3.05-.58-.5-3.22,3.18Z"/><path d="M154.58,1123.19l3.58-3.59-.51-.19-3.24,3.28Z"/><path d="M145.19,1132.62l3.24-3.21-.5-.37-3.24,3.23Z"/><path d="M141.94,1135.77l3.25-3.15-.5-.36-3.23,3.2Z"/><path d="M138.49,1139.11l3.45-3.33-.48-.32-3.27,3.2Z"/><path d="M208.61,1115.75q-1.17,2-2.33,4l-10,6,.37.44v-6.89l-.49.62,13.35-10.38C209.2,1111.64,208.9,1113.69,208.61,1115.75Z"/><path d="M193.07,1119.86c.1-2.37.21-4.73.31-7.1l-.49.57h3.73l-.62-.48q.08,3.56.14,7.11l.49-.62Z"/><path d="M199.23,1109.66l-3.23,3.2.62.48,0-3.71-.5.53,3.67,0Z"/><path d="M212.78,1106.4l-3.76,3.74Z"/><path d="M202.51,1106.4l-3.28,3.26.59.47,3.25-3.25Z"/><path d="M205.8,1103.28l-3.28,3.12.55.48,3.19-3.2Z"/><path d="M209.06,1100.12l-3.26,3.16.46.4,3.24-3.21Z"/><path d="M212.41,1096.82l-3.35,3.3.44.35,3.26-3.19Z"/><path d="M421.45,1340.29l-.19,1.35s0-1,0-1S421.45,1340.29,421.45,1340.29Z"/><path d="M418.74,1351.44h0Z"/><path d="M415.4,1351.41l-3.47,3.45Z"/><path d="M119.44,1077.39l-3.85,3.8Z"/><path d="M122.63,1074.27l-3.78,3.73Z"/><path d="M125.91,1074.22l-3.83.57c1.25-1.43,2.5-2.87,3.76-4.3l-.5.61,0,3.66Z"/><path d="M125.84,1070.49l2.15,2.26c.16-.78.31-1.57.46-2.35l.61.7h-3.72Z"/><path d="M196.26,1125.8,193,1129l.38.42,3.25-3.19Z"/><path d="M193,1129l-3.28,3.2.41.4,3.25-3.18Z"/><path d="M215.49,1080.83l-3.23,3.24.37.37c0-1.23,0-2.46.05-3.69l-.34.34,3.61.07Z"/><path d="M218.88,1077.5l-3.39,3.33.46.33c0-1.2,0-2.41-.08-3.61l-.33.32,3.66.06Z"/><path d="M103.33,1267.44l-3.79,3.75Z"/><path d="M135.35,1058.63l3.18-3.21-.31-.5-3.23,3.23Z"/><path d="M138.53,1055.42l3.38-3.43-.5-.31c0,1.26,0,2.52,0,3.79l.48-.54h-3.69Z"/><path d="M215.54,1029.59l3.26-3.6,3.56,0q-.2,3.49-.41,7l.49-.55-3.74,3.74.54-.5-7,.47.42-3.69-.43.41,3.7-3.72Z"/><path d="M167.78,1074.28,164,1078c0-1.26,0-2.51-.05-3.77Z"/><path d="M170.94,1071l-3.71,3.76c0-1.25,0-2.49,0-3.74Z"/><path d="M174.17,1067.83l-3.78,3.73c0-1.23.05-2.45.08-3.68Z"/><path d="M177.35,1064.64l-3.7,3.71c0-1.26,0-2.53,0-3.79Z"/><path d="M180.59,1061.4l-3.7,3.7c0-1.24,0-2.49,0-3.73Z"/><path d="M183.81,1058.17l-3.7,3.7,0-3.7Z"/><path d="M170.41,1112.92l-3.33,3.1.55.5,3.22-3.2Z"/><path d="M173.66,1109.78l-3.25,3.14.44.4,3.22-3.19Z"/><path d="M176.87,1106.56l-3.21,3.22.41.35,3.23-3.21Z"/><path d="M180.07,1103.39l-3.2,3.17.43.36,3.22-3.21Z"/><path d="M190.07,1103.59l3.27-3.16-.31-.32,0,3.57.41-.38-3.6,0Z"/><path d="M183.47,1100l-3.4,3.35.45.32,3.27-3.22Z"/><path d="M193.34,1100.43l3.26-3.22-.35-.34.44,3.7-3.66-.46Z"/><path d="M193.46,1119.41l-3.71,3.7Z"/><path d="M209,1058c.07,2.4.13,4.81.2,7.21l.43-.62-3.82,3.77.54-.58-9.79,7h-3.36l-3.1,3.24-3.3,3.2-3.74,1.67,14-18.22,2.38.09,3.56-2.88,3.4-3.75-.58.5h3.74Z"/><path d="M189,1061.87q.58-3.51,1.19-7l-.51.61,3.78-3.73-.53.53,3.76-3.77-.56.55,3.71-3.72-.46.48,3.73-3.74-.5.48,3.68-3.69-.51.46,3.74-.5-.48,7,.49-.53-3.77,3.7.56-.5-3.8,3.77.62-.61Z"/><path d="M180.18,1094.06c-.17-2.27-.35-4.55-.52-6.82l3.4-4.79,4,1.42-.54,7,.5-.54-3.76,3.73.57-.41Z"/><path d="M196.18,1100h3.76l-3.78,3.74C196.17,1102.53,196.18,1101.28,196.18,1100Z"/><path d="M199.41,1096.81l3.74,0-3.75,3.72C199.41,1099.32,199.41,1098.07,199.41,1096.81Z"/><path d="M202.62,1093.63l3.74,0-3.7,3.67C202.65,1096.11,202.64,1094.87,202.62,1093.63Z"/><path d="M205.87,1090.39l3.71.09-3.65,3.68Z"/><path d="M209.06,1039.34c0-1.25,0-2.5,0-3.75l3.76,0Z"/><path d="M161.22,1110.15l3.24-.49-3.68,3.67C160.93,1112.27,161.07,1111.21,161.22,1110.15Z"/><path d="M164,1110.14c.07-1.16.13-2.31.19-3.47l3.49-.19Z"/><path d="M167.18,1106.92l3.72-3.69Z"/><path d="M170.42,1103.72l3.71-3.67Z"/><path d="M173.65,1100.54l3.67-3.68Z"/><path d="M176.91,1097.31l3.64-3.63Z"/><path d="M186.52,1080.69l3.77,0-3.76,3.76C186.53,1083.21,186.52,1082,186.52,1080.69Z"/><path d="M189.74,1077.47l3.76,0-3.75,3.74C189.75,1080,189.74,1078.73,189.74,1077.47Z"/><path d="M193,1074.27l3.76,0L193,1078C193,1076.78,193,1075.52,193,1074.27Z"/></g></g></svg>