<svg xmlns="http://www.w3.org/2000/svg" viewBox="0 0 604.11 1366.11"><g id="Layer_2" data-name="Layer 2"><g id="Layer_1-2" data-name="Layer 1"><path d="M70.42,1351l6.74,10.67c-32.16,6.42-63.73-20.43-67.59-57C7,1280.67,5,1256.7,2.9,1232.75c-.18-2.09-.41-4.92.72-6.28,15.59-18.81,7.23-40.65,7.5-61.14.91-67.58,1.14-135.17,1.25-202.75q.18-113.37-.48-226.73c-.12-16.73-6.25-34.19-3.11-50,7.05-35.44-14.74-67.5-7.15-103.5,5.83-27.66,13.9-49.66,40.1-62.93C78.05,501,114,481.88,150,462.8c8.5-4.51,16.33-10.3,24.68-15.11,7.78-4.48,12.11-9.41,8-19.3-1.59-3.85-1.15-10.66,1.34-13.71,10.32-12.69,9.16-26.73,7.35-41.3-7.07-57.11,6.3-111.88,18.73-166.88,5.05-22.35,10.91-44.31,3.73-68.62-4.6-15.6.15-34,.89-51.12q1.47-34.11,3.25-68.22C218.58,6.37,224.59,0,237.3,0c46.1.19,92.2.51,138.29,0C391.33-.18,398.4,8.31,399,21.73c1.44,35.28,7.83,72,.5,105.56-8.27,37.83-.73,70.9,9.91,104.86,15.88,50.67,20,101.79,10.8,154.07-.66,3.79-1,10.08,1,11.5,12.32,8.5,9,20.26,9,32,0,5.76,2,13.71,6.11,17,35,27.88,73.18,50.26,116.65,62.43,25.2,7.05,45.95,29.7,48.66,56.16,3.37,32.92,3.76,65.26-1.57,98.86-6.66,42-3.75,85.48-4.49,128.34-.76,44.42-.86,88.86-1.45,133.29a369.59,369.59,0,0,1-1.88,36.93c-.64,5.54-4.35,10.67-6.23,16.14-1.5,4.37-3.1,8.94-3.31,13.48-.48,10.62-.15,21.28,2.95,32.61l4.59-27.59,4.33-.88c1.13,5.74,3.21,11.47,3.24,17.21.29,54.1-.19,108.21.43,162.3.51,44.66,3.18,89.31,2.69,133.93-.12,11-7.65,22.66-13.83,32.75-14.42,23.6-39.92,22-62,21.23-14.59-.49-32.48,6.94-45.22-8.15-1-1.22-6-1.24-7-.06-10.9,13.8-25.67,6.83-38.67,7.08q-114.88,2.21-229.78,3.27c-36.93.35-73.88-.15-110.81-.93-3.39-.08-7.3-4.51-9.85-7.8-3.58-4.62-6.11-10.06-12.24-14.12q-.42,4.15-.86,8.27c-3-5.67-6.8-11.07-8.62-17.06-1.06-3.52-.13-10.7,1.94-11.62,12.05-5.34,24.42-10.52,37.22-13.43,16.61-3.79,32.72-9.36,51.13-5.34,8.62,1.88,19.64-7.25,29.56-11.39,0-16.89,2.06-34.3-.72-50.89-1.87-11.16,2-14.17,10.13-14.7,13.22-.85,26.53-.14,39.8-.14H414.88c-1.11,7.09-1.59,10.17-2.38,15.24l12.69-14.5,4.07,4.27-23.46,18.43c1-8,1.47-12.12,2-16.42l-24.21,9.74c-.4-1.2-1.13-3.44-2.2-6.68l-12.09,14.39q.79-6.09,1.6-12.19l-2.67-.83-12.43,17.42c-.94-5.7-1.89-11.41-3.21-19.33-14,16.37-34.25,23.34-33.54,46.47,9.36,1.45,19.32,5.91,25-7.12v12.45l9.37-8.59c1,2,1.88,5.67,3.12,5.81,25.46,2.78,50.93,5.49,76.47,7.36,5.59.41,11.43-2.48,17.16-3.84,2.2,2.37,4,6.13,6.66,6.87,14.82,4.14,30.63,5.73,44.6,11.69,15.53,6.63,29.45,17,44.07,25.76l3.83-2-12.24-22.87c25.28-16.11,35.34-33.11,22.58-40.57,22-3.2,2.53-22.76,12.74-31.27-10.7,6.53-26.59-8.64-34.57,9.22.3-3.54.61-7.09,1.11-13L529.52,1244c-3.63-20.06-10-2-14.9-.51.2-3.7.33-6.12.56-10.19l-8.7,13.22-3.33-2.76c.4-2.94.79-5.88,1.26-9.39H490.62l7.81,5.24a51.75,51.75,0,0,1-7.16,2.62c-6.47,1.39-13,2.48-19.49,3.7.26-3.78.53-7.55.92-13.2l-13.53,10.93c1.57-18.15,13.75-15.52,22.9-15.71,34.67-.73,69.36-.7,104-.94-3.05,5.24-8.53,10.38-8.7,15.69-.94,29.21-.59,58.45-.67,86.9,10.27-2.37,16.43-8,17.29-22.74a531.27,531.27,0,0,0,.07-59.46c-.37-6.78-5.51-13.29-8.46-19.93v-26.75l-3.67-3.39-8.89,17.88-3.8-3.41q1.74-4.35,3.5-8.71l-2-1-12.65,15.43c-1.49-4.14-2.24-6.2-3.35-9.27-3.76,5.24-6.63,9.24-7.68,10.69-2.53-2.85-5.37-5.28-7.2-8.32-2-3.25-3-7.08-4.78-11.59l-11.88,13.72c.83-4.79,1.57-9,2.22-12.81l-10.32,1.19-1.77-3.37-22,7.3-3.23-7-12.92,7.08-27.62,3.35c-.29-1.56-.57-4.5-.86-4.5-11.06,0-22.6-1.74-33.07.84-14.86,3.68-29.49,2.89-43.87.86-18-2.54-24.64-.1-28.51,16.47-25.26,0-50.82.47-76.36-.13-26.67-.62-53.32-2.27-80.53-3.49,9.19-13.31,2.61-18.39-11.41-18.66-11.11-.21-22.24,0-36.84,0,2.56,8.18,4.58,14.65,6.46,20.64H30.83c24.43-5.82,48.33,5.7,64.05-8l32,6.5c-3.15-8.69-4.28-15.71-6-15.84-33.52-2.66-67.1-4.53-97.75-6.38-2.32,12.67-3.71,21.42-5.6,30-.85,3.9-2.68,7.57-4.06,11.35,3.79-.83,8.13-.77,11.28-2.67,7.28-4.4,9.33-5.58,14.26,4.73,4.63,9.71-7.06,8.07-5,15.56,3.93,14.16,3.92,29.4,5.62,44.18.45,3.87,1.17,7.71,1.79,11.77l-14.24-7.87c1.74-2.2,3.83-4.82,5.92-7.45l-17-5.74c2.92,23.23,7.39,41.41,23.14,53.83,2.47,2,9.55-1.91,13.75-2.91,3.65,4.07,7.72,8.8,12.15,13.16C65.36,1355.05,68.58,1352.3,70.42,1351ZM256,499.37c1.43,2,2.85,4.08,4.28,6.11,21.56,3.18,43.08,8.62,64.7,9,43.46.86,87-1.49,130.47-1.57,21.73,0,43.46,2,65.2,3.07.52-2.08,1-4.15,1.55-6.23-4-2.95-7.73-6.23-11.93-8.81-28.71-17.62-57.38-35.28-86.35-52.45-6.37-3.78-13.88-5.64-20.87-8.38-.4,1.27-.8,2.54-1.19,3.8l17.11,2.31c-7.41,4.24-10.72,7.2-14.52,8.11-13.22,3.16-26.51,6.35-40,8.11-10.44,1.36-21.61,6.79-31.33-4-2.92-3.22-9.47-3.3-14.44-4.47s-11-.39-14.67-3.08c-11.58-8.5-16.83-8.72-25.55,2.77-2.3,3-1.32,11.08-3.14,11.53-19.18,4.67-19.59,19.24-19.39,34.49ZM444.27,655.56c3.67,3.43,6.91,7.57,11.12,10.09,5.3,3.18,11.4,5,17.15,7.45l2.1-4.27c-4.72-5.51-8.89-11.66-14.32-16.36-6-5.16-12.55-6.78-15.64,3.55l-9.18-5.22c-.4.73-.8,1.45-1.19,2.18l7.33,9.85-15.37-1.74L424.92,667l31.63,9.29ZM266.68,1281.4c29.7,3.66,31.29,2.76,37.52-22.58l-28.13,7.79c-.22-2-.45-4-.67-6l-4-.81ZM443.76,629.08l18.12,14.58,2.87-2.95q-4-10.71-8.05-21.42c3,3.29,6.9,6.14,8.95,10,5.48,10.24,9.44,19.52,25.25,14.71,10.61-3.23,23-.61,37.28-.61l13-62.61,5,.08q4.21,32,8.42,64L572,643.35c0-11.5,1.25-23-.27-34-3-21.73-1.46-47.39-24.16-59.08-14.21-7.32-32.39-6.89-49.77-10.13,6.93,10.41,13.25,19.9,22,33.06-14.78-6.64-13.72-26.59-31.86-21l6.93,12.06-1.83,1.28L473.76,550.3l-2.35,3.36,12.18,16.73L482.07,572l-17.54-15.64c-.56,4.4-1,7.63-1.37,10.86s-.63,6.25-1.05,10.43c-19.3-17.42-19.63-17.48-24.81-6-12.47-20.14-12.47-20.14-21.85-13.52q2.67,5.67,5.36,11.35l-22.57-17.56c-.8.91-1.59,1.82-2.38,2.74q3.12,6.71,6.23,13.42l-19.47-14.18c2.78,10.31,4.35,16.12,5.91,21.92L385.31,578l-16.37-26.33-3.88,1.67,10.35,26.77-7.66-4.2-3.39,2c2.55,6.87,7.76,14,7.14,20.57-1.88,19.72-2.65,20.1,11.9,33.47,4.14,3.8,8.51,7.37,12.77,11l2.9-3.55-3.34-8.46,17.95,11.15,1.41-2.68q-8.55-15.46-17.11-30.93l14.12,7.14-6.79-13.72c10.21,1.28,12.67,21.26,25.57,7.62l13.23,19.94L425.3,613.23l-3.4,4c3.29,14.11,11.77,22.69,28.36,25.69C447.51,637.05,445.63,633.07,443.76,629.08ZM66.05,1058.57H39.58v13.89L54,1079.25c2.25-3,4.37-5.78,7.58-10,.35,5.92.56,9.49,1,17.24l10.73-15.94c.39,6,.65,10.19.76,11.85l24.21,6.89c5.13-16.57-.33-24.07-16.57-25-5.47-.32-10.77-3.86-16.26-6H90.17c-.72-5.86-1.33-10.92-2-16l-2.89-.12-1.84,4.61-38.42-5.43c-.34,1.34-.69,2.67-1,4Zm86-284.31q-5.13,6.86-10.23,13.67c-.53-2.34-1.36-6-2.94-13.08-1.53,23.82,25.2,36.75,51.86,28.86,4.75-15-2.15-21.61-16.37-23.92-7.73-1.25-15.23-3.89-22.88-5.92,6.94.36,13.91.37,20.8,1.18,6.21.73,13.25,4.42,14.33-6.18.81-7.91.3-15.09-9.71-17-10.22-2-20.39-4.15-30.58-6.24L141.91,749Q147,761.65,152.07,774.26ZM485.83,529.53h47.33c-2.19-5.74-5.39-10.15-8.91-10.41a203,203,0,0,0-32.52.47c-3.27.28-6.23,4-9.33,6.16-4.9-1.12-9.77-3-14.7-3.19-8.47-.36-17,1-25.47.36-10-.7-19.91-3-29.93-3.86-3-.25-6.26,3.34-9.26,3.12-10.2-.77-20.34-2.46-32-4,2.79,13.3,8.23,17.27,18.68,16.76,15.45-.76,31,.56,46.45-.3C452.75,533.72,469.27,531.3,485.83,529.53ZM158.34,828.84c-3.67,2.14-10.36,4.09-10.51,6.45-1,15.29-.49,30.67-.49,47.7l39.16,4.84c.6-9.24,1-16,1.49-23.09l-22-6.65,23-1.69c-.69-8.32-1.2-14.47-1.67-20l-29.42-7.83,31.39,1.83c-3.19-19.64-12.75-24.67-41.46-23.55C145.24,817.05,146.08,825.63,158.34,828.84ZM308.76,1093c8,.89,16,2.56,23.94,2.57,64.81.06,129.63-.63,194.43,0,16.11.15,21.19-6.19,19.65-20.82-.45-4.2-.62-8.43-.91-12.65a8.4,8.4,0,0,0-2.61,5.73c-1.59,20.43-3.79,22-24.21,21.74-25.91-.39-51.83-.09-73.58-.09l-13-19.74c-6.3,13.41-9.82,13.53-21-.17-2.43,19.42-16.38,18.68-30,18.66-19.1,0-38.19,0-58.15,0v-14.11l-2.71-1q-5.83,10.14-11.7,20.23l-10.14-10.72L265.92,1091c-.06.65-.13,1.31-.2,2ZM402,724.69c-3.76,23-5.63,45.91,1.17,68.57a476.35,476.35,0,0,0,4.39-57.55c.06-3.47-3.94-7-6.06-10.53,22.28-16.45,23.78-16.3,43.49.79,17.21,14.94,34.75,29.5,52,44.37,6.37,5.48,15.17,10.34,17.76,17.37,2.47,6.72-1.69,15.88-3.81,29.57,7.24-7.07,15.4-11.42,15.55-16,.25-7.7-2.46-17.73-7.72-23C496,755.7,472.45,733.86,448,713.11c-8.62-7.32-19.93-17-32.68-8.48-26.41,17.57-57.43,27.32-81.2,49.5-9.69,9-22.28,14.88-32.88,23-10,7.7-9.62,17.64-1.78,26.56,6.45,7.34,13.8,15.84,25.69,4.12-3.16-1.41-5.91-1.91-7.56-3.53-4.35-4.28-10.36-8.59-11.48-13.8-.66-3.08,6.27-8.49,10.61-11.77,8.12-6.12,16.7-11.66,25.33-17.07C362,749.23,382,737,402,724.69ZM530.34,852.23c2.57-23.34.86-26.24-24.17-35.54-43-16-87.37-19.56-132.55-12.37-29.61,4.72-58.34,12.4-85.88,29.21,7.59,13.16,14.84,25.75,22,38.13,70.9-32.7,139.77-34.37,209.88-2.65l8.08-11.69c-3.5,9.11-7,18.23-11,28.54L541.78,906c6.17-11.81,11.41-21.84,17.85-34.14C553.74,864.12,546.67,852.05,530.34,852.23ZM147.46,560.93c-2.54,4.8-6.27,9.34-7.35,14.44-1.81,8.57-1.93,17.5-2.65,25.1l-14.84-9.17,11.8-3.21L125,585.55c2.25-1.53,7.78-4,7.53-5.31-4.35-22.63,15.78-35.29,21.74-55-22.82-3.23-45.36-7.59-68.1-9.37-37.93-3-71.41,24.57-73.06,62.64-1.4,32.46,2.23,65.13,3.76,100.65,7.18-3.78,13.14-5.88,13-7-1.44-9-4-17.89-6.46-27.56,13.25-5.26,33.26,10.25,45-6.59l15,9.17v-35c3.25,7.14,2,14.61,3.71,21.3,1.09,4.17,6.72,10.23,10.28,10.21,22.48-.12,45.07-.75,67.35-3.43,6.08-.73,15.6-8.69,16.05-14,1.84-21.52.77-43.28.77-65.82-11.78,0-23.21,0-34.63,0,12.34-2.33,27.2-1.25,36.31-8s12.22-21.15,18-32.21l-1.8-3.76c-11.77,4.46-26,6.27-34.58,14.18C157,538,141.06,544.16,147.46,560.93ZM246.93,78.25c4.1-3.22,7.73-7.77,12.38-9.41,16.9-6,14.76-20.18,12.47-32-2.34-12-12.88-15.83-27.88-11.93.84,11.32,2.06,23.36,2.43,35.43.1,3.13-3.52,6.36-3.46,9.51,0,2.73,2.88,5.41,4.49,8.11l-17.24,1.24c3.21,5.62,10.51,13,9,16.59-6.55,15.18-.13,26.76,5.78,39.76,8.78,19.31,5.53,33.81-5.72,39.84,2.13,8.94,4.19,17.55,7,29.21l-15.82-5.83c4.55,6.69,7.57,11.14,10.6,15.58l-4.46,4.1L225.3,200l-5.76,3.47c1.66,6.28,3.43,18,5,18,16.13-.32,9.16,9.8,8.68,17-.62,9.37-1.19,18.74-1.64,25.92-1.7,7.95-3.61,14.16-4.22,20.51-.68,6.92-.16,14-.16,21.53l6.93,1.07c-14.66,8.35-4.73,15.71-.67,23-12.59,19.23-11.11,61.32,1.62,75.62-.81,11.28-1.46,20.37-2.12,29.63l15,.87c-.36,1.62-.72,3.24-1.09,4.87l-54.32-12.91,16,15.3L82.33,510c.41,1.73.83,3.45,1.24,5.18,32.32,0,64.65-.34,97,.12,20.79.3,39.45-3.81,53.53-20.48,13.83-16.37,33.93-28.06,39.49-51-12.41-4.43-11.93-12.26,2.14-33.81-.28,6-.45,9.86-.44,9.66h87.46q.38-2.92.73-5.87c-4-1.81-8.06-5.13-12.12-5.17-16.28-.19-32.56.82-48.84,1.05-22.08.31-28.95-4.39-28.51-19.73l22.16,1.62-18,6.27c44.85,8.94,77.51,2.14,80.8-16h-18c23.42-6.93,23.8-7.64,20.81-33.34H335.48l-.12-1.35,13.23-2.1.06-3.61-98.74-6.85.51-4,23-17.11-10-5.73,5.09-.15c2.71-9.42,7.32-18.76,7.73-28.28.7-16.3-2.36-32.76-1.76-49.08.79-21.48,2.85-43,5.77-64.29,2.13-15.53-2-23.43-21.94-19.65l25.91-15.07-8.61-3.66,1-3.3,15.6,1.71.57-1.6-14.31-6.59c-.59-11.37-1.07-20.76-1.68-32.53l31.77,22,4-6.27c-13.88-9.32-27.06-20.13-42-27.23C264.68,70.94,254.9,76.49,246.93,78.25Zm-6.14,859.92c-5,.92-11.81,1.33-17.89,3.69-3.07,1.19-7.3,6.57-6.68,8.93,4.8,18.43,10.15,36.76,16.4,54.76,3.28,9.44,7.64,18.92,13.46,27,6.31,8.74,8.8,7.86,11.34-2.11,2.07-8.11,3.37-16.42,5-24.65,10.16,35.68,10.16,35.68,26.89,33.59q11.07-48.07,22.05-95.82l-14-3.62q-5.22,32.77-10.47,65.76l-7.43-.42q-1.8-34.69-3.6-69.3l-27.1-1.57,8.94,4.32c-2,3-5.8,6.14-5.92,9.39-.6,17-.28,34.07-.28,51.11l-4.42.13C244.94,978.64,242.82,957.94,240.79,938.17Zm244.82,102.19-2.22-36.67,4.13-.11c1.36,11.43,2.73,22.85,4.19,35.08l8.07,1.51c-1.49,9.95-2.81,18.71-4.13,27.47l5,.79c4.49-14.11,9-28.21,14.33-45.05v16.3H542.8v-34.44l-2.76-.76c-2.15,7.49-4.3,15-8.07,28.08-3.38-8-7.51-12.95-6.79-17,3-16.83,7.37-33.4,11.28-50.18l7,3.41c-.49-7.84-.9-14.48-1.37-22.12H516.94v69.74l-4.86-.07-1.8-18.27-1.42.1-2.43,22.57c-13.42-40-13.42-40-2-76,8.29-2.83,17.54-3.2,19.93-7.44,3.63-6.45,2.5-15.58,3.4-23.57l-4.65-.34c-.82,5.91-1.63,11.82-2.65,19.19-2-3.17-3-4.83-4.65-7.39l-4.36,11.47L495.74,940c-4.48,14.51-8,25.77-12.23,39.62V946.11l-13.22-7.6c.61,13.88,1.23,26.9,1.74,39.91.32,7.89-2.63,18.31,1.32,23.16,9.25,11.32,3.11,19.18-1.81,28.21-1.47,2.69-3,5.34-5,8.9Zm-166.78.33,26.35-1.68c-.87-6.93-2-13.84-2.51-20.79-.42-5.8-1.29-12.05.44-17.31.92-2.82,6.92-4,10.63-5.87,1.81,3.67,5.45,7.53,5.1,11-1.06,10.27-3.68,20.38-5.7,30.56h28.61c1.38-9,2.62-16.93,4.46-28.85-3.73,6.62-5.37,9.52-7,12.42l-5.13-.78c2.16-22.17,4.54-44.33,6.31-66.54.33-4.11-1.78-8.4-2.89-13.17l-16.42,8.22V927.09l-4.91-.12c-.58,7.5-2.15,15.08-1.48,22.47.88,9.68,3.53,19.2,5.43,28.82-22.24,2.51-22.8-13-17.81-20,10-14.06,3-19.4-7.18-25.45-21.33,50.38-22.5,59.44-6.22,61.13ZM28.34,1008.34l-6,.13c1.93-36.18,4.38-72.34,5.64-108.54,1-29.32.73-58.69.59-88,0-2.36-3.38-4.7-5.19-7l-4.21,1.43v278.09C41.37,1038.69,33,993.1,28.34,947.83Zm399,34.3c11.42-4.8,23.25-6.14,28.22-12.68,7.93-10.44,10.62-24.82,3.35-37.62-4.54-8-12.32-14.14-16.95-22.11-2.34-4-.89-10.23-1.15-15.46l15,1c-.29,1.12-.57,2.25-.85,3.37l-9.46,5.33,19.12,4.9c-.53-9.25-1-18-1.43-24.85l-36.4-12.21c-1.44,8.15-3.54,19.48-5.37,30.85a9.89,9.89,0,0,0,.85,6.25c8,12.95,17,25.39,24.09,38.81,2,3.7-1.32,10.19-2.2,15.39-3.32-3-6.76-6-9.92-9.18-1.63-1.65-2.77-3.78-6.91-9.62ZM182.86,653.34l-28.92-1.29L143.4,664.5c-5.6-5.9-8.79-12.35-12.41-12.59-23.81-1.61-47.72-2.22-71.6-2.18-3.25,0-9.65,6.24-9.15,8.17,1.41,5.38,5.48,14.09,8.84,14.25,13.52.62,27.16-1.57,40.76-2.55a158.4,158.4,0,0,1,19.1-.63c21.83,1.11,43.64,2.57,67.28,4C184.74,664.34,183.87,659.27,182.86,653.34Zm236.42,387c-12-32.07-12.76-63.27-2.14-96.12l-19.48-4.53L396,930.15l-3.71.43,6.24,88.82-4.33.45q-1.33-11.83-2.66-23.68l-1.6.23v43.94ZM399,907.15c22.16-1.89,43-7,62.8-4.41,19,2.49,36.83,2.13,55.15,2.25l-.09-4.32-21-13.52-5.95,4.61c-.69-7-1.2-12.3-1.53-15.63L473.53,891c-.63-5.67-1.15-10.27-1.66-14.87l-1.74-.07c-.85,4.86-1.69,9.72-1.73,9.94L449,892.09c2.92-4.3,4.71-7,6.51-9.59-16.16,10.53-32.12,15.21-50.23,3.16C403,893.62,401.42,898.91,399,907.15Zm137.62-390-3,4.65c3.63,2.37,7.2,4.84,10.91,7.09,7,4.23,15.13,7.2,20.86,12.71,14.65,14.07,14.75,33.45,17,52.06,1.92,16-9.12,32.9,3.69,51,3.7-4.85,8.24-8.07,8.59-11.7,2.84-28.8,2.47-56.68-9.59-84.64C574.76,524.43,552.86,527.11,536.62,517.17ZM131,906.24c-1.13,4.33-1.95,7.61-2.84,10.87-3.06,11.18-5.42,21.74,12.79,17.87,1.37-.29,3.14,2.52,4.95,2.94,13.59,3.2,27.24,6.16,43.77,9.84-1.36-13.09-2.32-22.25-3.32-31.86l-35.45-6L145,925.36l-3.8-1.23q1.53-6.89,3-13.76Zm151.28-2.7L313.87,885l-24-35.78L254.11,870.4Zm-96,74.89-41.43-7.13v26l40.3,6.81C185.6,993.79,185.9,987,186.28,978.43Zm-6.78,321.65c-12,7.83-22.53,14.19-32.25,21.58-1.19.91.58,9.31,3.07,10.85,12.52,7.73,25.43,6.53,39.29-2.08ZM345.92,786.23c-1.16-7.48-1.91-12.26-2.73-17.52l-30.47,21.23L333,806.71c22-2.49,29.93-20.86,15-46C347.23,769.74,346.71,776.28,345.92,786.23ZM185.31,973.48c5.17-19.79-11.08-30.44-40.33-28v21Zm45-963.83c.16,1.79.33,3.58.49,5.37,46.58,0,93.15-.1,139.72.12,5.73,0,11.46,1.81,17.19,2.78-1.14-3.73-4.66-8.08-8.39-8.25-14.89-.71-29.85-.06-44.79,0Q282.46,9.7,230.35,9.65ZM559.19,997.71l5.41.09q4.64-23.73,9.29-47.48l-4.14-.8-4.61,18.68-2.46-.41V914h-2.36q-.74,13.85-1.46,27.69l-4-.16V922.79C541.28,949.5,559.09,972.53,559.19,997.71ZM465.74,854.49c-4.34,1.47-9.43,2-12.9,4.57-24.28,18.34-27.68,18.47-53.89,2-5.55-3.48-12.09-5.4-18.17-8C410.71,891.9,431.13,892.43,465.74,854.49ZM580,934.17l7.7-.18V864.8l-1.14.09c-2,10-3.95,19.93-6.35,32.07-.55-7.46-.91-12.44-1.15-15.66L554.3,902.35l-3.19-2.89-2.52,14.79c9.54-18.36,24.68-4.39,34.92-8.54C582.27,915.81,581.14,925,580,934.17ZM413.57,336.89l-6.19-2.37c-1.42,3.81-3.52,7.52-4.13,11.45-1.78,11.56.74,25.87-5.24,34.21-9.13,12.73-4.34,19.87,4.09,28.33l-8.45,3.23c.28,1.15.57,2.3.85,3.44l23.24-4.05c-20-11.37-10-24.77-9.12-36.62C409.52,361.92,411.86,349.43,413.57,336.89Zm-189.64-.29-25.36,1.95c1.51,12.93,3.05,27.29,5.3,41.54.09.56,6.86.07,8.62.07-1.46-6.31-2.51-10.81-3.55-15.31l12.31,6.22C222.12,359.87,223,348.44,223.93,336.6Zm-40.42,693.71c4.25-22.85,2-24.58-31.44-25.26C148.3,1028.63,152.65,1032.25,183.51,1030.31Zm1.81,78.51c.93-22.35-2.48-24.93-32.28-25.58C148.23,1107.46,150.23,1109.1,185.32,1108.82Zm-1.67,51.1c3.39-24.23-3.42-29.76-30.41-28.81v22.08Zm-31-103.94c-2.05,22.18,5.36,27.34,32.42,24.72V1063ZM389.48,896l-3.89,1.31c-1.37-3.51-2.74-7-4.35-11.18-1.57,13.47-11,11.51-19.92,11.38-16.58-.24-33.16-.07-49.74-.07,24.92,5.05,49.82,6.67,74.74,7.33,2.55.06,7.07-5.51,7.46-8.85.64-5.33-1.42-11-2.34-16.5l-2,.19ZM153.75,1029.69c-7.11,19.89,2.26,24.19,16.4,26.37,8.35,1.29,15.09.07,14.49-8.67C183.19,1026.5,163.35,1039.34,153.75,1029.69ZM373,797.83c13.62-1.49,13.61-1.49,13.39-39.4,0-5.74,0-11.48,0-17.21l-3.51.14c-.74,2.84-1.47,5.69-2.15,8.32L373,743.62ZM185.72,894l-35.63-6.65c-3.71,19.89-3.1,20.26,35.63,22.32ZM183.6,748.66l4.23-4.08c-3.41-5.05-5.89-13.11-10.41-14.49-8.37-2.55-17.95-1.57-27-1.16-2,.09-5.34,3.77-5.47,6s2.63,6,4.77,6.57C160.91,744.3,172.29,746.34,183.6,748.66Zm209-506.5,16.56,65.43,4.6-1c-3.89-22.61-7.43-45.3-12.07-67.76-.62-3-6.69-5-10.45-7.07-.74-.4-2.52,1.11-5.06,2.34L398.9,238ZM124.16,1340.5c6.81,11.73,57.68,16.63,80.9,9.88ZM410.82,794.73l5.06.26V723.28h-5.06Zm71-144.7c11.8,21.28,16.67,23.75,28.68,15.69l2.07,6,2.34-.35c1-6.63,1.89-13.25,3-21.36ZM340.4,566.88c3,8,4.48,13.8,7.32,18.78,2.64,4.66,6.77,8.47,10.72,13.21l-9.93,3c4.48,6.39,8.57,12.24,12.65,18.08.45-5.9-4.08-10.62-3.44-14.47C361.84,580.77,361.75,579.58,340.4,566.88ZM573.64,1061c-17.18,18-6.26,35-6.72,53.59C586.32,1097,568.93,1079.19,573.64,1061ZM150.9,1122.55l34.2,10C182.19,1113.7,171,1110.09,150.9,1122.55Zm270.34-327.2h11.2c-13.54-23.7-1.69-51.22-11.2-75.48ZM387.87,445.13l.29-4.31c-15.73-2.09-31.44-4.42-47.23-6-2.65-.27-5.62,2.6-8.45,4,2.63,2.1,5.19,5.93,7.88,6C356.18,445.43,372,445.13,387.87,445.13Zm176,202.7v22.29h27.09C590.25,650.29,571.65,660.85,563.84,647.83ZM304.39,523.6c9.1,17.41,16.13,18.92,35.85,10.45.26-1.59.52-3.18.79-4.76ZM133.45,740.2c-9,9.42-9,39.89,0,59.27ZM121.3,799.67c-12.1,15.55-12.33,34.07,0,46.77Zm270.1-6.33,3.28-.45v-58.5l-3.28.13ZM475,1068l-3.34-.58c-1,5.76-2.06,11.52-3.26,18.26h17.77c-.78-10.33-1.51-19.86-2.23-29.39l-4.63.35c-.29,6.58-.58,13.17-1,23.73C476.47,1073.72,475.72,1070.87,475,1068Zm94.21-236.43c14.37-13.93,8.68-28.8,11-46C562.87,800,570.34,815.19,569.18,831.58Zm-469.38,58c-5.17,1.7-8.5,2.16-11.08,3.79-3.2,2-5.78,5-8.63,7.59,3.44,1.5,7,2.81,10.3,4.52,3.48,1.8,6.77,4,12.65,7.48C101.92,904.92,101,898.17,99.8,889.61Zm477.52-54.52-4.82-.1v36.65l4.82.11Zm13.88-17.63-7.09-1.27q-1.26,18.16-2.53,36.33l6.67.62Q589.72,835.31,591.2,817.46ZM364.65,798.58l3.66,0V751.8l-3.66.13ZM130,1076.33l-14.8-1.61v18.53L130,1098ZM390.45,76.3c-8.49.82-8.49.82-6,32.28C395.5,96.71,390.11,86,390.45,76.3ZM536.71,801.38V761.09C524.58,767.29,524.57,775.66,536.71,801.38ZM208.26,262.59l5,2.44c3.64-5.43,8.79-10.47,10.35-16.45,1-3.83-3.31-9-5.24-13.64l-3.64,1Q211.48,249.27,208.26,262.59Zm375.8,813.26,3.56-.12v-42.34l-5.64.21Q583,1054.72,584.06,1075.85ZM34.87,897.74l5,0V851l-2.22-.17Q36.26,874.29,34.87,897.74Zm530.09-90c-15.66,14.77-8.21,28.49-7,41.62l4.4.36C563.18,836.75,564,823.81,565,807.71ZM402.4,648.91,398.17,655c7.64,6.54,10.55,20.6,29.66,15.88ZM565.18,780.06l-9.53-1.55q-1.24,13.77-2.47,27.56l6.26,1.06Q562.31,793.6,565.18,780.06Zm-419-78.83-.81,6.19,35.75,2,.39-6.13Zm405.46,387.69,5.56-.44q-1.41-21-2.81-42l-5.34.44Q550.29,1067.93,551.59,1088.92Zm37.5,5.79-5.55-.47q-2.56,16.35-5.15,32.72l6.65.91ZM42.42,946.92,55,932.41c1.69,5.06,3,9,5.24,15.62,2.93-17.76,2.93-17.76-20-21.46C40.84,932.27,41.41,937.51,42.42,946.92ZM93,1046.33c-.13,2.6-.4,8.07-.66,13.24l18.79,5-4.25-18.21Zm467.65-38.42L558,1009v29.24l10.74-1.37ZM88.85,843.8l-8.74,19.94c4.69-.93,10.78-.92,15.3-3.57,2.31-1.36,3.14-7.92,2.09-11.35C96.77,846.42,91.73,845.34,88.85,843.8Z"/><path d="M475.23,1205.2c3.36,10.36.7,14.94-11.13,13.24-7.6-1.09-15.49-.2-25.63-.2l9.14-9.69Z"/><path d="M260.38,503.68c-1.47-1.41-2.94-2.82-4.41-4.27,0,0,0,.36-.05.31C257.4,501,258.89,502.35,260.38,503.68Z"/><path d="M325.58,383c-17.76,1.27-35.52,2.68-53.3,3.65-2,.11-5.32-1.83-5.94-3.56-.68-1.9.32-5.65,1.9-6.84a19.85,19.85,0,0,1,13.32-4.07l-8.45,4.64.17,2.94h52.3Z"/><path d="M43.42,1227.66q36.8,0,73.59,0c12.5,0,20.17,3.39,17.69,18.83-1.82,11.38-.36,23.28-.36,35.89l-69,7.34-.45-3.59,63.56-8.15-.14-2.39c-8.42,0-17.22,1.5-25.14-.5-5.75-1.46-18.14,8.35-17.64-5h38.64c.17-1,.34-1.91.5-2.87l-7.1-2.59L129,1261.2l-17.35-1.73,14.31-4.23c-.1-.67-.21-1.33-.31-2H110c2.78-6.82,4.94-12.09,7.3-17.86l-74.84-3.46C42.78,1230.51,43.1,1229.08,43.42,1227.66Z"/><path d="M19.37,616.91c0-13.57-.47-25.38.11-37.14.78-15.78,9.82-25.44,26.22-26a463.72,463.72,0,0,1,70.85,2.5l-33.8,2.34v26.69L80,585.18V560.6C42.85,555,30.63,572.84,19.37,616.91Z"/><path d="M469.36,836c-21.19-2.33-22.48-5.33-13.11-22.1Z"/><path d="M427.8,833.46A106.77,106.77,0,0,1,417,835.67c-2.33.25-6.69-.12-6.83-.85-.6-3.13.12-6.49.16-9.77,0-1.17-.84-2.37-.78-3.53.15-2.73.6-5.45.93-8.17,3.56,1.18,8.33,1.38,10.33,3.83,1.84,2.27.72,7,.9,10.58Z"/><path d="M273.49,1272.59c1-2.18,2-4.35,3.05-6.52C275.52,1268.24,274.51,1270.41,273.49,1272.59Z"/></g></g></svg>